<?xml version="1.0" encoding="UTF-8"?>
<svg width="501px" height="424px" viewBox="0 0 501 424" version="1.1" xmlns="http://www.w3.org/2000/svg" xmlns:xlink="http://www.w3.org/1999/xlink">
    <!-- Generator: Sketch 52.2 (67145) - http://www.bohemiancoding.com/sketch -->
    <title>Asset 51</title>
    <desc>Created with Sketch.</desc>
    <defs>
        <polygon id="path-1" points="0 0 54 0 54 54 0 54"></polygon>
    </defs>
    <g id="Page-1" stroke="none" stroke-width="1" fill="none" fill-rule="evenodd">
        <g id="register" transform="translate(-807.000000, -169.000000)">
            <g id="header" transform="translate(130.000000, 169.000000)">
                <g id="Asset-51" transform="translate(677.000000, 0.000000)">
                    <path d="M500.566721,137.004639 C493.53052,50.6377059 398.568546,-17.25126 237.935363,3.89370073 C87.4324755,23.6744705 -37.568958,182.664113 10.4162519,298.55896 C68.6463537,439.193412 354.487243,450.864067 405.062325,386.33101 C430.403344,354.033788 390.829489,310.229615 426.13273,257.183047 C461.43597,204.136479 505.868701,202.247075 500.566721,137.004639 Z" id="Shape" fill="#FFDEDE" fill-rule="nonzero"></path>
                    <polygon id="Rectangle-path" fill="#FFCC80" fill-rule="nonzero" transform="translate(150.000000, 176.500000) rotate(62.510000) translate(-150.000000, -176.500000) " points="84 168 216 168 216 185 84 185"></polygon>
                    <path d="M182.762281,235.20288 L121.569936,116.077469 C121.2732,115.452663 120.664289,115.040913 119.980788,115.002875 C119.297287,114.964836 118.647502,115.306538 118.284968,115.894654 C117.922433,116.482769 117.904595,117.224108 118.238413,117.829413 L179.424027,236.961641 C179.734211,237.570502 180.341531,237.965504 181.017217,237.997854 C181.692903,238.030203 182.334302,237.694985 182.699805,237.118473 C183.065308,236.541961 183.099386,235.811741 182.789202,235.20288 L182.762281,235.20288 Z" id="Shape" fill="#F9B75F" fill-rule="nonzero"></path>
                    <path d="M177,233 L191.672901,233 C192.958122,233 194,234.041878 194,235.327099 L194,247.672901 C194,248.958122 192.958122,250 191.672901,250 L177,250 L177,233 Z" id="Shape" fill="#424242" fill-rule="nonzero" transform="translate(185.500000, 241.500000) rotate(62.510000) translate(-185.500000, -241.500000) "></path>
                    <polygon id="Rectangle-path" fill="#FF9999" fill-rule="nonzero" opacity="0.9" transform="translate(185.000000, 238.500000) rotate(62.510000) translate(-185.000000, -238.500000) " points="183 230 187 230 187 247 183 247"></polygon>
                    <polygon id="Shape" fill="#424242" fill-rule="nonzero" points="112 122 113.916555 106 128 113.601449"></polygon>
                    <path d="M257.157571,114.678497 C257.157571,114.678497 302.536089,120.796255 306.492333,79.6582131 C310.448578,38.5201711 290.976232,11.2297107 258.747955,11.0003791 C226.519678,10.7710475 257.157571,114.678497 257.157571,114.678497 Z" id="Shape" fill="#212121" fill-rule="nonzero"></path>
                    <path d="M340.536511,204.78 C340.536511,204.78 348.115668,210.607963 351.721934,208.566148 C355.328199,206.524332 349.055564,204.306732 350.542065,202.684097 C352.028566,201.061462 361.414189,205.922605 363.820588,202.805794 C366.226987,199.688983 359.507734,199.425305 359.507734,199.425305 C359.507734,199.425305 367.120221,200.615237 367.94013,197.944651 C368.760039,195.274064 360.887581,195.057713 360.887581,195.057713 C360.887581,195.057713 366.220321,195.510699 366.146996,193.333664 C366.073671,191.156629 358.987792,192.055839 358.987792,192.055839 C358.987792,192.055839 362.527399,191.798922 361.507512,188.905223 C360.487625,186.011524 339.22999,190.980843 339.22999,190.980843 C339.22999,190.980843 333.430635,200.933003 340.536511,204.78 Z" id="Shape" fill="#AA5B3F" fill-rule="nonzero"></path>
                    <path d="M340.871767,189.194601 C340.871767,189.194601 320.148174,195.61421 305.695923,188.532103 C291.243672,181.449996 280.850966,151.432197 271.976295,149.073703 C263.101624,146.715209 273.927074,201.742319 306.424031,201.987444 C338.920988,202.232568 345,198.807452 345,198.807452 L340.871767,189.194601 Z" id="Shape" fill="#AA5B3F" fill-rule="nonzero"></path>
                    <path d="M218.190931,293.620388 C218.613915,292.100652 219.073681,290.589856 219.570228,289.087999 C225.914992,269.396239 231.790796,257.837304 235.349381,251.890218 C236.781791,248.961233 238.514698,246.180319 240.521743,243.589776 C260.245685,211.608267 275.631739,208.054766 289.286775,214.940512 C302.941812,221.826258 294.307415,246.486215 294.307415,246.486215 C293.986254,247.445341 293.592064,248.379881 293.128116,249.282082 C286.72818,261.907068 266.231832,275.69197 266.231832,275.69197 C266.231832,275.69197 256.459516,285.749048 250.321646,298.374034 C250.321646,298.374034 242.176899,317.013153 227.177048,314.82071 C212.177198,312.628267 218.190931,293.627093 218.190931,293.620388 Z" id="Shape" fill="#EF5350" fill-rule="nonzero"></path>
                    <polygon id="Rectangle-path" fill="#AA5B3F" fill-rule="nonzero" transform="translate(230.500000, 363.000000) rotate(165.780000) translate(-230.500000, -363.000000) " points="220 348 241 348 241 378 220 378"></polygon>
                    <polygon id="Rectangle-path" fill="#FFFFFF" fill-rule="nonzero" transform="translate(236.500000, 383.500000) rotate(165.780000) translate(-236.500000, -383.500000) " points="226 375 247 375 247 392 226 392"></polygon>
                    <path d="M235.473135,392.186922 C235.473135,392.186922 235.038423,383.506176 227.055543,386.846511 C219.072663,390.186845 228.181841,402.269782 224.671218,404.970917 C221.160595,407.672052 203.752384,404.043046 204.002672,413.321753 C204.25296,422.600459 210.786803,422.325534 215.897954,421.775685 C221.009105,421.225836 252.611298,415.713597 255.634517,411.046751 C258.657737,406.379906 255.950671,404.104904 254.31721,398.585792 C252.68375,393.06668 251.629904,384.379062 244.523033,386.262296 C237.416162,388.145529 235.486308,392.186922 235.486308,392.186922" id="Shape" fill="#424242" fill-rule="nonzero"></path>
                    <path d="M218.687247,295.222386 C218.687247,295.222386 228.080212,279.916283 239.571028,285.05476 C251.061844,290.193238 249.972315,299.684388 249.972315,299.684388 C244.138932,313.876699 248.659465,350.932501 248.659465,350.932501 C248.659465,350.932501 239.631933,357.874912 231.00367,358.927206 C225.758736,359.564109 220.484271,359.922201 215.202106,360 C215.202106,360 210.857522,326.524733 218.687247,295.222386 Z" id="Shape" fill="#EF5350" fill-rule="nonzero"></path>
                    <path d="M270.618135,315.740769 C270.010035,314.271058 269.422205,312.794574 268.874915,311.304544 C261.652041,291.758064 259.091266,278.991218 258.179116,272.096444 C257.482708,268.895805 257.11145,265.632699 257.071023,262.357068 C252.652165,224.957322 262.402031,212.915172 277.212639,210.206027 C292.023247,207.496882 300.550157,232.400697 300.550157,232.400697 C300.888215,233.362739 301.159134,234.347178 301.360956,235.346893 C304.178485,249.278671 296.766425,272.597636 296.766425,272.597636 C296.766425,272.597636 295.374552,286.488777 298.415051,300.285097 C298.415051,300.285097 303.590656,320.075401 290.611104,327.33591 C277.631552,334.596418 270.624891,315.747542 270.618135,315.740769 Z" id="Shape" fill="#FC9D9D" fill-rule="nonzero"></path>
                    <polygon id="Rectangle-path" fill="#AA5B3F" fill-rule="nonzero" transform="translate(324.500000, 360.000000) rotate(128.080000) translate(-324.500000, -360.000000) " points="314 345 335 345 335 375 314 375"></polygon>
                    <polygon id="Rectangle-path" fill="#FFFFFF" fill-rule="nonzero" transform="translate(340.500000, 375.500000) rotate(128.080000) translate(-340.500000, -375.500000) " points="330 367 351 367 351 384 330 384"></polygon>
                    <path d="M347.140272,380.829441 C347.140272,380.829441 341.54334,374.317206 337.046775,381.95669 C332.550211,389.596174 347.289704,393.30387 346.053489,397.629516 C344.817273,401.955161 328.434021,410.090363 334.241517,417.193385 C340.049013,424.296408 345.218024,419.95039 349.062519,416.297019 C352.907013,412.643648 375.34908,388.4146 374.995876,382.859846 C374.642672,377.305093 371.056288,377.230396 366.369537,373.957301 C361.682785,370.684207 355.596801,364.545457 350.937219,370.494068 C346.277638,376.44268 347.140272,380.829441 347.140272,380.829441" id="Shape" fill="#424242" fill-rule="nonzero"></path>
                    <path d="M270.097868,317.620039 C270.097868,317.620039 268.274641,299.71739 280.36693,296.676673 C292.45922,293.635955 297.272005,301.828809 297.272005,301.828809 C301.213394,316.663409 327,343.209895 327,343.209895 C327,343.209895 324.057364,354.238474 317.930783,360.395072 C314.203772,364.140185 310.283637,367.68018 306.187052,371 C306.187052,371 282.726401,347.173077 270.097868,317.620039 Z" id="Shape" fill="#FC9D9D" fill-rule="nonzero"></path>
                    <path d="M175.499064,197.097887 C175.499064,197.097887 166.163246,199.495323 163.492958,196.473555 C160.82267,193.451787 167.603707,193.732737 166.788352,191.828524 C165.972997,189.92431 155.285049,190.867052 154.150346,187.364548 C153.015644,183.862045 159.477334,185.966044 159.477334,185.966044 C159.477334,185.966044 151.81979,184.367754 152.003244,181.795505 C152.186699,179.223256 159.755914,181.739315 159.755914,181.739315 C159.755914,181.739315 154.530846,180.297108 155.407352,178.449085 C156.283859,176.601061 162.704781,179.841345 162.704781,179.841345 C162.704781,179.841345 159.436566,178.405381 161.474954,176.263922 C163.513342,174.122462 181.824861,185.716311 181.824861,185.716311 C181.824861,185.716311 183.652616,196.236309 175.499064,197.097887 Z" id="Shape" fill="#AA5B3F" fill-rule="nonzero"></path>
                    <path d="M260.703333,111.329143 C260.703333,111.329143 262.530922,127.380812 268,132.656633 L259.51232,144 L249.073843,138.850294 C249.073843,138.850294 245.836203,123.436207 247.4516,112.225962 C249.066998,101.015717 260.703333,111.329143 260.703333,111.329143 Z" id="Shape" fill="#843E28" fill-rule="nonzero"></path>
                    <path d="M246.879694,135.278399 C246.879694,135.278399 252.491056,136.63873 255.621112,136.210226 C258.751168,135.781722 265.880741,132 265.880741,132 C265.880741,132 275.912973,142.556173 282.367043,161.355954 C288.821112,180.155735 303,246.757566 303,246.757566 C303,246.757566 280.480983,254.239389 260.19581,254.919555 C239.910637,255.599721 220,251.743181 220,251.743181 C220,251.743181 226.099597,153.13275 246.879694,135.278399 Z" id="Shape" fill="#FFCC80" fill-rule="nonzero"></path>
                    <path d="M259.94228,111.288921 C259.94228,111.288921 261.014862,121.217884 264,128 C264,128 260.646566,120.72946 247.43313,121.55978 L247.04545,121.55978 C246.921491,118.432282 247.051213,115.299068 247.43313,112.195994 C248.964467,101.059926 259.94228,111.288921 259.94228,111.288921 Z" id="Shape" fill="#632D1F" fill-rule="nonzero"></path>
                    <path d="M250.444075,15.0000247 C274.195088,15.0000247 293.436415,34.6105561 293.409691,59.4933163 L293.409691,70.8410971 L298.52735,70.8410971 C303.79863,70.9807172 308,75.338593 308,80.6666146 C308,85.9946362 303.79863,90.352512 298.52735,90.4921321 L290.703879,90.4921321 C284.430405,108.185489 267.941657,119.020223 247.671453,118.999972 C223.145442,118.999972 201.973301,102.366461 202.000025,76.6736269 L202.000025,65.082824 C202.000025,37.0610287 223.699966,14.9730223 250.444075,15.0000247 Z" id="Shape" fill="#AA5B3F" fill-rule="nonzero"></path>
                    <ellipse id="Oval" fill="#212121" fill-rule="nonzero" cx="221" cy="79" rx="3" ry="4"></ellipse>
                    <circle id="Oval" fill="#8E4D3C" fill-rule="nonzero" cx="266.5" cy="92.5" r="10.5"></circle>
                    <path d="M212.429164,85.000008 C208.34051,84.994329 204.814665,88.0110519 204,92.2120239 C205.352886,95.9153645 207.233856,99.3820428 209.578691,102.4937 C212.799012,103.676378 216.381643,102.746831 218.70428,100.125983 C221.026916,97.505135 221.648446,93.6907323 220.287425,90.4100327 C218.926404,87.1293331 215.841315,85.0054016 212.429164,85.000008 Z" id="Shape" fill="#8E4D3C" fill-rule="nonzero"></path>
                    <path d="M234.361606,83 C232.981187,83.0742847 231.930517,84.0357054 232.003592,85.1577123 L232.003592,86.084922 C231.971679,86.5691504 232.179054,87.0436961 232.579694,87.4032442 C232.980335,87.7627923 233.5411,87.9776016 234.137542,88 C234.668265,87.9734264 235.16366,87.7749948 235.512669,87.4491894 C235.861679,87.123384 236.035108,86.6974591 235.994078,86.2668977 L235.994078,84.4211438 C236.024083,83.6633221 235.294539,83.0282201 234.361606,83 Z" id="Shape" fill="#843E28" fill-rule="nonzero"></path>
                    <path d="M214.002501,60.1841692 C214.002501,58.9711934 216.08714,55.6233805 219.231074,55.0734981 C220.908423,54.7983026 222.610386,55.302116 223.984321,56.48055 C224.765212,57.0546918 226.84985,58.9065014 225.620796,59.97392 C224.880648,60.6127539 224.53434,59.3269997 222.123764,58.6396468 C219.713189,57.9522938 218.626732,58.8175499 216.691481,60.2084287 C214.756231,61.5993075 214.17905,60.7340515 214.17905,60.7340515 C214.051357,60.5936199 213.986056,60.3902322 214.002501,60.1841692 Z" id="Shape" fill="#212121" fill-rule="nonzero" opacity="0.9"></path>
                    <ellipse id="Oval" fill="#212121" fill-rule="nonzero" cx="253" cy="79" rx="3" ry="4"></ellipse>
                    <path d="M297,81 L302,81.01" id="Shape" stroke="#FFAB91" stroke-width="6" opacity="0.34" stroke-linecap="round"></path>
                    <path d="M212.808001,26.6808998 L212.895643,26.5829408 C219.772129,18.9160176 226.169957,16.4082675 226.169957,16.4082675 C232.237445,13.4433755 241.446542,10.6613404 254.484899,11.0335845 C281.316677,11.7976646 296.815737,34.772312 296.815737,34.772312 L291.746014,36.0784319 C302.391084,51.8367674 293.56626,68 293.56626,68 C278.013267,24.5323327 232.756552,28.6596713 232.756552,28.6596713 C232.756552,28.6596713 220.055278,29.2735476 213.879924,36.352717 C207.70457,43.4318864 201.286517,67.5885723 201.286517,67.5885723 C201.286517,67.5885723 198.124682,42.5371943 212.808001,26.6808998 Z" id="Shape" fill="#212121" fill-rule="nonzero"></path>
                    <path d="M259.992678,60.1416517 C259.992678,58.942413 257.915182,55.6245194 254.771781,55.0728697 C253.09571,54.8009902 251.394897,55.2959843 250.019338,56.4559916 C249.23179,57.0156363 247.154294,58.8544689 248.37635,59.901804 C249.116374,60.533403 249.462623,59.2702049 251.87279,58.5986313 C254.282958,57.9270577 255.36923,58.7745196 257.304154,60.1976162 C259.239077,61.6207127 259.816159,60.7172862 259.816159,60.7172862 C259.956408,60.574941 260.023339,60.3566748 259.992678,60.1416517 Z" id="Shape" fill="#212121" fill-rule="nonzero" opacity="0.9"></path>
                    <path d="M182.682987,186.552269 C182.682987,186.552269 209.913966,195.762393 228.715345,185.203644 C247.516724,174.644895 242.492683,144.356746 259.453037,147.18557 C276.413392,150.014394 263.377859,188.920587 234.420498,200.156938 C205.463137,211.393288 176,194.413768 176,194.413768 L182.682987,186.552269 Z" id="Shape" fill="#AA5B3F" fill-rule="nonzero"></path>
                    <circle id="Oval" fill="#212121" fill-rule="nonzero" cx="291.5" cy="59.5" r="10.5"></circle>
                    <circle id="Oval" fill="#212121" fill-rule="nonzero" cx="279.5" cy="44.5" r="10.5"></circle>
                    <circle id="Oval" fill="#212121" fill-rule="nonzero" cx="265.5" cy="34.5" r="10.5"></circle>
                    <circle id="Oval" fill="#212121" fill-rule="nonzero" cx="251.5" cy="24.5" r="10.5"></circle>
                    <path d="M202.18,69 C202.18,69 202.38,68.2626728 202.75,67 L202,67.1751152 C202.09,68.3640553 202.18,69 202.18,69 Z" id="Shape" fill="#212121" fill-rule="nonzero"></path>
                    <path d="M234.473043,25 C234.473043,25 219.787826,26.2729144 213.401739,33.6517334 C207.94087,39.955042 203.516522,62.5543771 202,68 C206.869565,66.6385943 210.918261,60.7981637 210.918261,55.6112079 C210.914821,53.4909189 210.299953,51.4146201 209.144348,49.6210226 C214.864599,48.0589384 218.431964,42.4956285 217.38087,36.7761596 L217.561739,36.7761596 C221.934436,36.7825724 225.93811,34.3788072 227.913043,30.5613424 C230.511431,32.96876 234.101103,34.0658216 237.63785,33.5333995 C241.174596,33.0009775 244.261278,30.8988573 246,27.8385309 C242.049289,27.3793838 238.175248,26.4253952 234.473043,25 Z" id="Shape" fill="#212121" fill-rule="nonzero"></path>
                    <circle id="Oval" fill="#212121" fill-rule="nonzero" cx="302" cy="24" r="16"></circle>
                    <path d="M229.024859,97.6152723 C229.169685,99.309909 232.448012,103.686425 236.924441,103.989594 C239.304067,104.111728 241.633219,103.155069 243.435014,101.315488 C244.488291,100.398208 247.22023,97.4986688 245.376994,96.1849367 C244.26447,95.4075804 243.908988,97.2499148 240.584581,98.5714205 C237.260174,99.8929262 235.634176,98.8434952 232.770578,97.1799527 C229.906979,95.5164103 229.176268,96.8301424 229.176268,96.8301424 C229.019141,97.0462944 228.962483,97.3400941 229.024859,97.6152723 Z" id="Shape" fill="#842D1C" fill-rule="nonzero" opacity="0.9"></path>
                    <path d="M254,80 L250,75" id="Shape" stroke="#212121" stroke-width="2" stroke-linecap="round"></path>
                    <path d="M222,80 L218,75" id="Shape" stroke="#212121" stroke-width="2" stroke-linecap="round"></path>
                    <g id="Group-3" transform="translate(93.000000, 24.000000)">
                        <mask id="mask-2" fill="white">
                            <use xlink:href="#path-1"></use>
                        </mask>
                        <g id="Clip-2"></g>
                        <path d="M25.7159287,54 C25.7159287,54 52.3650188,34.4972433 53.7163846,23.0637816 C55.0677503,11.6303198 51.6479676,0.196858122 42.2081066,0.196858122 C32.7682456,0.196858122 26.6851298,12.3047216 26.6851298,12.3047216 C26.6851298,12.3047216 21.7997259,-1.81850516 9.37740456,0.196858122 C-3.04885659,2.21614234 -3.20251042,23.7381833 9.37740456,36.5165275 C21.9573196,49.2948717 25.7159287,54 25.7159287,54" id="Fill-1" fill="#EF5350" mask="url(#mask-2)"></path>
                    </g>
                </g>
            </g>
        </g>
    </g>
</svg>