<svg xmlns="http://www.w3.org/2000/svg" viewBox="0 0 241.38 221.73"><defs><style>.cls-1{fill:#ffecb3;}.cls-2{fill:#ea916a;}.cls-3{fill:#80cbc4;}.cls-4{fill:#e0f2f1;}.cls-5{fill:#fff;}.cls-6{opacity:0.9;}.cls-7{fill:#ffa1a1;}.cls-8{fill:#d87755;}</style></defs><title>Asset 44</title><g id="Layer_2" data-name="Layer 2"><g id="Layer_1-2" data-name="Layer 1"><path class="cls-1" d="M224.48,48.15C201.23,8.53,151.42-8.13,105.88,3.77,43.73,20,6.84,108.58,42.2,168.5,76.69,227,169,239.71,214.4,194.54,248.69,160.42,248.3,88.76,224.48,48.15Z"/><path class="cls-2" d="M240.9,104.79c-38.61-.25-74-3.37-91.57-12.38L141,146.69s45.52,2.41,96.54,3.6A148.64,148.64,0,0,0,240.9,104.79Z"/><path class="cls-2" d="M157.78,108.77S131.45,53.43,112.65,45.9s5.4,27-1.59,32.12S28.83,40,21.3,51.28s44.6,27.4,44.6,33.85S4.34,58.71.48,67.6C-6.27,83.16,60.53,98.14,60.53,104S12.17,84.59,8.94,99.1,56.87,112,57.84,121.66c.65,6.47-34.39-6.44-37.07-3.22s-9.14,15.05,44.06,22,90.8,6.45,90.8,6.45Z"/><rect class="cls-3" x="137.47" y="112.04" width="74" height="23.46" rx="1.18" ry="1.18" transform="translate(32.38 283.67) rotate(-83.73)"/><circle class="cls-4" cx="174.47" cy="123.77" r="28.48"/><circle class="cls-5" cx="174.47" cy="123.77" r="22.49"/><g class="cls-6"><path class="cls-7" d="M181.21,134.44l-10.08-7.53a2.28,2.28,0,0,1-.69-2.81l7.23-15,4.09,2-6.42,13.33,8.59,6.41Z"/></g><path class="cls-8" d="M83.16,82s-9.71,11.56-11.23,19.29,1.52,25.63,1.52,25.63,1.21-19.7,2.73-25.63S83.16,82,83.16,82Z"/></g></g></svg>