<svg xmlns="http://www.w3.org/2000/svg" viewBox="0 0 376.66 123.56"><defs><style>.cls-1{fill:#fff;}.cls-2{fill:#424242;}.cls-3{fill:#ffab91;}.cls-4{fill:#ffc1b0;}.cls-5{fill:#212121;}.cls-6{fill:#e57373;}.cls-11,.cls-21,.cls-30,.cls-6,.cls-8{opacity:0.9;}.cls-7{fill:none;stroke:#212121;stroke-linecap:round;stroke-miterlimit:10;}.cls-23,.cls-8{fill:#f99;}.cls-9{fill:#843e28;}.cls-10{fill:#aa5b3f;}.cls-11{fill:#842d1c;}.cls-12{fill:#8e4d3c;}.cls-13{fill:#d87a59;}.cls-14{fill:#ea916a;}.cls-15{fill:#b53535;}.cls-16{fill:#bc6246;}.cls-17{fill:#fcb59f;}.cls-18{fill:#ffcdbb;}.cls-19{fill:#2f8c7e;}.cls-20{fill:#edaf5d;}.cls-21{fill:#ffa1a1;}.cls-22{fill:#ffe6de;}.cls-24{fill:#ef5350;}.cls-25{fill:#ffcc80;}.cls-26{fill:#f9b75f;}.cls-27{fill:#80cbc4;}.cls-28{fill:#f97a7a;}.cls-29{fill:#ffecb3;}.cls-30{fill:#ff7043;}</style></defs><title>Asset 49</title><g id="Layer_2" data-name="Layer 2"><g id="Layer_1-2" data-name="Layer 1"><path class="cls-1" d="M372.47,64.29c-6.23-13.55-17.58-32.66-38.17-45.19-41-24.91-74.49-10.41-150.36-7.79C90.1,14.56,45.28-10.88,18,16-.77,34.47-6.06,70.08,7.87,90c17.91,25.6,57.86,11.7,142.57,11.69,131,0,202.57,33.2,222,.77C376.5,95.75,379.41,84.37,372.47,64.29Z"/><path class="cls-2" d="M323,33.52l.14,0c1.14-.15,17.31-2,28.26,10.37,9.57,10.82,14.72,42.58,16.11,52.38a2.55,2.55,0,0,1-2.53,2.91H286.2a2.55,2.55,0,0,1-2.55-2.43C283.08,85.19,283.05,36.27,323,33.52Z"/><rect class="cls-3" x="342.26" y="75.15" width="20.26" height="11.64" rx="5.4" ry="5.4"/><rect class="cls-3" x="285.41" y="75.15" width="20.26" height="11.64" rx="5.4" ry="5.4"/><path class="cls-4" d="M294,89c4.4,12.28,16,19.81,30.2,19.79,17.21,0,32.06-11.55,32.05-29.39v-8c0-19.46-10.68-34.8-29.45-34.78h-4.56c-16.67,0-30.17,13.62-30.15,30.9v7.88A50.81,50.81,0,0,0,294,89Z"/><ellipse class="cls-5" cx="338.62" cy="80.68" rx="2.27" ry="3.07"/><path class="cls-6" d="M323.87,82.59A1.37,1.37,0,0,1,325.14,84v.61A1.21,1.21,0,0,1,324,85.92a1.08,1.08,0,0,1-1-1.13V83.57A.93.93,0,0,1,323.87,82.59Z"/><ellipse class="cls-5" cx="310.25" cy="80.71" rx="2.27" ry="3.07"/><path class="cls-2" d="M356.05,67.22s-15.93,2.48-20.73-3.93-4.54-10.82-6.78-10.82-.05,13.07-4.4,13.23.24-12.64-3.07-13.23c-5.13-.91,0,13.85-8.8,15.22S292,67.22,292,67.22s-3-31.14,32-32.26S356.05,67.22,356.05,67.22Z"/><path class="cls-5" d="M344.38,68.79c0-.86-1.77-3.25-4.44-3.65a5.59,5.59,0,0,0-4,1c-.67.41-2.44,1.73-1.39,2.49.62.45.92-.46,3-1s3,.12,4.6,1.12,2.13.37,2.13.37h0C344.33,69.12,344.38,69,344.38,68.79Z"/><path class="cls-5" d="M304.47,70.09c0-.86,1.76-3.25,4.43-3.65a5.58,5.58,0,0,1,4,1c.66.4,2.43,1.72,1.39,2.48-.63.46-.92-.45-3-.94s-3,.13-4.59,1.13-2.13.37-2.13.37h0C304.52,70.42,304.47,70.3,304.47,70.09Z"/><line class="cls-7" x1="338.59" y1="79.38" x2="336.91" y2="77.22"/><line class="cls-7" x1="310.39" y1="79.38" x2="308.7" y2="77.22"/><circle class="cls-8" cx="345.43" cy="89.46" r="6.13"/><circle class="cls-8" cx="303.41" cy="89.46" r="6.13"/><path class="cls-5" d="M62.45,86s28.44-3.91,26.64-36.37S59.78,13.82,51.54,14c0,0-36.18.49-37.48,34S37,87.24,37,87.24Z"/><rect class="cls-9" x="69.35" y="58.37" width="20.26" height="11.64" rx="5.4" ry="5.4"/><rect class="cls-9" x="12.5" y="58.37" width="20.26" height="11.64" rx="5.4" ry="5.4"/><path class="cls-10" d="M21.07,72.23c4.4,12.29,16,19.81,30.2,19.8,17.21,0,32.07-11.55,32-29.4V54.58c0-19.46-10.68-34.8-29.44-34.78H49.3c-16.67,0-30.17,13.62-30.15,30.9v7.88A50.81,50.81,0,0,0,21.07,72.23Z"/><ellipse class="cls-5" cx="65.72" cy="63.91" rx="2.27" ry="3.07"/><path class="cls-11" d="M58.72,75.85a7.2,7.2,0,0,1-13.33,0Z"/><path class="cls-9" d="M51,65.82a1.36,1.36,0,0,1,1.27,1.44v.61a1.2,1.2,0,0,1-1.12,1.27,1.07,1.07,0,0,1-1-1.13V66.79A.91.91,0,0,1,51,65.82Z"/><ellipse class="cls-5" cx="37.35" cy="63.94" rx="2.27" ry="3.07"/><path class="cls-5" d="M71.47,52c0-.86-1.77-3.25-4.44-3.64a5.6,5.6,0,0,0-4,1c-.67.41-2.44,1.73-1.39,2.49.63.46.92-.46,3-1s3,.13,4.6,1.12,2.13.37,2.13.37h0C71.42,52.34,71.47,52.22,71.47,52Z"/><path class="cls-5" d="M31.56,53.32c0-.87,1.76-3.26,4.43-3.66a5.68,5.68,0,0,1,4,1c.67.41,2.43,1.72,1.39,2.49-.63.45-.92-.46-3-.95s-3,.13-4.59,1.13-2.13.38-2.13.38h0C31.61,53.65,31.56,53.53,31.56,53.32Z"/><line class="cls-7" x1="65.68" y1="62.61" x2="64" y2="60.44"/><line class="cls-7" x1="37.48" y1="62.61" x2="35.79" y2="60.44"/><circle class="cls-12" cx="72.52" cy="72.68" r="6.13"/><circle class="cls-12" cx="30.5" cy="72.68" r="6.13"/><circle class="cls-5" cx="81.7" cy="48.03" r="6.19"/><circle class="cls-5" cx="75.52" cy="41.84" r="6.19"/><circle class="cls-5" cx="69.33" cy="36.29" r="6.19"/><circle class="cls-5" cx="62.77" cy="32.04" r="6.19"/><circle class="cls-5" cx="55.95" cy="27.57" r="6.19"/><circle class="cls-5" cx="20.77" cy="48.03" r="6.19"/><circle class="cls-5" cx="26.95" cy="41.84" r="6.19"/><circle class="cls-5" cx="33.14" cy="36.29" r="6.19"/><circle class="cls-5" cx="39.7" cy="32.04" r="6.19"/><circle class="cls-5" cx="46.52" cy="27.57" r="6.19"/><polygon class="cls-5" points="83.32 41.84 68.71 33.76 49.76 27.57 33.14 36.29 19.15 48.93 19.15 36.29 29.5 21.39 42.76 18.17 54.55 16.54 66.39 20.63 79.48 29.74 83.32 41.84"/><circle class="cls-5" cx="72.48" cy="12.71" r="12.71"/><rect class="cls-13" x="252.56" y="62.53" width="20.26" height="11.64" rx="5.4" ry="5.4"/><rect class="cls-13" x="195.72" y="62.53" width="20.26" height="11.64" rx="5.4" ry="5.4"/><path class="cls-14" d="M204.29,76.39c4.4,12.29,16,19.81,30.19,19.8,17.22,0,32.07-11.55,32-29.4V58.74c0-19.46-10.68-34.8-29.45-34.78h-4.56c-16.67,0-30.17,13.62-30.15,30.9v7.88A51.09,51.09,0,0,0,204.29,76.39Z"/><ellipse class="cls-5" cx="248.93" cy="68.07" rx="2.27" ry="3.07"/><path class="cls-15" d="M241.93,80a7.2,7.2,0,0,1-13.33,0Z"/><path class="cls-13" d="M234.17,70a1.36,1.36,0,0,1,1.28,1.43V72a1.21,1.21,0,0,1-1.13,1.27,1.07,1.07,0,0,1-1-1.13V71A.91.91,0,0,1,234.17,70Z"/><ellipse class="cls-5" cx="220.56" cy="68.1" rx="2.27" ry="3.07"/><path class="cls-5" d="M254.69,56.17c0-.86-1.77-3.25-4.44-3.64a5.57,5.57,0,0,0-4,1c-.67.41-2.43,1.73-1.39,2.49.63.46.92-.46,3-1s3,.13,4.6,1.12,2.13.37,2.13.37h0A.46.46,0,0,0,254.69,56.17Z"/><path class="cls-5" d="M214.77,57.48c0-.87,1.77-3.26,4.43-3.66a5.61,5.61,0,0,1,4,1c.67.41,2.44,1.72,1.4,2.49-.63.45-.93-.46-3-1s-3,.13-4.6,1.13-2.13.38-2.13.38h0A.46.46,0,0,1,214.77,57.48Z"/><circle class="cls-16" cx="255.74" cy="76.84" r="6.13"/><circle class="cls-16" cx="213.72" cy="76.84" r="6.13"/><path class="cls-9" d="M267,62.53S253.55,51.9,252.56,38.91s18.5-9.41,17.16,4A184.84,184.84,0,0,1,267,62.53Z"/><path class="cls-9" d="M202.24,62.53s13.45-10.63,14.44-23.62-18.5-9.41-17.16,4A188.41,188.41,0,0,0,202.24,62.53Z"/><path class="cls-9" d="M261.87,33.23S263.51,16.36,239.26,15,206.56,26,206.56,33.23,260.05,42.2,261.87,33.23Z"/><rect class="cls-17" x="161.71" y="59.8" width="20.26" height="11.64" rx="5.4" ry="5.4"/><rect class="cls-17" x="104.87" y="59.8" width="20.26" height="11.64" rx="5.4" ry="5.4"/><path class="cls-18" d="M113.43,73.66c4.41,12.29,16,19.81,30.2,19.8,17.21,0,32.07-11.55,32.05-29.4V56c0-19.45-10.68-34.8-29.44-34.78h-4.57c-16.66,0-30.17,13.62-30.15,30.9V60A50.77,50.77,0,0,0,113.43,73.66Z"/><ellipse class="cls-19" cx="158.08" cy="65.34" rx="2.27" ry="3.07"/><path class="cls-13" d="M143.32,67.25a1.36,1.36,0,0,1,1.27,1.44v.61a1.21,1.21,0,0,1-1.12,1.28,1.08,1.08,0,0,1-1-1.14V68.22A.92.92,0,0,1,143.32,67.25Z"/><ellipse class="cls-19" cx="129.71" cy="65.37" rx="2.27" ry="3.07"/><path class="cls-20" d="M163.83,53.44c0-.86-1.77-3.25-4.44-3.64a5.55,5.55,0,0,0-4,1c-.67.4-2.43,1.72-1.39,2.48.63.46.92-.45,3-.95s3,.13,4.6,1.12,2.13.37,2.13.37h0C163.78,53.77,163.83,53.65,163.83,53.44Z"/><path class="cls-20" d="M123.92,54.75c0-.86,1.76-3.26,4.43-3.65a5.63,5.63,0,0,1,4,1c.67.41,2.43,1.73,1.39,2.49-.63.46-.92-.46-3-.94s-3,.13-4.59,1.12-2.13.38-2.13.38h0C124,55.08,123.92,55,123.92,54.75Z"/><circle class="cls-21" cx="164.88" cy="74.11" r="6.13"/><circle class="cls-21" cx="122.87" cy="74.11" r="6.13"/><circle class="cls-22" cx="128.09" cy="34.34" r="5.21"/><circle class="cls-22" cx="121.16" cy="40.47" r="2.46"/><path class="cls-23" d="M355.9,123.56s6.77-5,7.11-7.89-.53-5.84-2.92-5.84-3.94,3.09-3.94,3.09-1.24-3.6-4.4-3.09-3.19,6,0,9.27S355.9,123.56,355.9,123.56Z"/><path class="cls-24" d="M14.69,25.55s6.76-5,7.11-7.89-.53-5.83-2.93-5.83-3.93,3.08-3.93,3.08-1.25-3.6-4.4-3.08-3.19,6,0,9.26S14.69,25.55,14.69,25.55Z"/><rect class="cls-25" x="288.97" y="16.05" width="53.94" height="6.88" transform="translate(8.65 95.45) rotate(-17.41)"/><path class="cls-26" d="M341.9,12.15,290.44,28.29a.75.75,0,0,1-1-.5.77.77,0,0,1,.5-1l51.47-16.14a.76.76,0,0,1,.95.5A.75.75,0,0,1,341.9,12.15Z"/><path class="cls-2" d="M341.52,7H345a3.44,3.44,0,0,1,3.44,3.44v0A3.44,3.44,0,0,1,345,13.83h-3.44a0,0,0,0,1,0,0V7a0,0,0,0,1,0,0Z" transform="translate(12.7 103.71) rotate(-17.41)"/><rect class="cls-8" x="343.17" y="7.32" width="1.19" height="6.88" transform="translate(12.53 103.37) rotate(-17.41)"/><polygon class="cls-2" points="289.18 24.28 285.41 29.07 291.24 30.85 289.18 24.28"/><path class="cls-27" d="M95.82,98.59H80.06s-.78,11.56,1.41,14,17,0,17,0S95.22,109.88,95.82,98.59Z"/><path class="cls-19" d="M95.75,101.94c0-1,0-2.13.06-3.35H80.05s-.09,1.41-.12,3.35Z"/><path class="cls-23" d="M120.07,97.67H104.32s-.78,11.57,1.41,14,17,0,17,0S119.47,109,120.07,97.67Z"/><path class="cls-28" d="M120,101c0-1,0-2.13.06-3.35H104.31s-.1,1.41-.13,3.35Z"/><path class="cls-29" d="M104.08,78.76H88.32s-.78,11.56,1.42,14,17,0,17,0S103.48,90.05,104.08,78.76Z"/><path class="cls-25" d="M104,82.11c0-1,0-2.13.06-3.35H88.31s-.09,1.41-.12,3.35Z"/><path class="cls-14" d="M137.39,76.33c.11,1,2.48,3.72,5.72,3.9a6.73,6.73,0,0,0,4.71-1.64c.75-.56,2.73-2.33,1.4-3.13-.81-.48-1.06.65-3.46,1.45s-3.58.18-5.65-.84-2.59-.22-2.59-.22h0A.53.53,0,0,0,137.39,76.33Z"/><path class="cls-30" d="M317.91,92.28c.11,1,2.47,3.71,5.72,3.9a6.74,6.74,0,0,0,4.7-1.64c.76-.56,2.74-2.34,1.4-3.14-.8-.48-1.05.65-3.46,1.46s-3.57.17-5.64-.85-2.6-.21-2.6-.21h0A.56.56,0,0,0,317.91,92.28Z"/></g></g></svg>