<?xml version="1.0" standalone="no"?>
<!DOCTYPE svg PUBLIC "-//W3C//DTD SVG 20010904//EN"
 "http://www.w3.org/TR/2001/REC-SVG-20010904/DTD/svg10.dtd">
<svg version="1.0" xmlns="http://www.w3.org/2000/svg"
 width="284.000000pt" height="284.000000pt" viewBox="0 0 284.000000 284.000000"
 preserveAspectRatio="xMidYMid meet">
<metadata>
Created by potrace 1.11, written by Peter Selinger 2001-2013
</metadata>
<g transform="translate(0.000000,284.000000) scale(0.100000,-0.100000)"
fill="#000000" stroke="none">
<path d="M679 2450 c-1 -19 -1 -309 0 -332 1 -17 43 -18 741 -18 l740 0 0 183
0 182 -740 0 c-651 0 -740 -2 -741 -15z"/>
<path d="M682 1596 c-9 -16 -8 -348 2 -354 14 -8 1236 -8 1249 0 8 5 12 61 13
183 0 152 -2 175 -15 176 -123 6 -1244 2 -1249 -5z"/>
<path d="M679 728 c-4 -60 0 -340 6 -346 3 -4 337 -7 741 -7 l734 0 0 182 0
183 -740 0 c-585 0 -740 -3 -741 -12z"/>
</g>
</svg>
