<?xml version="1.0" standalone="no"?>
<!DOCTYPE svg PUBLIC "-//W3C//DTD SVG 20010904//EN"
 "http://www.w3.org/TR/2001/REC-SVG-20010904/DTD/svg10.dtd">
<svg version="1.0" xmlns="http://www.w3.org/2000/svg"
 width="284.000000pt" height="284.000000pt" viewBox="0 0 284.000000 284.000000"
 preserveAspectRatio="xMidYMid meet">
<metadata>
Created by potrace 1.11, written by Peter Selinger 2001-2013
</metadata>
<g transform="translate(0.000000,284.000000) scale(0.100000,-0.100000)"
fill="#000000" stroke="none">
<path d="M440 2560 c0 -222 1 -240 18 -241 9 0 449 -1 978 -2 l961 -2 0 243
-1 242 -978 0 -978 0 0 -240z"/>
<path d="M913 1662 l-473 -2 0 -240 0 -240 768 -2 c422 -2 799 -1 837 2 l70 5
0 238 0 237 -120 0 c-66 0 -230 1 -365 3 -135 1 -458 1 -717 -1z"/>
<path d="M440 283 l0 -243 978 0 979 0 0 240 c0 236 -1 240 -21 241 -12 0
-452 1 -978 2 l-958 2 0 -242z"/>
</g>
</svg>
