<?xml version="1.0" encoding="UTF-8"?>
<svg width="596px" height="392px" viewBox="0 0 596 392" version="1.1" xmlns="http://www.w3.org/2000/svg" xmlns:xlink="http://www.w3.org/1999/xlink">
    <!-- Generator: Sketch 52.2 (67145) - http://www.bohemiancoding.com/sketch -->
    <title>Asset 52</title>
    <desc>Created with Sketch.</desc>
    <g id="Page-1" stroke="none" stroke-width="1" fill="none" fill-rule="evenodd">
        <g id="companies" transform="translate(-714.000000, -170.000000)" fill-rule="nonzero">
            <g id="header" transform="translate(130.000000, 170.000000)">
                <g id="Asset-52" transform="translate(584.000000, 0.000000)">
                    <path d="M583.660267,202.242523 C607.313464,135.370471 596.241515,65.0084627 556.628042,28.3864448 C507.068963,-17.4895845 430.128492,3.2925382 410.113383,14.8769392 C360.858416,43.5058331 359.551858,57.9835198 314.520677,74.3300216 C225.95635,106.516419 129.102141,21.0913118 55.1915322,51.0373824 C6.21815134,70.9301293 0.158427576,129.268677 0.000739597542,180.008129 C-0.39348035,304.149227 156.877752,392.782841 303.336094,391.994787 C424.778365,391.364343 532.377883,341.221562 583.660267,202.242523 Z" id="Shape" fill="#FFECB3"></path>
                    <path d="M196.99934,140.449611 C197.168091,92.7931879 164.947828,77.307936 133.38007,72.9316692 C89.4034603,66.8273381 40.7805627,90.7845936 45.2918496,142.895832 C49.4543836,191.05721 91.0122234,200.729882 128.54253,197.408407 C157.264015,194.90608 196.841839,185.749584 196.99934,140.449611 Z" id="Shape" fill="#F97A7A"></path>
                    <polygon id="Shape" fill="#F97A7A" points="166 187 197 187 181.50563 164"></polygon>
                    <path d="M250.04,312 L439.96,312 C439.982091,312 440,312.017909 440,312.04 L440,335.96 C440,335.982091 439.982091,336 439.96,336 L250.04,336 C250.017909,336 250,335.982091 250,335.96 L250,312.04 C250,312.017909 250.017909,312 250.04,312 Z" id="Rectangle-path" fill="#FFCC80" transform="translate(345.000000, 324.000000) rotate(0.100000) translate(-345.000000, -324.000000) "></path>
                    <path d="M440.302632,327.999979 L250.866004,327.668619 C249.423178,327.704598 248.188958,326.584436 248.010402,325.076912 C247.944192,324.286789 248.196211,323.503709 248.705002,322.918632 C249.213793,322.333554 249.932595,322.000251 250.686124,322 L440.122751,322.343194 C441.566032,322.300373 442.805356,323.41564 442.989596,324.923067 C443.055984,325.715245 442.802482,326.500244 442.291204,327.085721 C441.779927,327.671199 441.058116,328.003055 440.302632,327.999979 Z" id="Shape" fill="#F9B75F"></path>
                    <path d="M440,312 L451.977654,312 C458.617412,312 464,317.372583 464,324 C464,330.627417 458.617412,336 451.977654,336 L440,336 L440,312.04461 L440,312 Z" id="Shape" fill="#424242" transform="translate(452.000000, 324.000000) rotate(0.100000) translate(-452.000000, -324.000000) "></path>
                    <path d="M446.04,312 L449.96,312 C449.982091,312 450,312.017909 450,312.04 L450,335.96 C450,335.982091 449.982091,336 449.96,336 L446.04,336 C446.017909,336 446,335.982091 446,335.96 L446,312.04 C446,312.017909 446.017909,312 446.04,312 Z" id="Rectangle-path" fill="#FF9999" opacity="0.9" transform="translate(448.000000, 324.000000) rotate(0.100000) translate(-448.000000, -324.000000) "></path>
                    <path d="M251,312 L233,323.927205 L250.930858,336 C250.930858,336 251,336 251,336 L251,312.067196 L251,312 Z" id="Shape" fill="#424242"></path>
                    <path d="M133.18,260 L213.82,260 C214.471696,260 215,260.528304 215,261.18 L215,284.82 C215,285.471696 214.471696,286 213.82,286 L133.18,286 C132.528304,286 132,285.471696 132,284.82 L132,261.18 C132,260.528304 132.528304,260 133.18,260 Z" id="Rectangle-path" fill="#80CBC4" transform="translate(173.500000, 273.000000) rotate(-99.630000) translate(-173.500000, -273.000000) "></path>
                    <circle id="Oval" fill="#FCA2A2" cx="174" cy="273" r="32"></circle>
                    <circle id="Oval" fill="#FFFFFF" cx="173.5" cy="273.5" r="25.5"></circle>
                    <path d="M185.164785,282 L171.675954,277.024349 C170.516532,276.588348 169.831873,275.424711 170.03573,274.236651 L173.304707,256 L178.431839,256.85519 L175.529906,273.04827 L187,277.290901 L185.164785,282 Z" id="Shape" fill="#80CBC4"></path>
                    <circle id="Oval" fill="#FCA2A2" style="mix-blend-mode: multiply;" cx="446" cy="85" r="30"></circle>
                    <circle id="Oval" fill="#80CBC4" style="mix-blend-mode: multiply;" cx="424" cy="115" r="30"></circle>
                    <circle id="Oval" fill="#FFECB3" style="mix-blend-mode: multiply;" cx="471" cy="115" r="30"></circle>
                    <path d="M502,241 C502,241 496.976625,246.916251 496.212701,250.871884 C495.448778,254.827517 496.988199,264 496.988199,264 C496.988199,264 497.624802,253.921735 498.4003,250.871884 C499.175798,247.822034 502,241 502,241 Z" id="Shape" fill="#D87755"></path>
                    <path d="M437.26,178 L500.74,178 C505.301872,178 509,181.698128 509,186.26 L509,272.74 C509,277.301872 505.301872,281 500.74,281 L437.26,281 C432.698128,281 429,277.301872 429,272.74 L429,186.26 C429,181.698128 432.698128,178 437.26,178 Z" id="Rectangle-path" fill="#424242"></path>
                    <path d="M439.07,188 L498.93,188 C500.625514,188 502,189.374486 502,191.07 L502,265.93 C502,267.625514 500.625514,269 498.93,269 L439.07,269 C437.374486,269 436,267.625514 436,265.93 L436,191.07 C436,189.374486 437.374486,188 439.07,188 Z" id="Rectangle-path" fill="#FFFFFF"></path>
                    <polygon id="Rectangle-path" fill="#FCA2A2" points="443 211 467 211 467 235 443 235"></polygon>
                    <polygon id="Rectangle-path" fill="#80CBC4" points="471 211 495 211 495 235 471 235"></polygon>
                    <polygon id="Rectangle-path" fill="#FFECB3" points="443 238 467 238 467 262 443 262"></polygon>
                    <polygon id="Rectangle-path" fill="#FFCC80" points="471 238 495 238 495 262 471 262"></polygon>
                    <path d="M444.21,203 L481.79,203 C482.458265,203 483,203.541735 483,204.21 L483,204.79 C483,205.458265 482.458265,206 481.79,206 L444.21,206 C443.541735,206 443,205.458265 443,204.79 L443,204.21 C443,203.541735 443.541735,203 444.21,203 Z" id="Rectangle-path" fill="#C1C1C1"></path>
                    <path d="M444.22,196 L463.78,196 C464.453787,196 465,196.546213 465,197.22 L465,197.78 C465,198.453787 464.453787,199 463.78,199 L444.22,199 C443.546213,199 443,198.453787 443,197.78 L443,197.22 C443,196.546213 443.546213,196 444.22,196 Z" id="Rectangle-path" fill="#C1C1C1"></path>
                    <circle id="Oval" fill="#5B5B5B" cx="468.5" cy="274.5" r="2.5"></circle>
                    <path d="M360.6,218 L382.4,218 C388.806503,218 394,223.193497 394,229.6 L394,232.4 C394,238.806503 388.806503,244 382.4,244 L360.6,244 C354.193497,244 349,238.806503 349,232.4 L349,229.6 C349,223.193497 354.193497,218 360.6,218 Z" id="Rectangle-path" fill="#D87A59"></path>
                    <path d="M232.6,218 L254.4,218 C260.806503,218 266,223.193497 266,229.6 L266,232.4 C266,238.806503 260.806503,244 254.4,244 L232.6,244 C226.193497,244 221,238.806503 221,232.4 L221,229.6 C221,223.193497 226.193497,218 232.6,218 Z" id="Rectangle-path" fill="#D87A59"></path>
                    <path d="M240.289628,248.580817 C250.174847,276.141629 276.148879,293.022485 308.067554,292.999978 C346.696468,292.999978 380.033751,267.115998 379.999974,227.040844 L379.999974,209.034597 C379.999974,165.380703 356.041266,130.966263 313.922126,131.000025 L303.676625,131.000025 C266.26366,131.000025 235.966252,161.565629 236.000028,200.324075 L236.000028,218.003959 C236.034247,228.343657 237.47738,238.630508 240.289628,248.580817 Z" id="Shape" fill="#EA916A"></path>
                    <ellipse id="Oval" fill="#212121" cx="340" cy="230" rx="5" ry="7"></ellipse>
                    <path d="M325,257 C322.098231,262.950769 316.475348,266.988791 310.005645,266.999977 C303.535943,267.011162 297.901769,262.973141 295,257.033557 L325,257 Z" id="Shape" fill="#B53535"></path>
                    <path d="M307.012469,234 C308.758987,234.10187 310.089088,235.448356 309.995333,237.019608 L309.995333,238.307692 C310.08257,239.704033 308.904934,240.903956 307.353032,241 C305.97341,240.92079 304.923991,239.854655 305.00432,238.613876 L305.00432,236.037707 C304.969005,235.527847 305.160961,235.026329 305.537773,234.643971 C305.914585,234.261612 306.445235,234.029888 307.012469,234 Z" id="Shape" fill="#D87A59"></path>
                    <ellipse id="Oval" fill="#212121" cx="277" cy="230" rx="5" ry="7"></ellipse>
                    <path d="M352.985319,203.594664 C352.985319,201.597722 348.979017,196.027307 342.95254,195.116421 C339.747198,194.672474 336.498311,195.508221 333.873103,197.452025 C332.363647,198.397945 328.368694,201.480942 330.729348,203.291035 C332.14801,204.353735 332.817619,202.228335 337.436782,201.083889 C342.055946,199.939443 344.155566,201.37584 347.844087,203.688088 C351.532609,206.000336 352.656189,204.552261 352.656189,204.552261 C352.920332,204.313716 353.044983,203.951043 352.985319,203.594664 Z" id="Shape" fill="#212121"></path>
                    <path d="M264.012945,206.633903 C264.012945,204.633161 267.997878,199.052146 274.03772,198.116127 C277.244068,197.672544 280.49361,198.509771 283.120189,200.456175 C284.63015,201.403895 288.626436,204.481058 286.276347,206.247795 C284.857211,207.324217 284.187379,205.194773 279.55532,204.05985 C274.923261,202.924926 272.834293,204.364056 269.155893,206.680704 C265.477493,208.997352 264.330831,207.558222 264.330831,207.558222 C264.078351,207.326491 263.958422,206.977772 264.012945,206.633903 Z" id="Shape" fill="#212121"></path>
                    <circle id="Oval" fill="#BC6246" cx="356" cy="250" r="14"></circle>
                    <circle id="Oval" fill="#BC6246" cx="262" cy="250" r="14"></circle>
                    <path d="M380.70582,218 C380.70582,218 350.315288,194.221726 348.08219,165.133196 C345.849092,136.044665 389.887592,144.083024 386.849672,174.114602 C383.811752,204.14618 380.70582,218 380.70582,218 Z" id="Shape" fill="#843E28"></path>
                    <path d="M235.282685,218 C235.282685,218 265.67262,194.221726 267.917009,165.133196 C270.161398,136.044665 226.112429,144.083024 229.150289,174.114602 C232.188149,204.14618 235.282685,218 235.282685,218 Z" id="Shape" fill="#843E28"></path>
                    <path d="M368.94737,152.329339 C368.94737,152.329339 372.634874,114.402302 318.27791,111.245474 C263.920945,108.088646 245,136.128045 245,152.329339 C245,168.530633 364.866381,172.476668 368.94737,152.329339 Z" id="Shape" fill="#843E28"></path>
                    <circle id="Oval" fill="#FFFFFF" cx="95" cy="138" r="5"></circle>
                    <circle id="Oval" fill="#FFFFFF" cx="121" cy="138" r="5"></circle>
                    <circle id="Oval" fill="#FFFFFF" cx="148" cy="138" r="5"></circle>
                    <path d="M526.018408,310 L490.307409,311.110462 C490.307409,311.110462 488.533019,337.206319 493.510239,342.780839 C498.48746,348.355358 532,341.670377 532,341.670377 C532,341.670377 524.656926,335.485103 526.018408,310 Z" id="Shape" fill="#80CBC4"></path>
                    <path d="M525.854929,317.847631 C525.854929,315.439181 525.854929,312.857875 526,310 L490.290143,311.152369 C490.290143,311.152369 490.066956,314.459667 490,319 L525.854929,317.847631 Z" id="Shape" fill="#2F8C7E"></path>
                    <path d="M106.017926,230 L70.3040527,230 C70.3040527,230 68.5406802,256.747001 73.5071408,262.460616 C78.4736013,268.17423 112,262.460616 112,262.460616 C112,262.460616 104.634014,256.121007 106.017926,230 Z" id="Shape" fill="#FF9999"></path>
                    <path d="M105.865922,238 C105.865922,235.548387 105.865922,232.920821 106,230 L70.2458101,230 C70.2458101,230 70,233.390029 70,238 L105.865922,238 Z" id="Shape" fill="#F97A7A"></path>
                    <path d="M573.017926,143 L537.304053,143 C537.304053,143 535.54068,169.747001 540.507141,175.460616 C545.473601,181.17423 579,175.460616 579,175.460616 C579,175.460616 571.667495,169.109626 573.017926,143 Z" id="Shape" fill="#FF9999"></path>
                    <path d="M572.866047,151 C572.866047,148.544787 572.866047,145.913363 573,143 L537.27907,143 C537.27907,143 537.066977,146.371512 537,151 L572.866047,151 Z" id="Shape" fill="#F97A7A"></path>
                    <path d="M251.018408,68 L215.307409,68 C215.307409,68 213.533019,94.747001 218.510239,100.460616 C223.48746,106.17423 257,100.460616 257,100.460616 C257,100.460616 249.656926,94.1210074 251.018408,68 Z" id="Shape" fill="#FFCC80"></path>
                    <path d="M250.866088,76 C250.866088,73.5447871 250.866088,70.9133627 251,68 L215.290143,68 C215.290143,68 215.066956,71.3715125 215,76 L250.866088,76 Z" id="Shape" fill="#FFBA5F"></path>
                </g>
            </g>
        </g>
    </g>
</svg>