<svg xmlns="http://www.w3.org/2000/svg" viewBox="0 0 655.77 621.87"><defs><style>.cls-1{fill:#ffecb2;}.cls-2{fill:#ffcc80;}.cls-3{fill:#f9b75f;}.cls-4{fill:#424242;}.cls-5{fill:#f99;}.cls-14,.cls-16,.cls-5{opacity:0.9;}.cls-14,.cls-6{fill:#212121;}.cls-7{fill:#aa5b3f;}.cls-8{fill:#ef5350;}.cls-9{fill:#fff;}.cls-10{fill:#fc9d9d;}.cls-11{fill:#843e28;}.cls-12{fill:#632d1f;}.cls-13{fill:#8e4d3c;}.cls-15,.cls-17{fill:none;stroke-linecap:round;stroke-miterlimit:10;}.cls-15{stroke:#ffab91;stroke-width:6px;opacity:0.34;}.cls-16{fill:#842d1c;}.cls-17{stroke:#212121;stroke-width:2px;}</style></defs><title>Asset 54</title><g id="Layer_2" data-name="Layer 2"><g id="Layer_1-2" data-name="Layer 1"><path class="cls-1" d="M655.21,200.86C646,74.24,521.7-25.29,311.44,5.71c-197,29-360.62,262.09-297.81,432C89.85,643.89,464,661,530.2,566.39c33.17-47.35-18.63-111.57,27.58-189.34S662.15,296.51,655.21,200.86Z"/><rect class="cls-2" x="86.72" y="245.47" width="196.99" height="25.13" transform="translate(328.64 -25.36) rotate(62.51)"/><path class="cls-3" d="M233.15,344.12,142.23,169.37a2.79,2.79,0,1,0-4.95,2.57L228.19,346.7a2.8,2.8,0,1,0,5-2.58Z"/><path class="cls-4" d="M223.9,344h21.69a3.44,3.44,0,0,1,3.44,3.44v18.25a3.44,3.44,0,0,1-3.44,3.44H223.9a0,0,0,0,1,0,0V344a0,0,0,0,1,0,0Z" transform="translate(443.64 -17.78) rotate(62.51)"/><rect class="cls-5" x="232.19" y="339.95" width="4.36" height="25.13" transform="translate(438.93 -18.09) rotate(62.51)"/><polygon class="cls-4" points="128.61 176.45 131.28 154.37 150.9 164.86 128.61 176.45"/><path class="cls-6" d="M342.25,168.06s69.05,9.07,75.07-51.92S393.71,14.69,344.67,14.35,342.25,168.06,342.25,168.06Z"/><path class="cls-7" d="M468.59,298.82s11.37,8.62,16.78,5.6-4-6.3-1.77-8.7,16.31,4.79,19.92.18-6.47-5-6.47-5,11.42,1.76,12.65-2.19-10.58-4.27-10.58-4.27,8,.67,7.89-2.55S496.27,280,496.27,280s5.31-.38,3.78-4.66-33.42,3.07-33.42,3.07S457.93,293.13,468.59,298.82Z"/><path class="cls-7" d="M466.63,278.45s-30.17,9.69-51.21-1-36.17-56-49.09-59.56,2.84,79.5,50.15,79.87,56.16-4.8,56.16-4.8Z"/><path class="cls-8" d="M284.74,432.52h0q.92-3.4,2-6.76c9.2-29.37,17.72-46.61,22.88-55.48a71.87,71.87,0,0,1,7.5-12.38h0c28.6-47.7,50.91-53,70.71-42.73s7.28,47.05,7.28,47.05h0a30.3,30.3,0,0,1-1.71,4.17c-9.28,18.83-39,39.39-39,39.39s-14.17,15-23.07,33.83h0s-11.81,27.8-33.56,24.53S284.74,432.53,284.74,432.52Z"/><rect class="cls-7" x="289.96" y="513.19" width="33.42" height="44.74" transform="translate(735.49 979.39) rotate(165.78)"/><rect class="cls-9" x="297.87" y="554.46" width="33.42" height="24.63" transform="translate(758.74 1038.92) rotate(165.78)"/><path class="cls-4" d="M313.16,578.49s-.66-12.63-12.78-7.77,1.71,22.44-3.62,26.37-31.76-1.35-31.38,12.15,10.3,13.1,18.06,12.3,55.74-8.82,60.33-15.61.48-10.1-2-18.13-4.08-20.67-14.87-17.93-13.72,8.62-13.72,8.62"/><path class="cls-8" d="M284.05,435h0s13.88-22.4,30.86-14.88,15.37,21.41,15.37,21.41c-8.62,20.77-1.94,75-1.94,75S315,526.69,302.25,528.23a222.77,222.77,0,0,1-23.35,1.57S272.48,480.81,284.05,435Z"/><path class="cls-10" d="M362.47,464.34h0c-.9-2.17-1.77-4.35-2.58-6.55-10.69-28.86-14.48-47.71-15.83-57.89a71.64,71.64,0,0,1-1.64-14.38h0c-6.54-55.22,7.89-73,29.81-77s34.54,32.77,34.54,32.77h0a32.49,32.49,0,0,1,1.2,4.35c4.17,20.57-6.8,55-6.8,55s-2.06,20.51,2.44,40.88h0s7.66,29.22-11.55,39.94S362.48,464.35,362.47,464.34Z"/><rect class="cls-7" x="426.13" y="510.08" width="33.42" height="44.74" transform="translate(1135.08 512.24) rotate(128.08)"/><rect class="cls-9" x="451.48" y="539.99" width="33.42" height="24.63" transform="translate(1191.69 524.39) rotate(128.08)"/><path class="cls-4" d="M474.22,562.45s-8.24-9.59-14.86,1.66,15.08,16.71,13.26,23.08S446.68,605.54,455.23,616s16.16,4.06,21.82-1.32,38.7-41.06,38.18-49.24-5.8-8.29-12.7-13.11-15.86-13.86-22.72-5.1-5.59,15.22-5.59,15.22"/><path class="cls-10" d="M363.46,466.75h0s-2.72-26.2,15.32-30.65S404,443.64,404,443.64c5.88,21.71,44.35,60.56,44.35,60.56s-4.39,16.14-13.53,25.15a219.77,219.77,0,0,1-17.52,15.52S382.3,510,363.46,466.75Z"/><path class="cls-7" d="M221.83,292.81s-13.74,3.84-17.67-1,6.05-4.39,4.85-7.44-16.93-1.54-18.6-7.15,7.84-2.24,7.84-2.24-11.27-2.56-11-6.68,11.41-.09,11.41-.09-7.69-2.31-6.4-5.27S203,265.17,203,265.17s-4.81-2.3-1.81-5.73,29.95,15.14,29.95,15.14S233.83,291.43,221.83,292.81Z"/><path class="cls-11" d="M346.93,162.72s2.67,22.91,10.66,30.44l-12.4,16.19L329.94,202s-4.73-22-2.37-38S346.93,162.72,346.93,162.72Z"/><path class="cls-2" d="M329.18,198s8.39,2,13.07,1.37,15.34-6.19,15.34-6.19,15,15.52,24.65,43.16,30.85,125.56,30.85,125.56-33.67,11-64,12-60.1-4.67-60.1-4.67S298.11,224.25,329.18,198Z"/><path class="cls-12" d="M346.93,162.72s1.66,14.23,6.28,23.95h0s-5.19-10.42-25.64-9.23l-.6,0a76.9,76.9,0,0,1,.6-13.42C329.94,148.06,346.93,162.72,346.93,162.72Z"/><path class="cls-7" d="M333.74,18.86h0c35.55,0,64.35,29.05,64.31,65.91l0,16.81h7.66a14.56,14.56,0,0,1,0,29.11H394c-9.39,26.21-34.07,42.26-64.41,42.23-36.71,0-68.4-24.64-68.36-62.7V93.05C261.23,51.54,293.71,18.82,333.74,18.86Z"/><ellipse class="cls-6" cx="288.87" cy="113.87" rx="3.95" ry="5.33"/><circle class="cls-13" cx="356.16" cy="133.33" r="15.6"/><path class="cls-13" d="M278.29,121.74a13.35,13.35,0,0,0-13.1,10.69,58.11,58.11,0,0,0,8.67,15.24,13.34,13.34,0,1,0,4.43-25.93Z"/><path class="cls-11" d="M310.09,120.5a2.37,2.37,0,0,0-2.21,2.49v1.07a2.1,2.1,0,0,0,2,2.21,1.86,1.86,0,0,0,1.74-2v-2.13A1.59,1.59,0,0,0,310.09,120.5Z"/><path class="cls-14" d="M278.88,85.53c0-1.5,3.07-5.64,7.7-6.32a9.71,9.71,0,0,1,7,1.74c1.15.71,4.22,3,2.41,4.32-1.09.79-1.6-.8-5.15-1.65s-5.15.22-8,1.94-3.7.65-3.7.65h0A.82.82,0,0,1,278.88,85.53Z"/><ellipse class="cls-6" cx="338.1" cy="113.92" rx="3.95" ry="5.33"/><line class="cls-15" x1="401.54" y1="116.14" x2="407.44" y2="116.15"/><path class="cls-6" d="M278.28,38.36l.13-.15c10.2-11.74,19.69-15.58,19.69-15.58h0c9-4.54,22.66-8.8,42-8.23,39.8,1.17,62.79,36.35,62.79,36.35l-7.52,2c15.79,24.13,2.7,48.88,2.7,48.88C375,35.07,307.87,41.39,307.87,41.39s-18.84.94-28,11.78S261.19,101,261.19,101,256.5,62.64,278.28,38.36Z"/><path class="cls-14" d="M348.15,85.6c0-1.5-3.06-5.65-7.69-6.34a9.74,9.74,0,0,0-7,1.73c-1.16.7-4.22,3-2.42,4.31,1.09.79,1.6-.79,5.15-1.63s5.15.22,8,2,3.7.65,3.7.65h0A.78.78,0,0,0,348.15,85.6Z"/><path class="cls-7" d="M231.13,274.58s40.38,14,68.26-2.05,20.43-62.09,45.58-57.79,5.82,63.44-37.12,80.52-86.63-8.73-86.63-8.73Z"/><circle class="cls-6" cx="396.41" cy="84.9" r="16.68"/><circle class="cls-6" cx="378.68" cy="64.49" r="16.68"/><circle class="cls-6" cx="356.16" cy="47.8" r="16.68"/><circle class="cls-6" cx="336.53" cy="33.86" r="16.68"/><path class="cls-6" d="M261.36,101s.2-.8.57-2.17l-.75.19C261.27,100.31,261.36,101,261.36,101Z"/><path class="cls-6" d="M307.87,37.83s-21.11,1.87-30.29,12.71C269.73,59.8,263.37,93,261.19,101c7-2,12.82-10.58,12.82-18.2A16.55,16.55,0,0,0,271.46,74,16.55,16.55,0,0,0,283.3,55.13l.26,0A16.65,16.65,0,0,0,298.44,46a16.65,16.65,0,0,0,26-4A66.76,66.76,0,0,1,307.87,37.83Z"/><circle class="cls-6" cx="410.67" cy="31.12" r="23.89"/><path class="cls-16" d="M302.07,140.42c.22,2.18,5.2,7.81,12,8.2a14.18,14.18,0,0,0,9.89-3.44c1.6-1.18,5.75-4.91,2.95-6.6-1.69-1-2.23,1.37-7.28,3.07s-7.52.35-11.87-1.79-5.46-.45-5.46-.45h0A1.11,1.11,0,0,0,302.07,140.42Z"/><line class="cls-17" x1="338.1" y1="113.87" x2="334.44" y2="107.59"/><line class="cls-17" x1="288.87" y1="113.87" x2="285.21" y2="107.59"/></g></g></svg>