<svg xmlns="http://www.w3.org/2000/svg" viewBox="0 0 312.53 314.06"><defs><style>.cls-1{isolation:isolate;}.cls-2,.cls-5{fill:#fca2a2;}.cls-3{fill:#fff;}.cls-4{fill:#bdefe9;}.cls-4,.cls-5,.cls-6,.cls-7{mix-blend-mode:multiply;}.cls-6{fill:#80cbc4;}.cls-7{fill:#ffecb3;}.cls-8{fill:#ffcdbb;}.cls-9{opacity:0.9;}.cls-10{fill:#ffa1a1;}</style></defs><title>Asset 45</title><g class="cls-1"><g id="Layer_2" data-name="Layer 2"><g id="Layer_1-2" data-name="Layer 1"><path class="cls-2" d="M309.76,119.63C297,55.86,241.31,10.26,185.9,1.55,95.23-12.72-5.86,73.91.27,172.59,5.44,256,84.91,322.39,169.85,313.2,259.92,303.46,327.22,206.7,309.76,119.63Z"/><path class="cls-3" d="M231.77,254.84,82.3,258.73s7-79.13,5.61-103.12-16.84-90.8-16.84-90.8l145.67-6S247.91,123.83,231.77,254.84Z"/><polygon class="cls-4" points="93.03 85.01 95.81 95.84 212.46 91.9 209.42 81.55 93.03 85.01"/><polygon class="cls-4" points="98.03 106.62 100.81 117.44 217.46 113.51 214.42 103.15 98.03 106.62"/><polygon class="cls-4" points="102.03 129.54 104.81 140.36 190.18 137.48 187.45 126.99 102.03 129.54"/><circle class="cls-5" cx="138.51" cy="190.02" r="17.43"/><circle class="cls-6" cx="125.5" cy="207.45" r="17.43"/><circle class="cls-7" cx="152.71" cy="207.45" r="17.43"/><path class="cls-8" d="M250.94,264.59a593.09,593.09,0,0,0-4.89-60.28c-5.44-41.4-14.64-36.38-17.15-34.29s7.55,29.36,2.51,28.86c-7.49-.75-6.27-40.57-17.56-38.06S222.21,201,217.66,201s-16.22-52-28.33-46.74c-6.91,3,18.66,50.92,13.65,50.92s-17.57-40.57-26.35-34.71,24.79,64.42,20.81,69.86-30.85-13.4-25,1.23c3.77,9.44,23,21.31,36.21,28.55h0c3.55,6.91,5.92,17.38,7.43,29.92a160.48,160.48,0,0,0,35.46-23.16C251.25,270.71,251,266.4,250.94,264.59Z"/><g class="cls-9"><path class="cls-10" d="M200.53,218.59s9-7.57,15-8.75S235.5,211,235.5,211s-15.33.95-19.95,2.13S200.53,218.59,200.53,218.59Z"/></g></g></g></g></svg>