<svg width="488" height="107" viewBox="0 0 488 107" fill="none" xmlns="http://www.w3.org/2000/svg">
<path d="M41.6752 107C60.9987 107 75.4191 100.367 80.8989 88.1092C82.6294 84.2156 83.6388 79.8895 83.6388 74.8423C83.6388 69.9394 82.7736 65.9016 81.3316 62.4407C76.5728 52.058 65.0364 47.7318 51.7695 44.1267C39.5121 40.81 28.1199 38.9353 25.0916 32.4461C24.5148 30.8598 24.3706 29.562 24.3706 27.8315C24.3706 26.1011 24.5148 24.8032 25.2359 23.217C27.2547 18.7466 32.8787 16.0067 40.2332 16.0067C48.0202 16.0067 53.0674 18.7466 55.5189 23.938C56.6725 26.5337 57.1051 29.4178 57.1051 33.0229H79.1685C79.1685 27.2547 78.3032 22.6402 76.4286 18.1698C71.093 6.34502 58.403 0 41.0984 0C23.3612 0 9.95014 6.77763 5.04717 18.0256C3.31671 21.7749 2.30728 25.6685 2.30728 30.1388C2.30728 34.7534 3.31671 38.3585 4.61456 41.531C8.7965 50.9043 19.035 55.6631 30.8598 58.8356C43.2615 62.4407 55.6631 64.3154 59.124 71.9582C59.845 73.5445 60.2776 75.1307 60.2776 77.2938C60.2776 79.1685 59.845 80.8989 58.9798 82.9178C56.8167 87.6766 50.7601 90.4164 42.3962 90.4164C33.4555 90.4164 27.6873 87.3881 25.0916 81.7642C23.938 79.1685 23.5054 75.996 23.5054 72.3908H0C0.144205 78.159 1.00943 83.3504 3.0283 87.8208C8.36388 99.5014 21.3423 107 41.6752 107Z" fill="#263238"/>
<path d="M114.1 104.404H135.298V20.6213H158.803V2.59569H90.4503V20.6213H114.1V104.404Z" fill="#263238"/>
<path d="M231.52 104.404H256.035L224.742 61.7197C235.269 60.2776 242.335 55.2305 246.084 46.5782C247.815 42.6846 248.824 37.4933 248.824 32.1577C248.824 26.6779 247.815 21.9191 246.084 18.0256C241.47 7.78707 231.087 2.59569 214.792 2.59569H172.252V104.404H193.594V62.2965H201.669L231.52 104.404ZM193.594 19.1792H208.88C217.388 19.1792 223.3 20.9097 225.752 26.1011C226.473 27.8315 226.905 29.9946 226.905 32.7345C226.905 35.7628 226.473 37.9259 225.607 39.9447C223.3 44.7035 217.676 46.8666 208.88 46.8666H193.594V19.1792Z" fill="#263238"/>
<path d="M267.551 104.404H288.893V2.59569H267.551V104.404Z" fill="#263238"/>
<path d="M309.196 104.404H349.429C371.78 104.404 386.778 95.4636 393.844 79.7453C397.16 72.535 398.603 64.027 398.603 53.5C398.603 42.9731 397.16 34.465 393.844 27.2547C386.922 11.5364 371.78 2.59569 349.429 2.59569H309.196V104.404ZM330.538 86.0903V20.9097H346.112C360.244 20.9097 368.752 25.8127 372.79 35.186C374.953 39.9447 375.962 45.5687 375.962 53.5C375.962 61.4313 374.953 67.0553 372.79 71.814C368.752 81.0431 360.388 86.0903 346.112 86.0903H330.538Z" fill="#263238"/>
<rect x="415.971" y="104.404" width="17.6832" height="71.8225" transform="rotate(-90 415.971 104.404)" fill="#90CAF9"/>
<rect x="415.971" y="62.6086" width="17.6832" height="61.4503" transform="rotate(-90 415.971 62.6086)" fill="#90CAF9"/>
<rect x="415.971" y="20.8129" width="17.6832" height="71.8225" transform="rotate(-90 415.971 20.8129)" fill="#90CAF9"/>
</svg>
