<svg xmlns="http://www.w3.org/2000/svg" viewBox="0 0 148.72 35.34"><defs><style>.cls-1{fill:#4db6ac;}.cls-2{fill:#00796b;}</style></defs><title>Asset 60</title><g id="Layer_2" data-name="Layer 2"><g id="Layer_1-2" data-name="Layer 1"><path class="cls-1" d="M0,25.18a.45.45,0,0,1,.49-.39h5.6c.24,0,.49.2.49.39C6.68,27.69,8.74,29,11,29s4.41-1.57,4.41-3.93c0-2.6-2.4-4.17-4.41-4.27a13.27,13.27,0,0,1-5.26-1.17A9.38,9.38,0,0,1,0,10.65C0,4,5.35,0,11,0c6,0,10.75,4.07,10.84,10.06a.45.45,0,0,1-.49.35H15.81c-.25,0-.49-.2-.49-.35-.1-2.5-2-3.68-4.32-3.68a4.08,4.08,0,0,0-4.42,4.27c0,2.55,2.16,3.88,4.42,3.88a13,13,0,0,1,5.2,1.18A9.84,9.84,0,0,1,21.94,25c0,6.63-5.3,10.31-10.94,10.31C4.91,35.2.1,31.66,0,25.18Z"/><path class="cls-1" d="M45.51,6.28c0,.2-.2.35-.49.35H38.49V34.46a.4.4,0,0,1-.45.39H32.5a.39.39,0,0,1-.44-.39V6.63H25.53c-.3,0-.49-.15-.49-.35V1.18a.44.44,0,0,1,.49-.39H45a.45.45,0,0,1,.49.39Z"/><path class="cls-1" d="M60.09,21H56.41v13.5a.45.45,0,0,1-.49.39h-5.6a.42.42,0,0,1-.44-.39V.88a.43.43,0,0,1,.44-.39H61.41c2,0,11.64.1,11.64,10.21,0,5.25-2.9,8-6.34,9.23,2.16,4.86,4.47,9.57,6.63,14.38.15.3,0,.54-.39.54H66.81a.71.71,0,0,1-.44-.24Zm-3.68-6.28h5c1.43,0,5.11-.2,5.11-4s-4.08-4-5.11-4h-5Z"/><path class="cls-1" d="M79.33.88a.45.45,0,0,1,.49-.39h5.55a.45.45,0,0,1,.49.39V34.46a.45.45,0,0,1-.49.39H79.82a.45.45,0,0,1-.49-.39Z"/><path class="cls-1" d="M99.11.49c8.3,0,19.93,2,19.93,17.08,0,14.58-11.43,17.28-19.93,17.28H93.57a.44.44,0,0,1-.49-.39V.88a.45.45,0,0,1,.49-.39Zm.49,28.23c4.13.19,12.91-.59,12.91-11.15,0-9.08-5.49-11.38-12.91-11Z"/><path class="cls-2" d="M132,20.82h13.4a.4.4,0,0,0,.45-.39V15.07a.4.4,0,0,0-.45-.39H126.05a.5.5,0,0,0-.5.5v5.15a.51.51,0,0,0,.5.5Z"/><path class="cls-2" d="M148.23.63H126a.44.44,0,0,0-.45.4V6.38a.51.51,0,0,0,.5.5h22.18a.45.45,0,0,0,.49-.39V1A.45.45,0,0,0,148.23.63Z"/><path class="cls-2" d="M148.23,28.61H126a.44.44,0,0,0-.45.39v5.35a.5.5,0,0,0,.5.5h22.18a.45.45,0,0,0,.49-.4V29A.45.45,0,0,0,148.23,28.61Z"/></g></g></svg>