<svg width="118" height="28" viewBox="0 0 118 28" fill="none" xmlns="http://www.w3.org/2000/svg">
<path d="M0 19.8672C0 19.7124 0.154807 19.5576 0.387897 19.5576H4.80253C4.99604 19.5576 5.19043 19.7124 5.19043 19.8672C5.26783 21.8418 6.89418 22.849 8.67622 22.849C10.5348 22.849 12.162 21.6096 12.162 19.7511C12.162 17.6981 10.2648 16.4597 8.67622 16.3814C8.44313 16.3814 6.54587 16.3814 4.53162 15.4517C1.62635 14.0971 0 11.6571 0 8.40355C0 3.1753 4.22113 0 8.67534 0C13.4383 0 17.1563 3.214 17.2337 7.93913C17.2337 8.05523 17.0789 8.21004 16.8467 8.21004H12.4707C12.2764 8.21004 12.0829 8.05523 12.0829 7.93913C12.0054 5.96446 10.4952 5.03474 8.67534 5.03474C6.77808 5.03474 5.18955 6.15797 5.18955 8.40355C5.18955 10.4178 6.8933 11.4627 8.67534 11.4627C8.86885 11.4627 10.8048 11.4627 12.7804 12.3925C15.7235 13.7479 17.3111 16.4975 17.3111 19.7511C17.3111 24.9793 13.1278 27.8837 8.67534 27.8837C3.87281 27.7685 0.0774034 24.9793 0 19.8672Z" fill="#1976D2"/>
<path d="M35.902 4.95725C35.902 5.11206 35.7472 5.22816 35.515 5.22816H30.3633V27.187C30.3633 27.3418 30.2471 27.4966 30.0149 27.4966H25.6399C25.4068 27.4966 25.2907 27.3418 25.2907 27.187V5.22816H20.1398C19.9076 5.22816 19.7519 5.11206 19.7519 4.95725V0.929634C19.7519 0.773947 19.9076 0.619141 20.1398 0.619141H35.515C35.7472 0.619141 35.902 0.773947 35.902 0.929634V4.95725Z" fill="#1976D2"/>
<path d="M47.4061 16.5373H44.5017V27.1873C44.5017 27.3421 44.3469 27.4969 44.1147 27.4969H39.6992C39.5057 27.4969 39.3508 27.3421 39.3508 27.1873V0.696821C39.3508 0.542014 39.5057 0.387207 39.6992 0.387207H48.4519C50.0017 0.387207 57.6304 0.464611 57.6304 8.44244C57.6304 12.5862 55.3461 14.7552 52.6343 15.7228C54.339 19.5569 56.1588 23.2749 57.8626 27.0703C57.9787 27.3025 57.8239 27.496 57.553 27.496H52.7117C52.5965 27.496 52.4021 27.3799 52.3634 27.3025L47.4061 16.5373ZM44.5017 11.5799H48.4519C49.5751 11.5799 52.4795 11.4251 52.4795 8.44332C52.4795 5.46153 49.2655 5.30672 48.4519 5.30672H44.5017V11.5799Z" fill="#1976D2"/>
<path d="M62.5886 0.696821C62.5886 0.542014 62.7434 0.387207 62.9765 0.387207H67.3524C67.5846 0.387207 67.7394 0.542014 67.7394 0.696821V27.1873C67.7394 27.3421 67.5846 27.4969 67.3524 27.4969H62.9765C62.7434 27.4969 62.5886 27.3421 62.5886 27.1873V0.696821Z" fill="#1976D2"/>
<path d="M78.1968 0.387207C84.7418 0.387207 93.9203 1.93616 93.9203 13.8642C93.9203 25.3665 84.8966 27.4969 78.1968 27.4969H73.8209C73.5878 27.4969 73.433 27.3421 73.433 27.1873V0.696821C73.433 0.542014 73.5878 0.387207 73.8209 0.387207H78.1968ZM78.5838 22.6565C81.8374 22.8113 88.7694 22.1912 88.7694 13.8651C88.7694 6.70087 84.4322 4.88012 78.5838 5.18974V22.6565Z" fill="#1976D2"/>
<path d="M104.168 16.4225V16.4198H114.742C114.974 16.4198 115.09 16.265 115.09 16.1102V11.8891C115.09 11.7343 114.974 11.5795 114.742 11.5795H104.168V11.5742H99.4476C99.2312 11.5742 99.0562 11.7493 99.0562 11.9656V16.032C99.0562 16.2483 99.2312 16.4234 99.4476 16.4234H104.168V16.4225Z" fill="#90CAF9"/>
<path d="M116.949 0.500488H99.4054C99.211 0.500488 99.0562 0.655295 99.0562 0.810102V5.03035C99.0562 5.24849 99.233 5.4244 99.4502 5.4244H104.167V5.41913H116.948C117.18 5.41913 117.336 5.26344 117.336 5.10863V0.810102C117.337 0.655295 117.181 0.500488 116.949 0.500488Z" fill="#90CAF9"/>
<path d="M116.949 22.5728H99.4054C99.211 22.5728 99.0562 22.7276 99.0562 22.8824V27.1026C99.0562 27.3208 99.233 27.4967 99.4502 27.4967H104.167V27.4914H116.948C117.18 27.4914 117.336 27.3357 117.336 27.1809V22.8824C117.337 22.7276 117.181 22.5728 116.949 22.5728Z" fill="#90CAF9"/>
</svg>
