<svg width="610" height="214" viewBox="0 0 610 214" fill="none" xmlns="http://www.w3.org/2000/svg">
<g clip-path="url(#clip0)">
<path d="M603.177 96.8154C593 74.7019 578.479 34.6572 540.891 23.0899C492.003 8.04486 446.133 27.1102 322.336 31.3867C169.23 36.6768 71.503 -28.605 26.9858 15.2264C-3.63549 45.3805 -10.7153 129.238 18.9076 158.861C54.9584 194.911 182.331 184.022 320.539 183.996C534.335 183.955 571.425 212.006 603.173 159.102C609.744 148.152 614.499 129.581 603.177 96.8154Z" fill="white"/>
<path d="M113.499 47.8633C113.499 47.8633 138.668 27.1891 159.342 42.4715C180.017 57.7539 163.28 107.531 165.8 116.898C167.666 123.827 175.243 125.847 178.144 124.377C178.871 124.008 179.621 124.837 179.195 125.53C175.198 132.018 163.061 138.74 153.785 132.075C136.558 119.697 153.05 48.76 141.366 48.76C129.682 48.76 113.499 47.8633 113.499 47.8633Z" fill="#1977D1"/>
<path d="M149.011 87.2181L148.951 73.2733C148.981 42.6858 125.081 18.6055 95.5828 18.5791C62.3655 18.5452 35.4216 45.7001 35.3877 80.142L35.3726 94.3883C35.3424 125.978 61.6345 146.392 92.1014 146.422C116.788 146.445 137.869 126.875 146.023 105.605C148.589 97.7417 149.019 90.9633 149.011 87.2181Z" fill="#42A5F4"/>
<path d="M116.155 31.296C119.884 31.296 122.907 28.273 122.907 24.544C122.907 20.815 119.884 17.792 116.155 17.792C112.426 17.792 109.403 20.815 109.403 24.544C109.403 28.273 112.426 31.296 116.155 31.296Z" fill="#90CAF9"/>
<path d="M57.0716 99.9797C58.88 99.9797 60.3459 97.9993 60.3459 95.5563C60.3459 93.1133 58.88 91.1328 57.0716 91.1328C55.2633 91.1328 53.7974 93.1133 53.7974 95.5563C53.7974 97.9993 55.2633 99.9797 57.0716 99.9797Z" fill="#1565C0"/>
<path d="M112.904 124.656C120.054 124.656 125.85 118.86 125.85 111.71C125.85 104.56 120.054 98.7637 112.904 98.7637C105.754 98.7637 99.9573 104.56 99.9573 111.71C99.9573 118.86 105.754 124.656 112.904 124.656Z" fill="#90CAF9"/>
<path d="M48.2888 102.086C42.9234 102.082 38.4472 105.891 37.4223 110.955C39.1932 115.594 41.6272 119.825 44.6114 123.604C45.7568 124.007 46.9851 124.237 48.2699 124.237C54.3889 124.245 59.3512 119.29 59.3587 113.171C59.3625 107.056 54.4078 102.093 48.2888 102.086Z" fill="#90CAF9"/>
<path d="M97.9227 100.022C99.731 100.022 101.197 98.0413 101.197 95.5983C101.197 93.1553 99.731 91.1748 97.9227 91.1748C96.1144 91.1748 94.6484 93.1553 94.6484 95.5983C94.6484 98.0413 96.1144 100.022 97.9227 100.022Z" fill="#1565C0"/>
<path d="M95.5677 18.5791C62.3541 18.5452 35.4065 45.7001 35.3726 80.142C35.3726 80.142 46.8042 68.7669 78.262 68.1301C109.72 67.4934 148.924 87.2181 148.924 87.2181L148.939 73.2732C148.966 42.6896 125.07 18.6055 95.5677 18.5791Z" fill="#BBDEFB"/>
<path d="M108.556 72.268C108.556 72.268 67.4483 60.2222 35.3726 67.1814C3.29687 74.1406 7.93886 85.4555 16.9327 88.6468C25.9266 91.8382 37.4487 72.1324 108.556 72.268Z" fill="#90CAF9"/>
<path d="M175.218 98.3407L129.976 62.5791L125.413 68.3519L170.655 104.114L175.218 98.3407Z" fill="#FFCC80"/>
<path d="M172.428 101.872L127.184 66.1075C126.83 65.8287 126.769 65.3125 127.048 64.9583C127.327 64.6041 127.843 64.5439 128.197 64.8227L173.442 100.587C173.796 100.866 173.856 101.382 173.577 101.736C173.299 102.094 172.782 102.155 172.428 101.872Z" fill="#F9B75F"/>
<path d="M175.409 107.873L170.654 104.113L175.216 98.3408L179.971 102.101C180.533 102.546 180.627 103.36 180.186 103.921L177.232 107.659C176.788 108.224 175.97 108.318 175.409 107.873Z" fill="#424242"/>
<path opacity="0.9" d="M177.561 100.192L176.559 99.4004L171.996 105.173L172.998 105.965L177.561 100.192Z" fill="#FF9999"/>
<path d="M129.972 62.5803L123.476 62.1357L125.413 68.3527L129.972 62.5803Z" fill="#424242"/>
<path d="M148.936 87.2188L155.284 87.2263C161.957 87.2338 163.427 91.8947 163.427 94.6452C163.427 98.7634 162.131 104.185 155.458 104.178L146.487 104.344C138.698 126.095 148.936 87.2188 148.936 87.2188Z" fill="#42A5F4"/>
<path d="M575.825 114.004L575.656 100.748C575.437 71.6755 552.529 48.978 524.489 49.189C492.914 49.4263 467.519 75.4547 467.767 108.19L467.869 121.731C468.095 151.757 493.249 170.955 522.209 170.736C545.675 170.559 565.554 151.788 573.135 131.501C575.505 124.007 575.863 117.56 575.825 114.004Z" fill="#BBDEFB"/>
<path d="M313.222 148.925C312.935 79.5397 296.391 67.0418 296.391 67.0418L289.152 78.285C271.662 60.8813 244.39 41.6728 222.333 61.6048C186.829 93.6842 190.721 159.162 191.784 163.401C192.417 165.929 215.254 165.439 233.573 164.637C233.656 164.637 312.841 163.812 313.225 161.604C313.606 159.392 313.222 148.925 313.222 148.925Z" fill="#E53934"/>
<path d="M200.574 117.43L200.631 104.174C200.604 75.1015 223.317 52.208 251.361 52.1817C282.936 52.1515 308.549 77.9651 308.579 110.7L308.591 124.242C308.621 154.268 283.625 173.676 254.665 173.702C231.199 173.725 211.158 155.119 203.411 134.901C200.977 127.429 200.567 120.986 200.574 117.43Z" fill="#EE9A9A"/>
<path d="M287.969 129.558C289.688 129.558 291.082 127.676 291.082 125.353C291.082 123.031 289.688 121.148 287.969 121.148C286.251 121.148 284.857 123.031 284.857 125.353C284.857 127.676 286.251 129.558 287.969 129.558Z" fill="#EF534F"/>
<path d="M234.895 153.013C241.692 153.013 247.201 147.503 247.201 140.707C247.201 133.911 241.692 128.401 234.895 128.401C228.099 128.401 222.59 133.911 222.59 140.707C222.59 147.503 228.099 153.013 234.895 153.013Z" fill="#E57373"/>
<path d="M296.315 131.563C301.417 131.559 305.671 135.18 306.643 139.995C304.959 144.403 302.645 148.424 299.812 152.018C298.723 152.402 297.555 152.621 296.334 152.621C290.52 152.625 285.799 147.915 285.795 142.101C285.792 136.287 290.501 131.566 296.315 131.563Z" fill="#E57373"/>
<path d="M249.138 129.595C250.857 129.595 252.25 127.713 252.25 125.39C252.25 123.068 250.857 121.186 249.138 121.186C247.419 121.186 246.026 123.068 246.026 125.39C246.026 127.713 247.419 129.595 249.138 129.595Z" fill="#EF534F"/>
<path d="M200.646 117.43L194.61 117.437C188.268 117.445 186.87 121.872 186.87 124.491C186.87 128.405 188.102 133.56 194.444 133.552L202.97 133.711C210.378 154.385 200.646 117.43 200.646 117.43Z" fill="#EE9A9A"/>
<path d="M307.37 99.057C307.37 99.057 310.524 53.8127 259.469 50.9755C208.415 48.1383 202.417 105.745 202.417 105.745C202.417 105.745 239.59 103.605 249.503 97.9116C257.823 93.134 262.955 77.6971 264.386 72.8592C264.59 72.1734 265.472 71.9662 265.95 72.5012C267.175 73.8689 267.902 76.2992 268.022 80.0444C268.203 85.7904 264.081 95.9146 269.111 96.2198C274.141 96.525 275.328 87.0753 275.279 81.529C275.245 77.7159 275.257 74.0912 275.268 72.196C275.272 71.6271 275.92 71.3106 276.368 71.661C279.819 74.3475 288.911 83.217 294.785 91.3894C301.315 100.477 307.37 99.057 307.37 99.057Z" fill="#E53934"/>
<path d="M259.466 50.9757C259.466 50.9757 204.583 44.8416 196.007 112.207L259.466 50.9757Z" fill="#E53934"/>
<path d="M488.544 134.411C490.262 134.398 491.642 132.505 491.624 130.183C491.607 127.86 490.199 125.988 488.48 126.001C486.762 126.014 485.382 127.907 485.4 130.229C485.417 132.552 486.825 134.424 488.544 134.411Z" fill="#1977D1"/>
<path d="M541.7 157.413C548.496 157.413 554.006 151.904 554.006 145.108C554.006 138.311 548.496 132.802 541.7 132.802C534.904 132.802 529.394 138.311 529.394 145.108C529.394 151.904 534.904 157.413 541.7 157.413Z" fill="#90CAF9"/>
<path d="M480.205 136.479C476.746 136.505 473.694 138.197 471.795 140.789C474.534 147.085 478.592 152.537 483.611 157.002C487.824 155.601 490.849 151.614 490.815 146.931C490.77 141.117 486.019 136.437 480.205 136.479Z" fill="#90CAF9"/>
<path d="M527.376 134.121C529.095 134.108 530.474 132.215 530.457 129.893C530.439 127.57 529.032 125.698 527.313 125.711C525.594 125.724 524.215 127.617 524.232 129.939C524.25 132.262 525.657 134.134 527.376 134.121Z" fill="#1977D1"/>
<path d="M575.754 114.004L581.79 113.958C588.131 113.909 589.567 118.329 589.59 120.948C589.624 124.863 588.437 130.028 582.092 130.073L573.565 130.303C566.334 151.038 575.754 114.004 575.754 114.004Z" fill="#BBDEFB"/>
<path d="M448.992 160.126C448.706 90.7409 432.161 78.2429 432.161 78.2429L424.923 89.4862C407.433 72.0825 380.161 52.874 358.104 72.8059C333.59 94.9534 327.86 133.027 327.008 155.872C326.627 166.113 327.227 210.121 327.554 211.433C328.187 213.961 351.024 213.471 369.344 212.669C369.426 212.669 448.612 211.843 448.996 209.635C449.377 207.424 448.992 160.126 448.992 160.126Z" fill="#FFE082"/>
<path d="M336.345 128.631L336.401 115.375C336.375 86.3027 359.088 63.4092 387.132 63.3828C418.706 63.3527 444.32 89.1662 444.35 121.901L444.362 135.443C444.392 165.469 419.396 184.877 390.436 184.904C366.97 184.926 346.929 166.321 339.182 146.102C336.748 138.631 336.337 132.188 336.345 128.631Z" fill="#FFC107"/>
<path d="M437.414 140.759C439.132 140.759 440.526 138.877 440.526 136.555C440.526 134.232 439.132 132.35 437.414 132.35C435.695 132.35 434.301 134.232 434.301 136.555C434.301 138.877 435.695 140.759 437.414 140.759Z" fill="#FF8E00"/>
<path d="M381.97 165.721C388.766 165.721 394.275 160.211 394.275 153.415C394.275 146.619 388.766 141.109 381.97 141.109C375.173 141.109 369.664 146.619 369.664 153.415C369.664 160.211 375.173 165.721 381.97 165.721Z" fill="#FFECB2"/>
<path d="M443.393 144.267C437.579 144.27 432.87 148.991 432.873 154.805C432.877 157.846 434.17 160.581 436.231 162.503C439.863 157.205 442.425 151.086 443.616 144.278C443.54 144.278 443.469 144.267 443.393 144.267Z" fill="#FFECB2"/>
<path d="M401.487 140.797C403.206 140.797 404.599 138.914 404.599 136.592C404.599 134.269 403.206 132.387 401.487 132.387C399.768 132.387 398.375 134.269 398.375 136.592C398.375 138.914 399.768 140.797 401.487 140.797Z" fill="#FF8E00"/>
<path d="M443.74 111.275C443.74 111.275 446.294 65.0137 395.24 62.1728C344.186 59.3318 343.944 174.575 343.944 174.575C343.944 174.575 377.682 118.92 385.274 109.113C391.148 101.528 411.69 82.5154 412.139 82.862C415.59 85.5485 424.682 94.418 430.556 102.591C434.64 108.269 444.124 127.975 445.609 129.832C447.334 131.991 443.74 111.275 443.74 111.275Z" fill="#FFE082"/>
<path d="M395.24 62.1768C395.24 62.1768 340.358 56.0428 331.782 123.408L337.268 160.887L341.608 168.901L356.635 125.164L362.644 86.4342" fill="#FFE082"/>
<path d="M357.343 128.631L347.825 128.638C341.484 128.646 340.086 133.073 340.086 135.692C340.086 139.607 341.318 144.761 347.66 144.753L352.113 144.757C356.556 138.476 357.343 128.631 357.343 128.631Z" fill="#FFB300"/>
</g>
<defs>
<clipPath id="clip0">
<rect width="610" height="213.317" fill="white"/>
</clipPath>
</defs>
</svg>
