<svg width="502" height="424" viewBox="0 0 502 424" fill="none" xmlns="http://www.w3.org/2000/svg">
<path d="M500.987 137.005C493.951 50.6377 398.989 -17.2513 238.356 3.8937C87.8529 23.6745 -37.1485 182.664 10.8367 298.559C69.0668 439.193 354.908 450.864 405.483 386.331C430.824 354.034 391.25 310.23 426.553 257.183C461.856 204.136 506.289 202.247 500.987 137.005Z" fill="#E3F2FD"/>
<rect x="127.496" y="114.028" width="132" height="17" transform="rotate(62.51 127.496 114.028)" fill="#FFCC80"/>
<path d="M183.183 235.203L121.99 116.077C121.694 115.453 121.085 115.041 120.401 115.003C119.718 114.965 119.068 115.307 118.705 115.895C118.343 116.483 118.325 117.224 118.659 117.829L179.844 236.962C180.155 237.571 180.762 237.966 181.438 237.998C182.113 238.03 182.755 237.695 183.12 237.118C183.486 236.542 183.52 235.812 183.21 235.203H183.183Z" fill="#F9B75F"/>
<path d="M189.537 230.036L196.31 243.052C196.903 244.192 196.46 245.598 195.32 246.191L184.368 251.89C183.228 252.483 181.823 252.04 181.229 250.899L174.457 237.883L189.537 230.036Z" fill="#424242"/>
<rect opacity="0.9" x="192.038" y="232.803" width="4" height="17" transform="rotate(62.51 192.038 232.803)" fill="#FF9999"/>
<path d="M112.42 122L114.337 106L128.42 113.601L112.42 122V122Z" fill="#424242"/>
<path d="M257.578 114.678C257.578 114.678 302.956 120.796 306.913 79.6582C310.869 38.5202 291.397 11.2297 259.168 11.0004C226.94 10.771 257.578 114.678 257.578 114.678Z" fill="#212121"/>
<path d="M340.957 204.78C340.957 204.78 348.536 210.608 352.142 208.566C355.749 206.524 349.476 204.307 350.962 202.684C352.449 201.061 361.835 205.923 364.241 202.806C366.647 199.689 359.928 199.425 359.928 199.425C359.928 199.425 367.541 200.615 368.361 197.945C369.18 195.274 361.308 195.058 361.308 195.058C361.308 195.058 366.641 195.511 366.567 193.334C366.494 191.157 359.408 192.056 359.408 192.056C359.408 192.056 362.948 191.799 361.928 188.905C360.908 186.012 339.65 190.981 339.65 190.981C339.65 190.981 333.851 200.933 340.957 204.78Z" fill="#AA5B3F"/>
<path d="M341.292 189.195C341.292 189.195 320.569 195.614 306.116 188.532C291.664 181.45 281.271 151.432 272.397 149.074C263.522 146.715 274.347 201.742 306.844 201.987C339.341 202.233 345.42 198.807 345.42 198.807L341.292 189.195Z" fill="#AA5B3F"/>
<path d="M218.611 293.62V293.62C219.034 292.101 219.494 290.59 219.991 289.088C226.335 269.396 232.211 257.837 235.77 251.89C237.202 248.961 238.935 246.18 240.942 243.59V243.59C260.666 211.608 276.052 208.055 289.707 214.941C303.362 221.826 294.728 246.486 294.728 246.486V246.486C294.407 247.445 294.012 248.38 293.549 249.282C287.149 261.907 266.652 275.692 266.652 275.692C266.652 275.692 256.88 285.749 250.742 298.374V298.374C250.742 298.374 242.597 317.013 227.597 314.821C212.598 312.628 218.611 293.627 218.611 293.62Z" fill="#1976D2"/>
<rect x="244.783" y="374.961" width="21" height="30" transform="rotate(165.78 244.783 374.961)" fill="#AA5B3F"/>
<rect x="249.187" y="389.16" width="21" height="17" transform="rotate(165.78 249.187 389.16)" fill="white"/>
<path d="M235.894 392.187C235.894 392.187 235.459 383.506 227.476 386.847C219.493 390.187 228.602 402.27 225.092 404.971C221.581 407.672 204.173 404.043 204.423 413.322C204.673 422.6 211.207 422.326 216.318 421.776C221.43 421.226 253.032 415.714 256.055 411.047C259.078 406.38 256.371 404.105 254.738 398.586C253.104 393.067 252.05 384.379 244.943 386.262C237.837 388.146 235.907 392.187 235.907 392.187" fill="#424242"/>
<path d="M219.108 295.222V295.222C219.108 295.222 228.501 279.916 239.991 285.055C251.482 290.193 250.393 299.684 250.393 299.684C244.559 313.877 249.08 350.933 249.08 350.933C249.08 350.933 240.052 357.875 231.424 358.927C226.179 359.564 220.905 359.922 215.623 360C215.623 360 211.278 326.525 219.108 295.222Z" fill="#1976D2"/>
<path d="M271.039 315.741V315.741C270.43 314.271 269.843 312.795 269.295 311.305C262.072 291.758 259.512 278.991 258.6 272.096C257.903 268.896 257.532 265.633 257.491 262.357V262.357C253.073 224.957 262.822 212.915 277.633 210.206C292.444 207.497 300.971 232.401 300.971 232.401V232.401C301.309 233.363 301.58 234.347 301.781 235.347C304.599 249.279 297.187 272.598 297.187 272.598C297.187 272.598 295.795 286.489 298.835 300.285V300.285C298.835 300.285 304.011 320.075 291.032 327.336C278.052 334.596 271.045 315.748 271.039 315.741Z" fill="#42A5F5"/>
<rect x="343.204" y="360.986" width="21" height="30" transform="rotate(128.08 343.204 360.986)" fill="#AA5B3F"/>
<rect x="354.087" y="372.478" width="21" height="17" transform="rotate(128.08 354.087 372.478)" fill="white"/>
<path d="M347.561 380.829C347.561 380.829 341.964 374.317 337.467 381.957C332.971 389.596 347.71 393.304 346.474 397.63C345.238 401.955 328.854 410.09 334.662 417.193C340.469 424.296 345.638 419.95 349.483 416.297C353.327 412.644 375.769 388.415 375.416 382.86C375.063 377.305 371.477 377.23 366.79 373.957C362.103 370.684 356.017 364.545 351.358 370.494C346.698 376.443 347.561 380.829 347.561 380.829" fill="#424242"/>
<path d="M270.518 317.62V317.62C270.518 317.62 268.695 299.717 280.787 296.677C292.88 293.636 297.692 301.829 297.692 301.829C301.634 316.663 327.42 343.21 327.42 343.21C327.42 343.21 324.478 354.238 318.351 360.395C314.624 364.14 310.704 367.68 306.607 371C306.607 371 283.147 347.173 270.518 317.62Z" fill="#42A5F5"/>
<path d="M175.919 197.098C175.919 197.098 166.584 199.495 163.913 196.474C161.243 193.452 168.024 193.733 167.209 191.829C166.393 189.924 155.705 190.867 154.571 187.365C153.436 183.862 159.898 185.966 159.898 185.966C159.898 185.966 152.24 184.368 152.424 181.796C152.607 179.223 160.176 181.739 160.176 181.739C160.176 181.739 154.951 180.297 155.828 178.449C156.704 176.601 163.125 179.841 163.125 179.841C163.125 179.841 159.857 178.405 161.895 176.264C163.934 174.122 182.245 185.716 182.245 185.716C182.245 185.716 184.073 196.236 175.919 197.098Z" fill="#AA5B3F"/>
<path d="M261.124 111.329C261.124 111.329 262.951 127.381 268.42 132.657L259.933 144L249.494 138.85C249.494 138.85 246.257 123.436 247.872 112.226C249.487 101.016 261.124 111.329 261.124 111.329Z" fill="#843E28"/>
<path d="M247.3 135.278C247.3 135.278 252.911 136.639 256.042 136.21C259.172 135.782 266.301 132 266.301 132C266.301 132 276.333 142.556 282.787 161.356C289.242 180.156 303.42 246.758 303.42 246.758C303.42 246.758 280.901 254.239 260.616 254.92C240.331 255.6 220.42 251.743 220.42 251.743C220.42 251.743 226.52 153.133 247.3 135.278Z" fill="#FFD54F"/>
<path d="M260.363 111.289C260.363 111.289 261.435 121.218 264.42 128V128C264.42 128 261.067 120.729 247.854 121.56H247.466C247.342 118.432 247.472 115.299 247.854 112.196C249.385 101.06 260.363 111.289 260.363 111.289Z" fill="#632D1F"/>
<path d="M250.864 15V15C274.615 15 293.857 34.6106 293.83 59.4933V70.8411H298.948C304.219 70.9807 308.42 75.3386 308.42 80.6666C308.42 85.9946 304.219 90.3525 298.948 90.4921H291.124C284.851 108.185 268.362 119.02 248.092 119C223.566 119 202.394 102.366 202.42 76.6736V65.0828C202.42 37.061 224.12 14.973 250.864 15Z" fill="#AA5B3F"/>
<path d="M221.42 83C223.077 83 224.42 81.2091 224.42 79C224.42 76.7909 223.077 75 221.42 75C219.764 75 218.42 76.7909 218.42 79C218.42 81.2091 219.764 83 221.42 83Z" fill="#212121"/>
<path d="M266.92 103C272.719 103 277.42 98.299 277.42 92.5C277.42 86.701 272.719 82 266.92 82C261.121 82 256.42 86.701 256.42 92.5C256.42 98.299 261.121 103 266.92 103Z" fill="#8E4D3C"/>
<path d="M212.85 85C208.761 84.9943 205.235 88.0111 204.42 92.212C205.773 95.9154 207.654 99.382 209.999 102.494C213.219 103.676 216.802 102.747 219.125 100.126C221.447 97.5051 222.069 93.6907 220.708 90.41C219.347 87.1293 216.262 85.0054 212.85 85V85Z" fill="#8E4D3C"/>
<path d="M234.782 83C233.402 83.0743 232.351 84.0357 232.424 85.1577V86.0849C232.392 86.5692 232.599 87.0437 233 87.4032C233.401 87.7628 233.962 87.9776 234.558 88C235.089 87.9734 235.584 87.775 235.933 87.4492C236.282 87.1234 236.456 86.6975 236.414 86.2669V84.4211C236.444 83.6633 235.715 83.0282 234.782 83Z" fill="#843E28"/>
<path opacity="0.9" d="M214.423 60.1842C214.423 58.9712 216.508 55.6234 219.651 55.0735C221.329 54.7983 223.031 55.3021 224.405 56.4805C225.186 57.0547 227.27 58.9065 226.041 59.9739C225.301 60.6128 224.955 59.327 222.544 58.6396C220.134 57.9523 219.047 58.8176 217.112 60.2084C215.177 61.5993 214.599 60.7341 214.599 60.7341V60.7341C214.472 60.5936 214.406 60.3902 214.423 60.1842V60.1842Z" fill="#212121"/>
<path d="M253.42 83C255.077 83 256.42 81.2091 256.42 79C256.42 76.7909 255.077 75 253.42 75C251.764 75 250.42 76.7909 250.42 79C250.42 81.2091 251.764 83 253.42 83Z" fill="#212121"/>
<path opacity="0.34" d="M297.42 81L302.42 81.01" stroke="#FFAB91" stroke-width="6" stroke-linecap="round"/>
<path d="M213.228 26.6809L213.316 26.5829C220.193 18.916 226.59 16.4083 226.59 16.4083V16.4083C232.658 13.4434 241.867 10.6613 254.905 11.0336C281.737 11.7977 297.236 34.7723 297.236 34.7723L292.166 36.0784C302.811 51.8368 293.987 68 293.987 68C278.434 24.5323 233.177 28.6597 233.177 28.6597C233.177 28.6597 220.476 29.2735 214.3 36.3527C208.125 43.4319 201.707 67.5886 201.707 67.5886C201.707 67.5886 198.545 42.5372 213.228 26.6809Z" fill="#212121"/>
<path opacity="0.9" d="M260.413 60.1417C260.413 58.9424 258.336 55.6245 255.192 55.0729C253.516 54.801 251.815 55.296 250.44 56.456C249.652 57.0156 247.575 58.8545 248.797 59.9018C249.537 60.5334 249.883 59.2702 252.293 58.5986C254.703 57.9271 255.79 58.7745 257.725 60.1976C259.659 61.6207 260.237 60.7173 260.237 60.7173V60.7173C260.377 60.5749 260.444 60.3567 260.413 60.1417V60.1417Z" fill="#212121"/>
<path d="M183.103 186.552C183.103 186.552 210.334 195.762 229.136 185.204C247.937 174.645 242.913 144.357 259.873 147.186C276.834 150.014 263.798 188.921 234.841 200.157C205.884 211.393 176.42 194.414 176.42 194.414L183.103 186.552Z" fill="#AA5B3F"/>
<path d="M291.92 70C297.719 70 302.42 65.299 302.42 59.5C302.42 53.701 297.719 49 291.92 49C286.121 49 281.42 53.701 281.42 59.5C281.42 65.299 286.121 70 291.92 70Z" fill="#212121"/>
<path d="M279.92 55C285.719 55 290.42 50.299 290.42 44.5C290.42 38.701 285.719 34 279.92 34C274.121 34 269.42 38.701 269.42 44.5C269.42 50.299 274.121 55 279.92 55Z" fill="#212121"/>
<path d="M265.92 45C271.719 45 276.42 40.299 276.42 34.5C276.42 28.701 271.719 24 265.92 24C260.121 24 255.42 28.701 255.42 34.5C255.42 40.299 260.121 45 265.92 45Z" fill="#212121"/>
<path d="M251.92 35C257.719 35 262.42 30.299 262.42 24.5C262.42 18.701 257.719 14 251.92 14C246.121 14 241.42 18.701 241.42 24.5C241.42 30.299 246.121 35 251.92 35Z" fill="#212121"/>
<path d="M202.6 69C202.6 69 202.8 68.2627 203.17 67L202.42 67.1751C202.51 68.3641 202.6 69 202.6 69Z" fill="#212121"/>
<path d="M234.893 25C234.893 25 220.208 26.2729 213.822 33.6517C208.361 39.955 203.937 62.5544 202.42 68C207.29 66.6386 211.339 60.7982 211.339 55.6112C211.335 53.4909 210.72 51.4146 209.565 49.621C215.285 48.0589 218.852 42.4956 217.801 36.7762H217.982C222.355 36.7826 226.359 34.3788 228.333 30.5613C230.932 32.9688 234.522 34.0658 238.058 33.5334C241.595 33.001 244.682 30.8989 246.42 27.8385C242.47 27.3794 238.596 26.4254 234.893 25Z" fill="#212121"/>
<path d="M302.42 40C311.257 40 318.42 32.8366 318.42 24C318.42 15.1634 311.257 8 302.42 8C293.584 8 286.42 15.1634 286.42 24C286.42 32.8366 293.584 40 302.42 40Z" fill="#212121"/>
<path opacity="0.9" d="M229.445 97.6153C229.59 99.3099 232.868 103.686 237.345 103.99C239.724 104.112 242.054 103.155 243.855 101.315C244.909 100.398 247.641 97.4987 245.797 96.1849C244.685 95.4076 244.329 97.2499 241.005 98.5714C237.681 99.8929 236.055 98.8435 233.191 97.18C230.327 95.5164 229.597 96.8301 229.597 96.8301V96.8301C229.44 97.0463 229.383 97.3401 229.445 97.6153V97.6153Z" fill="#842D1C"/>
<path d="M254.42 80L250.42 75" stroke="#212121" stroke-width="2" stroke-linecap="round"/>
<path d="M222.42 80L218.42 75" stroke="#212121" stroke-width="2" stroke-linecap="round"/>
<mask id="mask0" mask-type="alpha" maskUnits="userSpaceOnUse" x="93" y="24" width="55" height="54">
<path fill-rule="evenodd" clip-rule="evenodd" d="M93.4204 24H147.42V78H93.4204V24Z" fill="white"/>
</mask>
<g mask="url(#mask0)">
<path fill-rule="evenodd" clip-rule="evenodd" d="M119.136 78C119.136 78 145.785 58.4972 147.137 47.0638C148.488 35.6303 145.068 24.1969 135.629 24.1969C126.189 24.1969 120.106 36.3047 120.106 36.3047C120.106 36.3047 115.22 22.1815 102.798 24.1969C90.3716 26.2161 90.2179 47.7382 102.798 60.5165C115.378 73.2949 119.136 78 119.136 78" fill="#EF5350"/>
</g>
</svg>
