<svg xmlns="http://www.w3.org/2000/svg" viewBox="0 0 486.41 471.69"><defs><style>.cls-1{fill:#ffdede;}.cls-2{fill:#424242;}.cls-3{fill:#212121;}.cls-4{fill:#ff8a65;}.cls-16,.cls-5{fill:#ff7043;}.cls-6{fill:#ffc1b0;}.cls-7{fill:#f99;}.cls-16,.cls-22,.cls-7,.cls-8{opacity:0.9;}.cls-8{fill:#e57373;}.cls-9{fill:#ea916a;}.cls-10{fill:#ffab91;}.cls-11{fill:#ffcc80;}.cls-12{fill:#d87a59;}.cls-13{fill:#ffecb3;}.cls-14{fill:#bc6246;}.cls-15,.cls-17,.cls-24{fill:none;stroke-linecap:round;stroke-miterlimit:10;}.cls-15{stroke:#d87a59;}.cls-15,.cls-17{stroke-width:6px;}.cls-17{stroke:#ffab91;}.cls-18{fill:#fc9d9d;}.cls-19{fill:#fff;}.cls-20{fill:#80cbc4;}.cls-21{fill:#2f8c7e;}.cls-22{fill:#ef5350;}.cls-23{fill:#b53535;}.cls-24{stroke:#212121;stroke-width:2px;}</style></defs><title>Asset 61</title><g id="Layer_2" data-name="Layer 2"><g id="Layer_1-2" data-name="Layer 1"><path class="cls-1" d="M477.51,131.61C485.91,83.31,416.62,25,350,7.05,239.93-22.66,6.4,39.9.28,225.46c-7.62,231.24,141.44,248.78,274.19,246a203.53,203.53,0,0,0,44.93-6.29q3.38-.76,7.23-1.94h0c7-2,13.85-4.29,20.62-6.89,93.42-34,123.29-84.1,117.22-111.77-5.79-26.36-43.88-67.22-51.55-74-.6-.52-2.5-2.21-3-1.6l-6.52,1.74c-7.16-12.37-11.23-25.81-8-41.78C405.32,180.13,470,174.88,477.51,131.61Z"/><path class="cls-2" d="M178.14,264.11c-.35-85.86-20.82-101.32-20.82-101.32l-9,13.91C126.72,155.16,93,131.4,65.68,156.06c-43.93,39.69-39.12,120.72-37.8,126,.78,3.13,29,2.53,51.71,1.53.1,0,98.08-1,98.55-3.75S178.14,264.11,178.14,264.11Z"/><path class="cls-3" d="M332.09,195.93s-10.25-47.43,7.47-60.29,28.84-3.47,28.84-3.47Z"/><path class="cls-4" d="M92.76,276.65s-2.42,20.85-9.7,27.7l11.28,14.73,13.88-6.67s4.31-20,2.15-34.55S92.76,276.65,92.76,276.65Z"/><path class="cls-5" d="M92.76,276.65s-1.51,13-5.71,21.79h0s4.72-9.47,23.32-8.4l.55,0a68.23,68.23,0,0,0-.55-12.22C108.22,263.31,92.76,276.65,92.76,276.65Z"/><path class="cls-6" d="M104.77,145.75h0c-32.35,0-58.55,26.44-58.52,60V221h-7a13.25,13.25,0,0,0,0,26.5H50c8.54,23.85,31,38.45,58.61,38.43,33.4,0,62.24-22.43,62.2-57.06V213.25C170.74,175.49,141.19,145.71,104.77,145.75Z"/><ellipse class="cls-3" cx="145.59" cy="232.2" rx="3.59" ry="4.85"/><circle class="cls-7" cx="84.37" cy="249.91" r="14.2"/><path class="cls-7" d="M155.22,239.36a12.16,12.16,0,0,1,11.92,9.73A53.11,53.11,0,0,1,159.25,263a12.14,12.14,0,1,1-4-23.6Z"/><path class="cls-8" d="M126.29,232.78a2.14,2.14,0,0,1,2,2.26v1a1.91,1.91,0,0,1-1.78,2,1.7,1.7,0,0,1-1.58-1.79v-1.93A1.45,1.45,0,0,1,126.29,232.78Z"/><ellipse class="cls-3" cx="100.79" cy="232.24" rx="3.59" ry="4.85"/><path class="cls-9" d="M278.37,358.62s-13.14,5.57-17.65,1.31,5.44-5.12,3.85-8-17,.64-19.36-4.71S252.7,344,252.7,344s-11.5-1.1-11.72-5.22,11.3-1.56,11.3-1.56-7.92-1.3-7-4.4,10.88.8,10.88.8-5.06-1.67-2.52-5.45,31.64,11.18,31.64,11.18S290.1,355.72,278.37,358.62Z"/><path class="cls-10" d="M220,401.57s13.87,3.35,17.63-1.59-6.21-4.16-5.11-7.26,16.86-2.15,18.33-7.81-7.92-2-7.92-2,11.17-3,10.72-7.06-11.41.31-11.41.31,7.6-2.58,6.21-5.49-10.6,2.57-10.6,2.57,4.71-2.47,1.59-5.79S210,383.69,210,383.69,207.91,400.63,220,401.57Z"/><path class="cls-11" d="M270.32,357.34c7.69-15.57,15.38-18.93,15.38-18.93s57.76,25.13,76.63-4.61c19.67-31,33-31.75,33-31.75h0a21.21,21.21,0,0,1,22.17,24.69h0s-7.58,44.32-54,62.08-99.66-8.07-99.66-8.07S262.64,372.91,270.32,357.34Z"/><path class="cls-12" d="M416.3,254.83S419,277.74,427,285.27l-12.4,16.19-15.25-7.33s-4.74-22-2.37-38S416.3,254.83,416.3,254.83Z"/><path class="cls-13" d="M462.15,367.33c-4-16.23-7.94-30.67-10.82-38.89-7.82-22.4-19.15-36.84-23.16-41.51l-.68-.78-.8-.88s-10.66,5.53-15.34,6.2-13.07-1.37-13.07-1.37c-26.24,22.18-36.81,129-39.46,161.7C422.22,426.34,453.22,393.36,462.15,367.33Z"/><path class="cls-14" d="M416.3,254.83s1.66,14.24,6.27,24h0s-5.19-10.42-25.63-9.24l-.6,0a77,77,0,0,1,.6-13.43C399.31,240.18,416.3,254.83,416.3,254.83Z"/><path class="cls-9" d="M404.65,113.21h0c35.55,0,64.35,29.06,64.32,65.92l0,16.8h7.65c8,0,9.81,5.63,9.81,8.94,0,5-1.56,11.5-9.6,11.49l-10.81.21c-9.39,26.21-35.21,50.73-65.54,50.7-36.72,0-68.41-24.64-68.37-62.71l0-17.17C332.15,145.9,364.62,113.18,404.65,113.21Z"/><ellipse class="cls-3" cx="358.24" cy="205.98" rx="3.95" ry="5.33"/><circle class="cls-14" cx="425.53" cy="225.45" r="15.6"/><path class="cls-14" d="M347.66,213.85a13.36,13.36,0,0,0-13.1,10.69,58,58,0,0,0,8.66,15.25,13.35,13.35,0,1,0,4.44-25.94Z"/><path class="cls-12" d="M379.45,206.62a2.36,2.36,0,0,0-2.21,2.49v1.06a2.1,2.1,0,0,0,2,2.22,1.87,1.87,0,0,0,1.74-2V208.3A1.59,1.59,0,0,0,379.45,206.62Z"/><path class="cls-3" d="M348.25,190.65c0-1.5,3.07-5.65,7.7-6.33a9.7,9.7,0,0,1,6.95,1.75c1.16.7,4.22,3,2.41,4.31-1.09.79-1.6-.79-5.14-1.64s-5.15.21-8,1.94-3.7.64-3.7.64h0C348.34,191.22,348.25,191,348.25,190.65Z"/><ellipse class="cls-3" cx="407.47" cy="206.03" rx="3.95" ry="5.33"/><line class="cls-15" x1="470.98" y1="206.03" x2="476.88" y2="206.03"/><path class="cls-3" d="M417.51,190.71c0-1.49-3.06-5.65-7.68-6.34a9.66,9.66,0,0,0-7,1.74c-1.16.7-4.23,3-2.42,4.31,1.09.79,1.6-.79,5.15-1.64s5.15.23,8,2,3.69.65,3.69.65h0A.75.75,0,0,0,417.51,190.71Z"/><path class="cls-16" d="M112.47,251c0,1.5,3,5.68,7.62,6.41a9.7,9.7,0,0,0,7-1.66c1.16-.69,4.25-2.95,2.46-4.29-1.08-.8-1.61.78-5.17,1.59s-5.15-.28-8-2-3.69-.69-3.69-.69h0A.78.78,0,0,0,112.47,251Z"/><path class="cls-3" d="M469,195.93s-30.14-13.71-36.12-42,0-34.11,0-34.11,38.94,3.58,41,34.11S469,195.93,469,195.93Z"/><path class="cls-3" d="M453,136.65s.14-38.64-37.51-41.19-70.2,12.76-72.12,40.84S453,136.65,453,136.65Z"/><line class="cls-17" x1="43.07" y1="234.27" x2="37.7" y2="234.27"/><path class="cls-18" d="M290.4,153.73c4.78-6.21,7.78-14.46,7.82-25.42.13-37.13-24.92-49.24-49.48-52.65-34.2-4.76-72,13.92-68.51,54.55,3.24,37.55,35.57,45.1,64.7,42.5,10.15-.91,22-2.87,32-8H297.7Z"/><path class="cls-19" d="M249.12,199.27c-22.1,3.07-44.64,14-44.53,47.38,0,8.45,2,15.09,5.3,20.35l-7.63,11.45h19.79c9.29,5.34,20.77,7.29,30.49,8.15,26.22,2.34,55.31-4.45,58.22-38.24C313.92,211.8,279.89,195,249.12,199.27Z"/><path class="cls-20" d="M96.89,310c-4.26-.6-14-5.63-14-5.63s-13.64,14.12-22.42,39.27c-3.91,11.19-9.9,35-15.34,58.05,25.9,31.78,60.94,49.59,99.91,59.28-1.56-21.27-10.8-130.65-36.3-152.21C108.78,308.74,101.15,310.59,96.89,310Z"/><path class="cls-21" d="M226.17,399.11c-5.37-16.51-12.5-20.94-12.5-20.94S148.29,398,138.49,362.62s-28.09-36.16-28.09-36.16h0A21.2,21.2,0,0,0,84.9,347.73h0s1.14,44.95,44.56,69.19,99.79,6.31,99.79,6.31S231.54,415.62,226.17,399.11Z"/><circle class="cls-22" cx="212.86" cy="124.05" r="4.56"/><circle class="cls-22" cx="236.24" cy="124.05" r="4.56"/><circle class="cls-22" cx="259.61" cy="124.05" r="4.56"/><circle class="cls-20" cx="236.24" cy="246.17" r="4.56"/><circle class="cls-20" cx="259.61" cy="246.17" r="4.56"/><circle class="cls-20" cx="282.99" cy="246.17" r="4.56"/><path class="cls-2" d="M170.25,202.12s3.9-56-59.27-59.49S40.39,210.4,40.39,210.4s46-2.65,58.26-9.69c10.29-5.91,16.64-25,18.42-31a1.13,1.13,0,0,1,1.93-.44c1.52,1.69,2.42,4.7,2.56,9.33.23,7.11-4.87,19.64,1.35,20s7.69-11.32,7.63-18.18c0-4.72,0-9.21,0-11.55a.84.84,0,0,1,1.36-.66c4.27,3.32,15.52,14.3,22.79,24.41C162.76,203.88,170.25,202.12,170.25,202.12Z"/><path class="cls-23" d="M396.28,223.89c-2.39,5-7,8.3-12.35,8.31s-10-3.34-12.37-8.29Z"/><path class="cls-2" d="M111,142.63S43.07,135,32.45,218.39"/><path class="cls-3" d="M157,210.75c0-1.55-3.18-5.84-8-6.54a10,10,0,0,0-7.2,1.8c-1.2.73-4.36,3.1-2.49,4.46,1.13.82,1.65-.82,5.32-1.7s5.33.23,8.26,2,3.82.67,3.82.67h0A.82.82,0,0,0,157,210.75Z"/><path class="cls-3" d="M89.35,210.82c0-1.55,3.16-5.85,8-6.56a10,10,0,0,1,7.19,1.79c1.2.73,4.38,3.09,2.51,4.46-1.13.82-1.66-.82-5.33-1.69s-5.33.23-8.25,2-3.82.68-3.82.68h0A.77.77,0,0,1,89.35,210.82Z"/><line class="cls-24" x1="145.59" y1="231.44" x2="149.38" y2="225.58"/><line class="cls-24" x1="100.81" y1="231.44" x2="104.59" y2="225.58"/></g></g></svg>