<svg xmlns="http://www.w3.org/2000/svg" viewBox="0 0 529.13 348.19"><defs><style>.cls-1{isolation:isolate;}.cls-2{fill:#ffdede;}.cls-3{fill:#f97a7a;}.cls-4{fill:#ffcc80;}.cls-5{fill:#f9b75f;}.cls-6{fill:#424242;}.cls-25,.cls-7{fill:#f99;}.cls-7{opacity:0.9;}.cls-12,.cls-8{fill:#80cbc4;}.cls-11,.cls-9{fill:#fca2a2;}.cls-10{fill:#fff;}.cls-11,.cls-12,.cls-13{mix-blend-mode:multiply;}.cls-13,.cls-15{fill:#ffecb3;}.cls-14{fill:#d87755;}.cls-16{fill:#c1c1c1;}.cls-17{fill:#5b5b5b;}.cls-18{fill:#d87a59;}.cls-19{fill:#ea916a;}.cls-20{fill:#212121;}.cls-21{fill:#b53535;}.cls-22{fill:#bc6246;}.cls-23{fill:#843e28;}.cls-24{fill:#2f8c7e;}.cls-26{fill:#ffba5f;}</style></defs><title>Asset 53</title><g class="cls-1"><g id="Layer_2" data-name="Layer 2"><g id="Layer_1-2" data-name="Layer 1"><path class="cls-2" d="M518.19,179.64c21-59.4,11.17-121.9-24-154.43-44-40.75-112.31-22.29-130.08-12-43.73,25.43-44.89,38.29-84.87,52.81C200.61,94.61,114.62,18.73,49,45.33,5.52,63,.14,114.82,0,159.89c-.35,110.27,139.28,189,269.31,188.3C377.13,347.63,472.66,303.09,518.19,179.64Z"/><path class="cls-3" d="M175.26,124.47C175.41,82,146.77,68.2,118.71,64.3c-39.09-5.44-82.31,15.91-78.3,62.35,3.7,42.92,40.64,51.54,74,48.58C139.94,173,175.12,164.84,175.26,124.47Z"/><polygon class="cls-3" points="147.13 166.05 174.66 166.05 160.9 145.4 147.13 166.05"/><rect class="cls-4" x="222.11" y="277.27" width="168.67" height="21.52" rx="0.04" ry="0.04" transform="translate(0.49 -0.52) rotate(0.1)"/><path class="cls-5" d="M390.77,290.56l-168.5-.28a2.5,2.5,0,0,1-2.54-2.19,2.39,2.39,0,0,1,2.38-2.6l168.5.29a2.5,2.5,0,0,1,2.55,2.18A2.39,2.39,0,0,1,390.77,290.56Z"/><path class="cls-6" d="M390.81,277.43h10.72a10.76,10.76,0,0,1,10.76,10.76v0a10.76,10.76,0,0,1-10.76,10.76H390.81a0,0,0,0,1,0,0V277.47a0,0,0,0,1,0,0Z" transform="translate(0.49 -0.68) rotate(0.1)"/><rect class="cls-7" x="395.77" y="277.42" width="3.73" height="21.52" rx="0.04" ry="0.04" transform="translate(0.49 -0.67) rotate(0.1)"/><path class="cls-6" d="M222.06,277.17l-15.62,10.65a0,0,0,0,0,0,.07L222,298.6s.06,0,.06,0l0-21.37A0,0,0,0,0,222.06,277.17Z"/><rect class="cls-8" x="117.23" y="230.84" width="74" height="23.46" rx="1.18" ry="1.18" transform="translate(-59.13 435.2) rotate(-99.63)"/><circle class="cls-9" cx="154.24" cy="242.57" r="28.48"/><circle class="cls-10" cx="154.24" cy="242.57" r="22.49"/><path class="cls-8" d="M163.64,251l-11.76-4.48a2.29,2.29,0,0,1-1.43-2.51l2.85-16.42,4.47.77-2.53,14.58,10,3.82Z"/><circle class="cls-11" cx="396.5" cy="75.65" r="26.78"/><circle class="cls-12" cx="376.52" cy="102.43" r="26.78"/><circle class="cls-13" cx="418.32" cy="102.43" r="26.78"/><path class="cls-14" d="M445.21,214.41s-4.34,5.16-5,8.61.67,11.45.67,11.45.55-8.79,1.22-11.45S445.21,214.41,445.21,214.41Z"/><rect class="cls-6" x="380.64" y="157.63" width="71.37" height="91.88" rx="8.26" ry="8.26"/><rect class="cls-10" x="387.21" y="166.89" width="58.22" height="71.81" rx="3.07" ry="3.07"/><rect class="cls-9" x="393.42" y="186.91" width="20.98" height="20.98"/><rect class="cls-8" x="418.25" y="186.91" width="20.98" height="20.98"/><rect class="cls-15" x="393.42" y="211.04" width="20.98" height="20.98"/><rect class="cls-4" x="418.25" y="211.04" width="20.98" height="20.98"/><rect class="cls-16" x="393.42" y="179.8" width="35.32" height="2.42" rx="1.21" ry="1.21"/><rect class="cls-16" x="393.42" y="174.4" width="19.56" height="2.45" rx="1.22" ry="1.22"/><circle class="cls-17" cx="416.32" cy="244.05" r="2.38"/><rect class="cls-18" x="309.36" y="193.27" width="40.38" height="23.2" rx="11.6" ry="11.6"/><rect class="cls-18" x="196.04" y="193.27" width="40.38" height="23.2" rx="11.6" ry="11.6"/><path class="cls-19" d="M213.12,220.9c8.78,24.49,31.85,39.49,60.2,39.47,34.31,0,63.92-23,63.89-58.61l0-16c0-38.79-21.28-69.37-58.69-69.34h-9.1c-33.23,0-60.14,27.16-60.11,61.6l0,15.71A101.17,101.17,0,0,0,213.12,220.9Z"/><ellipse class="cls-20" cx="302.12" cy="204.31" rx="4.53" ry="6.12"/><path class="cls-21" d="M288.17,228.1c-2.57,5.32-7.55,8.93-13.28,8.94s-10.72-3.6-13.29-8.91Z"/><path class="cls-18" d="M272.7,208.12a2.72,2.72,0,0,1,2.54,2.86v1.22a2.42,2.42,0,0,1-2.25,2.55,2.14,2.14,0,0,1-2-2.26v-2.44A1.82,1.82,0,0,1,272.7,208.12Z"/><ellipse class="cls-20" cx="245.56" cy="204.36" rx="4.53" ry="6.12"/><path class="cls-20" d="M313.59,180.59c0-1.71-3.53-6.48-8.84-7.26a11.15,11.15,0,0,0-8,2c-1.33.81-4.85,3.45-2.77,5,1.25.91,1.84-.91,5.91-1.89s5.92.25,9.17,2.23,4.24.74,4.24.74h0A.89.89,0,0,0,313.59,180.59Z"/><path class="cls-20" d="M234,183.19c0-1.71,3.51-6.48,8.83-7.28a11.16,11.16,0,0,1,8,2c1.33.81,4.85,3.44,2.78,4.95-1.25.92-1.84-.9-5.92-1.87s-5.92.26-9.16,2.24-4.25.75-4.25.75h0A.87.87,0,0,1,234,183.19Z"/><circle class="cls-22" cx="315.69" cy="221.79" r="12.22"/><circle class="cls-22" cx="231.93" cy="221.79" r="12.22"/><path class="cls-23" d="M338.14,193.27s-26.81-21.18-28.78-47.09,36.88-18.75,34.2,8S338.14,193.27,338.14,193.27Z"/><path class="cls-23" d="M209,193.27s26.81-21.18,28.79-47.09-36.88-18.75-34.2,8S209,193.27,209,193.27Z"/><path class="cls-23" d="M327.91,134.87s3.28-33.64-45.07-36.44-65.18,22.07-65.18,36.44S324.28,152.74,327.91,134.87Z"/><circle class="cls-10" cx="84.33" cy="122.6" r="4.56"/><circle class="cls-10" cx="107.7" cy="122.6" r="4.56"/><circle class="cls-10" cx="131.08" cy="122.6" r="4.56"/><path class="cls-8" d="M467.14,274.94l-32,1s-1.59,23.5,2.87,28.52,34.49-1,34.49-1S465.92,297.89,467.14,274.94Z"/><path class="cls-24" d="M467,281.75c0-2.09,0-4.33.13-6.81l-32,1s-.2,2.87-.26,6.81Z"/><path class="cls-25" d="M94.24,204.2h-32s-1.58,23.5,2.87,28.52,34.49,0,34.49,0S93,227.15,94.24,204.2Z"/><path class="cls-3" d="M94.1,211c0-2.09,0-4.33.12-6.82h-32S62,207.07,62,211Z"/><path class="cls-25" d="M509.34,127.16h-32s-1.58,23.5,2.87,28.52,34.49,0,34.49,0S508.13,150.1,509.34,127.16Z"/><path class="cls-3" d="M509.2,134c0-2.09,0-4.33.12-6.81h-32s-.19,2.87-.25,6.81Z"/><path class="cls-4" d="M222.76,60.27h-32s-1.59,23.5,2.87,28.52,34.49,0,34.49,0S221.54,83.22,222.76,60.27Z"/><path class="cls-26" d="M222.62,67.08c0-2.09,0-4.33.12-6.81h-32s-.2,2.87-.26,6.81Z"/></g></g></g></svg>