<svg xmlns="http://www.w3.org/2000/svg" viewBox="0 0 782.62 797.18"><defs><style>.cls-1{fill:#e0f2f1;}.cls-2{fill:#80cbc4;}.cls-3{fill:#fff;}.cls-4{fill:#2f8c7e;}.cls-5{fill:#ffab91;}.cls-16,.cls-6{fill:#ef5350;}.cls-7{fill:#424242;}.cls-8{fill:#54afa4;}.cls-9{fill:#ffcc80;}.cls-10{fill:#ff8a65;}.cls-11{fill:#ffccbc;}.cls-12{fill:#ffecb3;}.cls-13,.cls-15{fill:#ff7043;}.cls-14{fill:#212121;}.cls-14,.cls-15,.cls-16,.cls-17{opacity:0.9;}.cls-17{fill:#e57373;}.cls-18{fill:none;stroke:#ffab91;stroke-linecap:round;stroke-miterlimit:10;stroke-width:6px;opacity:0.34;}</style></defs><title>Asset 48</title><g id="Layer_2" data-name="Layer 2"><g id="Layer_1-2" data-name="Layer 1"><path class="cls-1" d="M636.91,98.6C572.59,47.22,494.35,16.28,412.41,8.36,130.49-18.9,48.41,25.25,27.28,72.58-4.18,143,102.85,212.66,94.85,368.23,87.46,512.09-9,549.9,12.49,632.21c31,118.5,275.5,209.91,473.05,141.49C651.83,716.11,815.35,534.71,777,326,760.54,236.66,709.78,156.8,636.91,98.6Z"/><path class="cls-2" d="M12.64,632.21c13.09,50,64.18,95.17,133.71,125.56H524.5c56.49-26.28,110.79-66.23,154.87-116l-669-20.74A99.22,99.22,0,0,0,12.64,632.21Z"/><path class="cls-3" d="M668.14,206.12s-7.57-76.18-70.27-74.29-59.15,63.67-59.15,63.67S466,162,446.85,205.72s34,51.88,87.63,40.26,228.62,28.26,215.84-35.92S668.14,206.12,668.14,206.12Z"/><path class="cls-3" d="M458.07,112.71S454.83,80.16,428,81s-25.27,27.21-25.27,27.21-31.11-14.3-39.27,4.38,14.51,22.17,37.45,17.2,97.72,12.08,92.25-15.35S458.07,112.71,458.07,112.71Z"/><path class="cls-4" d="M173.31,591.48h0c1.36-1.91,2.69-3.85,4-5.81,16.84-25.77,24.74-43.3,28.32-52.92a72.41,72.41,0,0,0,4.8-13.65h0c18.66-52.39,8.56-73-11.92-81.76s-41,24.27-41,24.27h0a31.08,31.08,0,0,0-2.13,4c-8.65,19.13-5.62,55.17-5.62,55.17s-2.56,20.46-11.47,39.32h0s-14,26.78,2.37,41.5S173.3,591.49,173.31,591.48Z"/><rect class="cls-5" x="63.1" y="617.63" width="33.42" height="44.74" transform="translate(624.78 295.08) rotate(64.78)"/><rect class="cls-6" x="33.96" y="641.4" width="33.42" height="24.63" transform="translate(620.48 329.31) rotate(64.78)"/><path class="cls-7" d="M42.53,662.26s10.17-7.51,14.12,4.93-18.42,12.94-18.06,19.55,21.21,23.67,10.55,32-16.66.37-21-6.13S-.44,663.91,1.89,656.05s7.49-6.78,15.29-9.95,18.55-10,23.29.09,2.06,16.07,2.06,16.07"/><path class="cls-1" d="M50.2,720.45c5.24-4.08,2.6-10.7-1.48-17.16-.11-.16-3.19-4.37-11.89-3.93a39.23,39.23,0,0,0-8.31,1.2c-2.85-5.13-8.42-15.42-12.55-24.84a205.31,205.31,0,0,1-9.09-26.11,10.6,10.6,0,0,0-6.73,7.26c-1.87,6.35,13.83,35.06,22.22,49.3h0l.14.25.47.79.33.55.43.72.33.56.57.94c.14.22.28.45.4.66l.27.43c.11.18.22.37.33.53l.1.17h0c.42.67.77,1.22,1,1.63C31.1,719.9,39.53,728.74,50.2,720.45Z"/><circle class="cls-3" cx="23.81" cy="657.61" r="6.92"/><path class="cls-3" d="M55.19,685.06c1.09-5.13-8.87-7.67-11.5-8.24C40.6,666.72,31.75,661.53,30.4,668c-1.21,5.72,10,8.52,12.79,9.13C46,686.2,54,690.87,55.19,685.06ZM34.24,669.39c.16-2,4.71.8,6.94,5.27C41.18,674.66,34.09,671.42,34.24,669.39ZM45.45,679s6.41,2.92,6.27,4.76S47.46,683.05,45.45,679Z"/><path class="cls-4" d="M171.81,593.61h0s8.48-24.94-8.12-33.29-26.3,1.73-26.3,1.73c-10.56,19.85-56.71,49.17-56.71,49.17s.69,16.71,7.59,27.53a218.11,218.11,0,0,0,13.63,19S143.81,631.62,171.81,593.61Z"/><path class="cls-8" d="M288.58,550.64h0q-1.17-3.32-2.49-6.58c-11.54-28.54-21.41-45-27.27-53.46a71.62,71.62,0,0,0-8.47-11.74h0c-32.34-45.24-55-48.69-73.91-36.91S173,489.44,173,489.44h0a31.68,31.68,0,0,0,2,4c10.77,18,42.08,36.12,42.08,36.12s15.33,13.79,25.72,31.87h0s14,26.77,35.42,21.76S288.59,550.65,288.58,550.64Z"/><rect class="cls-5" x="258.31" y="632.74" width="33.42" height="44.74" transform="translate(113.18 -36.71) rotate(9.61)"/><rect class="cls-6" x="252.93" y="674.54" width="33.42" height="24.63" transform="matrix(0.99, 0.17, -0.17, 0.99, 118.4, -35.37)"/><path class="cls-7" d="M272,698.42s-.36-12.63,12.11-8.77.1,22.5,5.73,26,31.54-3.9,32.26,9.59-9.22,13.88-17,13.72-56.26-4.31-61.39-10.71-1.29-10,.56-18.24,2.4-20.93,13.38-19.07S272,698.42,272,698.42"/><path class="cls-1" d="M324.14,725.36c-.35-6.63-7.29-8.25-14.93-8.59-.19,0-5.4.13-10,7.52a38.23,38.23,0,0,0-3.76,7.5c-5.85-.58-17.47-1.89-27.56-3.88a206.89,206.89,0,0,1-26.63-7.45,10.57,10.57,0,0,0,2.12,9.66c4.14,5.17,36.68,8.68,53.16,9.93h0l.29,0,.91.07.64.05.83,0,.65,0,1.1.07.78,0,.5,0,.63,0h.2c.78,0,1.44.06,1.92.07C312.79,740.72,324.86,738.85,324.14,725.36Z"/><circle class="cls-3" cx="257.49" cy="711.13" r="6.92"/><path class="cls-3" d="M297.94,701c-3.59-3.81-11.36,2.92-13.33,4.74-10.05-3.23-19.37,1.07-14.86,5.86,4,4.26,12.7-3.33,14.8-5.29C293.62,709.25,302,705.37,297.94,701Zm-24.82,8.25c-1.58-1.29,3.34-3.41,8.28-2.68C281.4,706.61,274.7,710.58,273.12,709.29Zm14.3-3.7s6.05-3.59,7.48-2.42S291.88,706.25,287.42,705.59Z"/><path class="cls-8" d="M289.48,553.09h0s-15.63-21.21-32-12.35-13.6,22.58-13.6,22.58c10.26,20,8,74.64,8,74.64s14.11,9,26.94,9.49a221.67,221.67,0,0,0,23.4-.32S304.69,597.79,289.48,553.09Z"/><path class="cls-7" d="M294.41,194.82l-9.46,10-19.09-35.55L234.4,204.18c4.19-34.4,3.61-60.15-7.44-60.33-33.45-.53-82.18,9.71-89.71,85.18C128.82,313.55,79.07,349.3,79.07,349.3c21.47,25.68,55.06,32.57,78.79,33.94l.08.81c1.79-.18,3.55-.38,5.3-.59a148.45,148.45,0,0,0,22.48-.95L197.94,379l.74-2.8C235.36,365,258.49,345.09,273,323.33h0a133.64,133.64,0,0,0,14.55-29.13C308.08,240.81,294.41,194.82,294.41,194.82Z"/><path class="cls-5" d="M88.9,423.74s-11.37,8.62-16.79,5.6,4-6.3,1.78-8.7-16.31,4.79-19.93.19,6.47-5,6.47-5S49,417.62,47.78,413.68s10.58-4.28,10.58-4.28-8,.67-7.89-2.55S61.22,405,61.22,405s-5.32-.37-3.78-4.66,33.41,3.07,33.41,3.07S99.56,418.05,88.9,423.74Z"/><path class="cls-5" d="M353.6,366.79s14.12-2.07,15.75-8.06-7.31-1.54-7.45-4.82,14.84-8.29,14.09-14.1-8.08,1.15-8.08,1.15,9.26-6.92,7.3-10.56S364.75,335,364.75,335s6.08-5.24,3.7-7.42-8.87,6.35-8.87,6.35,3.45-4.05-.68-6-21.21,26-21.21,26S342.08,370.42,353.6,366.79Z"/><path class="cls-9" d="M80.85,420.43c3.62-17,10.26-22.12,10.26-22.12S153.27,408.5,164.27,375c11.46-34.86,24.2-38.87,24.2-38.87h0A21.22,21.22,0,0,1,216,354.68h0s3.52,44.82-37.15,73.43-98.6,16.63-98.6,16.63S77.22,437.41,80.85,420.43Z"/><path class="cls-10" d="M210.55,287.64s-2.66,22.91-10.66,30.44l12.4,16.19,15.25-7.33s4.74-22,2.37-38S210.55,287.64,210.55,287.64Z"/><circle class="cls-11" cx="268.81" cy="392.54" r="21.22"/><path class="cls-12" d="M228.3,322.9s-8.39,2-13.07,1.38-15.34-6.2-15.34-6.2-15,15.52-24.64,43.17S144.39,486.8,144.39,486.8s33.67,11,64,12,60.11-4.67,60.11-4.67S259.38,349.17,228.3,322.9Z"/><path class="cls-9" d="M348.45,361.11C337.3,347.8,329,346.36,329,346.36S275.79,389.17,253.48,360s-39.57-23-39.57-23v0a21.22,21.22,0,0,0-15.69,29.24h0s17.86,41.26,67.19,47.52,94.92-31.44,94.92-31.44S359.6,374.42,348.45,361.11Z"/><path class="cls-13" d="M210.55,287.64s-1.66,14.24-6.27,23.95h0s5.19-10.41,25.63-9.23l.6,0a76,76,0,0,0-.6-13.42C227.54,273,210.55,287.64,210.55,287.64Z"/><path class="cls-5" d="M223.75,143.78h0c-35.55,0-64.35,29.06-64.32,65.92l0,16.8H151.8a14.56,14.56,0,1,0,0,29.11h11.7c9.39,26.21,34.08,42.27,64.41,42.24,36.72,0,68.4-24.64,68.37-62.71l0-17.17C296.25,176.47,263.78,143.74,223.75,143.78Z"/><ellipse class="cls-14" cx="268.61" cy="238.79" rx="3.95" ry="5.33"/><path class="cls-15" d="M252.07,254.14c-2.23,4.63-6.57,7.77-11.56,7.78s-9.32-3.13-11.57-7.76Z"/><circle class="cls-16" cx="201.32" cy="258.25" r="15.6"/><path class="cls-16" d="M279.19,246.66a13.35,13.35,0,0,1,13.1,10.69,57.77,57.77,0,0,1-8.66,15.24,13.14,13.14,0,0,1-4.41.77,13.35,13.35,0,0,1,0-26.7Z"/><path class="cls-17" d="M247.4,239.42a2.37,2.37,0,0,1,2.21,2.5V243a2.1,2.1,0,0,1-2,2.21,1.86,1.86,0,0,1-1.74-2v-2.12A1.6,1.6,0,0,1,247.4,239.42Z"/><path class="cls-14" d="M278.6,210.45c0-1.49-3.07-5.64-7.7-6.32a9.7,9.7,0,0,0-6.95,1.74c-1.16.71-4.22,3-2.41,4.32,1.09.79,1.6-.79,5.14-1.65s5.16.22,8,1.94,3.7.65,3.7.65h0A.78.78,0,0,0,278.6,210.45Z"/><ellipse class="cls-14" cx="219.38" cy="238.84" rx="3.95" ry="5.33"/><line class="cls-18" x1="155.94" y1="241.06" x2="150.04" y2="241.07"/><path class="cls-7" d="M279.2,163.28l-.13-.15c-10.2-11.74-19.68-15.58-19.68-15.58h0c-9-4.54-22.65-8.8-42-8.23-39.8,1.17-62.78,36.36-62.78,36.36l15.91-4.93c-15.79,24.13-11.1,55.75-11.1,55.75,77.39,2.72,90.16-60.19,90.16-60.19a143.26,143.26,0,0,1,20.18,19.15C279,196.31,296.3,226,296.3,226S301,187.56,279.2,163.28Z"/><path class="cls-14" d="M209.34,210.52c0-1.5,3.06-5.65,7.68-6.34a9.71,9.71,0,0,1,7,1.73c1.16.7,4.23,3,2.42,4.31-1.09.8-1.6-.79-5.15-1.63s-5.15.22-8,1.95-3.69.65-3.69.65h0A.73.73,0,0,1,209.34,210.52Z"/></g></g></svg>