<?xml version="1.0" encoding="UTF-8"?>
<svg width="936px" height="170px" viewBox="0 0 936 170" version="1.1" xmlns="http://www.w3.org/2000/svg" xmlns:xlink="http://www.w3.org/1999/xlink">
    <!-- Generator: Sketch 60 (88103) - https://sketch.com -->
    <title>Group 31</title>
    <desc>Created with Sketch.</desc>
    <defs>
        <polygon id="path-1" points="0 169.974 935.358 169.974 935.358 0 0 0"></polygon>
    </defs>
    <g id="Page-1" stroke="none" stroke-width="1" fill="none" fill-rule="evenodd">
        <g id="v3-home" transform="translate(-492.000000, -878.000000)">
            <g id="Group-31" transform="translate(492.000000, 878.000000)">
                <path d="M199.4855,83.2629 C206.7655,83.2629 212.3515,81.5329 216.2485,78.0669 C220.1425,74.5999 222.0915,69.9779 222.0915,64.2009 L222.0915,63.8189 C222.0915,57.4009 220.0475,52.5869 215.9615,49.3779 C211.8725,46.1689 206.1905,44.5649 198.9115,44.5649 L169.5995,44.5649 L169.5995,83.2629 L199.4855,83.2629 Z M140.0975,17.9359 L201.4015,17.9359 C218.3855,17.9359 231.4125,22.4709 240.4825,31.5379 C248.1455,39.2009 251.9765,49.4199 251.9765,62.1899 L251.9765,62.5729 C251.9765,73.4299 249.3245,82.2749 244.0265,89.1059 C238.7255,95.9399 231.7965,100.9539 223.2405,104.1449 L256.0005,152.0379 L221.5165,152.0379 L192.7805,109.1259 L192.3975,109.1259 L169.5995,109.1259 L169.5995,152.0379 L140.0975,152.0379 L140.0975,17.9359 Z" id="Fill-1" fill="#000000"></path>
                <polygon id="Fill-3" fill="#000000" points="0.0002 152.0378 56.5682 17.9358 84.2592 17.9358 140.2342 152.0378 109.7742 152.0378 70.1172 54.9228 29.8662 152.0378"></polygon>
                <line x1="299.7082" y1="0.9871" x2="299.7082" y2="168.9871" id="Stroke-5" stroke="#000000" stroke-width="1.974" stroke-linecap="square"></line>
                <path d="M375.1105,89.5954 L367.3665,71.6754 L359.6865,89.5954 L375.1105,89.5954 Z M363.8455,62.2674 L371.1425,62.2674 L390.8545,107.3874 L382.5345,107.3874 L377.9905,96.5714 L356.8055,96.5714 L352.1985,107.3874 L344.1335,107.3874 L363.8455,62.2674 Z" id="Fill-7" fill="#000000"></path>
                <path d="M416.8381,108.155 C413.5521,108.155 410.5231,107.557 407.7501,106.364 C404.9761,105.17 402.5691,103.538 400.5301,101.467 C398.4911,99.399 396.8921,96.956 395.7311,94.139 C394.5691,91.323 393.9891,88.315 393.9891,85.116 L393.9891,84.987 C393.9891,81.788 394.5591,78.79 395.6981,75.995 C396.8381,73.202 398.4381,70.747 400.4991,68.635 C402.5591,66.524 404.9981,64.86 407.8141,63.643 C410.6301,62.427 413.7431,61.819 417.1571,61.819 C419.2061,61.819 421.0711,61.991 422.7581,62.331 C424.4421,62.674 425.9891,63.153 427.3981,63.771 C428.8061,64.39 430.1071,65.126 431.3021,65.979 C432.4961,66.833 433.6271,67.771 434.6931,68.796 L429.6381,74.62 C427.8461,72.956 425.9461,71.612 423.9421,70.588 C421.9361,69.563 419.6531,69.051 417.0941,69.051 C414.9601,69.051 412.9861,69.467 411.1741,70.3 C409.3591,71.132 407.7921,72.262 406.4701,73.692 C405.1471,75.122 404.1231,76.796 403.3981,78.716 C402.6721,80.635 402.3101,82.683 402.3101,84.86 L402.3101,84.987 C402.3101,87.163 402.6721,89.222 403.3981,91.163 C404.1231,93.105 405.1471,94.801 406.4701,96.251 C407.7921,97.702 409.3591,98.843 411.1741,99.675 C412.9861,100.508 414.9601,100.924 417.0941,100.924 C419.8231,100.924 422.1711,100.401 424.1341,99.355 C426.0961,98.31 428.0381,96.891 429.9581,95.099 L435.0141,100.219 C433.8611,101.458 432.6551,102.555 431.3981,103.515 C430.1391,104.475 428.7831,105.307 427.3341,106.011 C425.8831,106.716 424.2941,107.249 422.5661,107.612 C420.8381,107.973 418.9281,108.155 416.8381,108.155" id="Fill-9" fill="#000000"></path>
                <path d="M464.0695,108.155 C460.7835,108.155 457.7545,107.557 454.9815,106.364 C452.2075,105.17 449.8005,103.538 447.7615,101.467 C445.7225,99.399 444.1235,96.956 442.9625,94.139 C441.8005,91.323 441.2205,88.315 441.2205,85.116 L441.2205,84.987 C441.2205,81.788 441.7905,78.79 442.9295,75.995 C444.0695,73.202 445.6695,70.747 447.7305,68.635 C449.7905,66.524 452.2295,64.86 455.0455,63.643 C457.8615,62.427 460.9745,61.819 464.3885,61.819 C466.4375,61.819 468.3025,61.991 469.9895,62.331 C471.6735,62.674 473.2205,63.153 474.6295,63.771 C476.0375,64.39 477.3385,65.126 478.5335,65.979 C479.7275,66.833 480.8585,67.771 481.9245,68.796 L476.8695,74.62 C475.0775,72.956 473.1775,71.612 471.1735,70.588 C469.1675,69.563 466.8845,69.051 464.3255,69.051 C462.1915,69.051 460.2175,69.467 458.4055,70.3 C456.5905,71.132 455.0235,72.262 453.7015,73.692 C452.3785,75.122 451.3545,76.796 450.6295,78.716 C449.9035,80.635 449.5415,82.683 449.5415,84.86 L449.5415,84.987 C449.5415,87.163 449.9035,89.222 450.6295,91.163 C451.3545,93.105 452.3785,94.801 453.7015,96.251 C455.0235,97.702 456.5905,98.843 458.4055,99.675 C460.2175,100.508 462.1915,100.924 464.3255,100.924 C467.0545,100.924 469.4025,100.401 471.3655,99.355 C473.3275,98.31 475.2695,96.891 477.1895,95.099 L482.2455,100.219 C481.0925,101.458 479.8865,102.555 478.6295,103.515 C477.3705,104.475 476.0145,105.307 474.5655,106.011 C473.1145,106.716 471.5255,107.249 469.7975,107.612 C468.0695,107.973 466.1595,108.155 464.0695,108.155" id="Fill-11" fill="#000000"></path>
                <polygon id="Fill-13" fill="#000000" points="490.4367 62.5876 523.5887 62.5876 523.5887 69.6916 498.2447 69.6916 498.2447 81.2116 520.7087 81.2116 520.7087 88.3156 498.2447 88.3156 498.2447 100.2836 523.9087 100.2836 523.9087 107.3876 490.4367 107.3876"></polygon>
                <polygon id="Fill-15" fill="#000000" points="533.3166 62.5876 541.1246 62.5876 541.1246 100.2836 564.6766 100.2836 564.6766 107.3876 533.3166 107.3876"></polygon>
                <path d="M611.4953,84.7956 C614.3193,84.7956 616.5653,84.1216 618.2353,82.7716 C619.9033,81.4216 620.7393,79.5896 620.7393,77.2756 L620.7393,77.1476 C620.7393,74.7056 619.9253,72.8516 618.2983,71.5876 C616.6733,70.3226 614.3823,69.6916 611.4293,69.6916 L599.9383,69.6916 L599.9383,84.7956 L611.4953,84.7956 Z M592.1313,62.5876 L612.0993,62.5876 C614.9153,62.5876 617.4113,62.9836 619.5873,63.7716 C621.7633,64.5616 623.5753,65.6586 625.0263,67.0666 C626.2203,68.3056 627.1383,69.7346 627.7783,71.3556 C628.4193,72.9776 628.7393,74.7696 628.7393,76.7316 L628.7393,76.8596 C628.7393,78.6936 628.4723,80.3476 627.9383,81.8186 C627.4053,83.2916 626.6693,84.5936 625.7313,85.7236 C624.7923,86.8546 623.6713,87.8146 622.3703,88.6036 C621.0693,89.3936 619.6283,90.0006 618.0503,90.4276 L630.1473,107.3876 L620.8663,107.3876 L609.8253,91.7716 L609.6963,91.7716 L599.9383,91.7716 L599.9383,107.3876 L592.1313,107.3876 L592.1313,62.5876 Z" id="Fill-17" fill="#000000"></path>
                <path d="M659.9064,100.9236 C662.1154,100.9236 664.1444,100.5076 665.9924,99.6756 C667.8414,98.8436 669.4234,97.7136 670.7394,96.2836 C672.0564,94.8546 673.0874,93.1796 673.8314,91.2596 C674.5744,89.3396 674.9464,87.2916 674.9464,85.1156 L674.9464,84.9866 C674.9464,82.8116 674.5744,80.7536 673.8314,78.8116 C673.0874,76.8696 672.0464,75.1856 670.7084,73.7556 C669.3694,72.3266 667.7654,71.1856 665.8964,70.3306 C664.0264,69.4786 661.9874,69.0516 659.7784,69.0516 C657.5684,69.0516 655.5414,69.4676 653.6924,70.2996 C651.8444,71.1316 650.2614,72.2626 648.9444,73.6926 C647.6284,75.1216 646.5974,76.7956 645.8534,78.7156 C645.1094,80.6356 644.7384,82.6836 644.7384,84.8606 L644.7384,84.9866 C644.7384,87.1626 645.1094,89.2226 645.8534,91.1626 C646.5974,93.1056 647.6384,94.7896 648.9764,96.2196 C650.3144,97.6496 651.9194,98.7896 653.7894,99.6436 C655.6574,100.4966 657.6964,100.9236 659.9064,100.9236 M659.7784,108.1546 C656.3224,108.1546 653.1654,107.5476 650.3064,106.3306 C647.4474,105.1156 644.9944,103.4626 642.9464,101.3716 C640.8984,99.2816 639.2994,96.8386 638.1464,94.0436 C636.9944,91.2486 636.4194,88.2746 636.4194,85.1156 L636.4194,84.9866 C636.4194,81.8306 636.9944,78.8546 638.1464,76.0596 C639.2994,73.2656 640.9204,70.8116 643.0104,68.6996 C645.1004,66.5876 647.5754,64.9126 650.4344,63.6756 C653.2934,62.4386 656.4504,61.8196 659.9064,61.8196 C663.3624,61.8196 666.5194,62.4276 669.3794,63.6436 C672.2364,64.8606 674.6904,66.5136 676.7384,68.6036 C678.7864,70.6946 680.3864,73.1376 681.5394,75.9316 C682.6904,78.7266 683.2664,81.7016 683.2664,84.8606 L683.2664,84.9866 C683.2664,88.1456 682.6904,91.1216 681.5394,93.9146 C680.3864,96.7106 678.7644,99.1626 676.6754,101.2766 C674.5844,103.3876 672.1084,105.0626 669.2514,106.2996 C666.3914,107.5356 663.2344,108.1546 659.7784,108.1546" id="Fill-19" fill="#000000"></path>
                <path d="M713.6271,100.4109 C716.3071,100.4109 718.4131,99.8989 719.9451,98.8759 C721.4761,97.8509 722.2421,96.3149 722.2421,94.2669 L722.2421,94.1399 C722.2421,92.2199 721.4861,90.7369 719.9761,89.6919 C718.4661,88.6459 716.1581,88.1239 713.0531,88.1239 L700.6101,88.1239 L700.6101,100.4109 L713.6271,100.4109 Z M711.3261,81.4679 C713.8771,81.4679 715.9181,80.9669 717.4491,79.9639 C718.9811,78.9619 719.7461,77.4349 719.7461,75.3879 L719.7461,75.2599 C719.7461,73.4679 719.0761,72.0709 717.7361,71.0669 C716.3961,70.0649 714.4511,69.5629 711.9001,69.5629 L700.6101,69.5629 L700.6101,81.4679 L711.3261,81.4679 Z M692.8021,62.5879 L712.8611,62.5879 C718.0141,62.5879 721.9111,63.9109 724.5521,66.5559 C726.5531,68.5609 727.5541,71.0359 727.5541,73.9789 L727.5541,74.1079 C727.5541,75.4739 727.3741,76.6789 727.0141,77.7239 C726.6541,78.7689 726.1901,79.6859 725.6181,80.4749 C725.0461,81.2649 724.3691,81.9579 723.5861,82.5559 C722.8031,83.1529 722.0101,83.6649 721.2061,84.0919 C722.5201,84.5609 723.7181,85.1049 724.8001,85.7229 C725.8821,86.3429 726.8151,87.0789 727.6001,87.9319 C728.3841,88.7859 728.9891,89.7879 729.4131,90.9389 C729.8371,92.0919 730.0501,93.4349 730.0501,94.9719 L730.0501,95.0989 C730.0501,97.1049 729.6561,98.8759 728.8681,100.4109 C728.0801,101.9479 726.9621,103.2269 725.5141,104.2509 C724.0661,105.2759 722.3191,106.0549 720.2751,106.5879 C718.2311,107.1219 715.9721,107.3879 713.5021,107.3879 L692.8021,107.3879 L692.8021,62.5879 Z" id="Fill-21" fill="#000000"></path>
                <path d="M760.5124,100.9236 C762.7214,100.9236 764.7504,100.5076 766.5984,99.6756 C768.4474,98.8436 770.0294,97.7136 771.3454,96.2836 C772.6624,94.8546 773.6934,93.1796 774.4374,91.2596 C775.1804,89.3396 775.5524,87.2916 775.5524,85.1156 L775.5524,84.9866 C775.5524,82.8116 775.1804,80.7536 774.4374,78.8116 C773.6934,76.8696 772.6524,75.1856 771.3144,73.7556 C769.9754,72.3266 768.3714,71.1856 766.5024,70.3306 C764.6324,69.4786 762.5934,69.0516 760.3844,69.0516 C758.1744,69.0516 756.1474,69.4676 754.2984,70.2996 C752.4504,71.1316 750.8674,72.2626 749.5514,73.6926 C748.2344,75.1216 747.2044,76.7956 746.4604,78.7156 C745.7164,80.6356 745.3454,82.6836 745.3454,84.8606 L745.3454,84.9866 C745.3454,87.1626 745.7164,89.2226 746.4604,91.1626 C747.2044,93.1056 748.2454,94.7896 749.5834,96.2196 C750.9204,97.6496 752.5254,98.7896 754.3954,99.6436 C756.2634,100.4966 758.3024,100.9236 760.5124,100.9236 M760.3844,108.1546 C756.9284,108.1546 753.7714,107.5476 750.9124,106.3306 C748.0544,105.1156 745.6004,103.4626 743.5534,101.3716 C741.5054,99.2816 739.9054,96.8386 738.7534,94.0436 C737.6004,91.2486 737.0254,88.2746 737.0254,85.1156 L737.0254,84.9866 C737.0254,81.8306 737.6004,78.8546 738.7534,76.0596 C739.9054,73.2656 741.5264,70.8116 743.6174,68.6996 C745.7074,66.5876 748.1814,64.9126 751.0404,63.6756 C753.8994,62.4386 757.0564,61.8196 760.5124,61.8196 C763.9684,61.8196 767.1254,62.4276 769.9854,63.6436 C772.8424,64.8606 775.2964,66.5136 777.3444,68.6036 C779.3924,70.6946 780.9924,73.1376 782.1454,75.9316 C783.2964,78.7266 783.8724,81.7016 783.8724,84.8606 L783.8724,84.9866 C783.8724,88.1456 783.2964,91.1216 782.1454,93.9146 C780.9924,96.7106 779.3704,99.1626 777.2814,101.2766 C775.1904,103.3876 772.7144,105.0626 769.8574,106.2996 C766.9974,107.5356 763.8404,108.1546 760.3844,108.1546" id="Fill-23" fill="#000000"></path>
                <polygon id="Fill-25" fill="#000000" points="803.1354 69.8835 788.9274 69.8835 788.9274 62.5875 825.2804 62.5875 825.2804 69.8835 811.0724 69.8835 811.0724 107.3875 803.1354 107.3875"></polygon>
                <mask id="mask-2" fill="white">
                    <use xlink:href="#path-1"></use>
                </mask>
                <g id="Clip-28"></g>
                <polygon id="Fill-27" fill="#000000" mask="url(#mask-2)" points="834.048 107.388 841.856 107.388 841.856 62.588 834.048 62.588"></polygon>
                <path d="M876.0309,108.155 C872.7449,108.155 869.7159,107.557 866.9429,106.364 C864.1689,105.17 861.7629,103.538 859.7239,101.467 C857.6849,99.399 856.0849,96.956 854.9239,94.139 C853.7629,91.323 853.1829,88.315 853.1829,85.116 L853.1829,84.987 C853.1829,81.788 853.7519,78.79 854.8919,75.995 C856.0309,73.202 857.6309,70.747 859.6919,68.635 C861.7519,66.524 864.1909,64.86 867.0069,63.643 C869.8229,62.427 872.9369,61.819 876.3509,61.819 C878.3989,61.819 880.2649,61.991 881.9509,62.331 C883.6349,62.674 885.1829,63.153 886.5909,63.771 C887.9989,64.39 889.2999,65.126 890.4949,65.979 C891.6889,66.833 892.8199,67.771 893.8869,68.796 L888.8309,74.62 C887.0389,72.956 885.1399,71.612 883.1349,70.588 C881.1289,69.563 878.8469,69.051 876.2869,69.051 C874.1529,69.051 872.1799,69.467 870.3669,70.3 C868.5529,71.132 866.9849,72.262 865.6629,73.692 C864.3399,75.122 863.3159,76.796 862.5909,78.716 C861.8649,80.635 861.5029,82.683 861.5029,84.86 L861.5029,84.987 C861.5029,87.163 861.8649,89.222 862.5909,91.163 C863.3159,93.105 864.3399,94.801 865.6629,96.251 C866.9849,97.702 868.5529,98.843 870.3669,99.675 C872.1799,100.508 874.1529,100.924 876.2869,100.924 C879.0169,100.924 881.3639,100.401 883.3269,99.355 C885.2889,98.31 887.2309,96.891 889.1509,95.099 L894.2069,100.219 C893.0549,101.458 891.8489,102.555 890.5909,103.515 C889.3319,104.475 887.9769,105.307 886.5269,106.011 C885.0759,106.716 883.4869,107.249 881.7589,107.612 C880.0309,107.973 878.1209,108.155 876.0309,108.155" id="Fill-29" fill="#000000" mask="url(#mask-2)"></path>
                <path d="M919.4216,108.0281 C915.9656,108.0281 912.6586,107.4401 909.5016,106.2671 C906.3436,105.0941 903.4216,103.2921 900.7346,100.8601 L905.4696,95.2271 C907.6456,97.1051 909.8426,98.5461 912.0616,99.5481 C914.2796,100.5501 916.7976,101.0511 919.6136,101.0511 C922.0456,101.0511 923.9756,100.5401 925.4056,99.5151 C926.8346,98.4911 927.5496,97.1261 927.5496,95.4201 L927.5496,95.2921 C927.5496,94.4811 927.4106,93.7661 927.1326,93.1471 C926.8546,92.5301 926.3406,91.9421 925.5926,91.3871 C924.8436,90.8331 923.8176,90.3211 922.5126,89.8511 C921.2076,89.3821 919.5076,88.9131 917.4116,88.4441 C915.0156,87.8891 912.8876,87.2591 911.0276,86.5551 C909.1666,85.8511 907.6066,84.9991 906.3436,83.9951 C905.0816,82.9931 904.1186,81.7661 903.4556,80.3151 C902.7926,78.8661 902.4616,77.1161 902.4616,75.0671 L902.4616,74.9391 C902.4616,73.0191 902.8416,71.2591 903.6036,69.6591 C904.3656,68.0591 905.4126,66.6941 906.7456,65.5631 C908.0786,64.4331 909.6816,63.5481 911.5556,62.9071 C913.4286,62.2671 915.4746,61.9481 917.6936,61.9481 C920.9786,61.9481 923.9336,62.4271 926.5576,63.3871 C929.1816,64.3471 931.6456,65.7451 933.9496,67.5791 L929.7256,73.5321 C927.6776,72.0381 925.6506,70.8971 923.6456,70.1081 C921.6396,69.3191 919.6136,68.9231 917.5666,68.9231 C915.2616,68.9231 913.4696,69.4351 912.1906,70.4601 C910.9096,71.4831 910.2696,72.7431 910.2696,74.2351 L910.2696,74.3641 C910.2696,75.2171 910.4186,75.9741 910.7186,76.6351 C911.0176,77.2981 911.5626,77.8941 912.3546,78.4271 C913.1456,78.9621 914.2366,79.4631 915.6266,79.9311 C917.0166,80.4011 918.7816,80.8911 920.9206,81.4031 C923.2736,82.0011 925.3586,82.6631 927.1766,83.3871 C928.9946,84.1141 930.5016,84.9991 931.6996,86.0441 C932.8986,87.0901 933.8066,88.3051 934.4266,89.6921 C935.0466,91.0791 935.3586,92.6891 935.3586,94.5241 L935.3586,94.6511 C935.3586,96.7431 934.9656,98.6201 934.1826,100.2841 C933.4006,101.9481 932.3096,103.3551 930.9136,104.5071 C929.5176,105.6591 927.8396,106.5341 925.8806,107.1321 C923.9206,107.7281 921.7676,108.0281 919.4216,108.0281" id="Fill-30" fill="#000000" mask="url(#mask-2)"></path>
            </g>
        </g>
    </g>
</svg>