<svg width="197" height="195" viewBox="0 0 197 195" fill="none" xmlns="http://www.w3.org/2000/svg">
<path d="M191.579 70.9055C177.894 29.7571 134.464 -4.47675 87.0048 0.478396C29.9583 6.4321 -10.4312 66.6726 3.11591 119.659C17.8465 177.281 92.6011 211.609 145.612 186.858C188.079 166.994 205.983 114.208 191.579 70.9055Z" fill="#FFF8E1"/>
<path d="M180.242 121.79C174.403 111.15 164.827 95.7032 157.217 92.6677C145.407 87.9612 160.608 109.566 156.219 112.771C151.83 115.975 104.587 88.9876 99.8649 96.0287C95.1431 103.07 127.863 113.184 127.863 117.221C127.863 121.258 89.2094 100.685 86.7857 106.249C82.5474 115.982 124.491 125.363 124.491 129.025C124.491 132.686 94.1259 116.883 92.104 125.964C90.0822 135.046 122.199 134.063 122.802 140.084C123.21 144.133 101.209 136.047 99.5258 138.069C97.843 140.09 93.7868 147.457 127.191 151.838C143.322 153.97 159.551 155.282 175.816 155.768C176.695 155.818 178.327 155.894 180.506 156C186.497 146.801 190.885 136.659 193.485 126.002C188.173 124.938 183.652 123.542 180.242 121.79Z" fill="#FFC107"/>
<path d="M158.091 121C158.091 121 158.774 128.555 161.957 132.048C163.931 134.139 166.647 135.319 169.485 135.319C169.485 135.319 163.82 137.183 159.858 134.743C155.897 132.303 158.091 121 158.091 121Z" fill="#FF8F00"/>
<path d="M137.485 115C137.485 115 131.653 122.21 130.74 127.028C129.828 131.845 131.653 143 131.653 143C131.653 143 132.38 130.723 133.293 127.028C134.206 123.332 137.485 115 137.485 115Z" fill="#D87755"/>
<rect x="47.4849" y="36" width="100" height="129" rx="8.26" fill="#FFB300"/>
<rect x="57.4849" y="48" width="82" height="101" rx="3.07" fill="#FFF8E1"/>
<rect x="65.4849" y="77" width="29" height="29" fill="#FFE082"/>
<rect x="100.485" y="77" width="29" height="29" fill="#F9B75F"/>
<rect x="65.4849" y="110" width="29" height="29" fill="#FF8F00"/>
<rect x="100.485" y="110" width="29" height="29" fill="#FDD34E"/>
<rect x="65.4849" y="67" width="49" height="4" rx="2" fill="#FFD54F"/>
<rect x="65.4849" y="59" width="27" height="4" rx="2" fill="#FFD54F"/>
<path d="M97.4849 159C99.1417 159 100.485 157.657 100.485 156C100.485 154.343 99.1417 153 97.4849 153C95.828 153 94.4849 154.343 94.4849 156C94.4849 157.657 95.828 159 97.4849 159Z" fill="#FF8F00"/>
</svg>
