<svg width="191" height="190" viewBox="0 0 191 190" fill="none" xmlns="http://www.w3.org/2000/svg">
<path d="M188.801 72.3744C181.044 33.7934 147.187 6.20527 113.5 0.935701C58.3774 -7.69768 -3.08037 44.7137 0.646374 104.415C3.78948 154.879 52.1034 195.045 103.743 189.485C158.501 183.592 199.416 125.052 188.801 72.3744Z" fill="#FFE082"/>
<path d="M142.652 154.626L51.3449 157C51.3449 157 55.621 108.711 54.7719 94.0716C53.9228 79.4319 44.4849 38.6615 44.4849 38.6615L133.47 35C133.47 35 152.511 74.6781 142.652 154.626Z" fill="white"/>
<g style="mix-blend-mode:multiply">
<path d="M56.4849 51.1791L58.1608 58L128.485 55.5185L126.652 49L56.4849 51.1791Z" fill="#FF8F00"/>
</g>
<g style="mix-blend-mode:multiply">
<path d="M60.4849 64.4283L62.1608 72L132.485 69.2498L130.652 62L60.4849 64.4283Z" fill="#FF8F00"/>
</g>
<g style="mix-blend-mode:multiply">
<path d="M62.4849 78.7165L64.1563 86L115.485 84.0613L113.843 77L62.4849 78.7165Z" fill="#FF8F00"/>
</g>
<g style="mix-blend-mode:multiply">
<path d="M83.9849 125C89.7839 125 94.4849 120.299 94.4849 114.5C94.4849 108.701 89.7839 104 83.9849 104C78.1859 104 73.4849 108.701 73.4849 114.5C73.4849 120.299 78.1859 125 83.9849 125Z" fill="#FFE89F"/>
</g>
<g style="mix-blend-mode:multiply">
<path d="M77.9849 136C83.7839 136 88.4849 131.299 88.4849 125.5C88.4849 119.701 83.7839 115 77.9849 115C72.1859 115 67.4849 119.701 67.4849 125.5C67.4849 131.299 72.1859 136 77.9849 136Z" fill="#FFAF44"/>
</g>
<g style="mix-blend-mode:multiply">
<path d="M93.9849 136C99.7839 136 104.485 131.299 104.485 125.5C104.485 119.701 99.7839 115 93.9849 115C88.1859 115 83.4849 119.701 83.4849 125.5C83.4849 131.299 88.1859 136 93.9849 136Z" fill="#FBCB86"/>
</g>
<path d="M152.125 159.66C151.762 147.519 150.782 135.404 149.188 123.363C145.921 98.4336 140.396 101.456 138.889 102.715C137.382 103.973 143.423 120.394 140.396 120.093C135.898 119.641 136.631 95.6637 129.851 97.1751C123.071 98.6865 134.871 121.369 132.139 121.369C129.407 121.369 122.398 90.0578 115.126 93.225C110.976 95.0315 126.332 123.886 123.323 123.886C120.315 123.886 112.772 99.4573 107.499 102.986C102.227 106.514 122.386 141.776 119.996 145.052C117.606 148.328 101.47 136.983 104.983 145.792C107.247 151.477 118.795 158.624 126.728 162.984C128.86 167.145 130.283 173.449 131.19 181C138.872 177.315 146.032 172.626 152.485 167.054C152.311 163.345 152.161 160.75 152.125 159.66Z" fill="#FFC107"/>
<g opacity="0.9">
<path d="M122.809 132.713C122.809 132.713 128.309 127.414 131.976 126.588C135.642 125.762 144.179 127.4 144.179 127.4C144.179 127.4 134.811 128.065 131.988 128.891C129.164 129.717 122.809 132.713 122.809 132.713Z" fill="#FF8F00"/>
</g>
</svg>
