<svg width="202" height="186" viewBox="0 0 202 186" fill="none" xmlns="http://www.w3.org/2000/svg">
<path d="M187.375 40.1922C167.968 7.12092 126.391 -6.78536 88.3785 3.1477C36.5012 16.6951 5.70873 90.6337 35.2241 140.65C64.0133 189.48 141.065 200.089 178.961 162.385C207.584 133.905 207.258 74.0898 187.375 40.1922Z" fill="#FF8F00"/>
<path d="M201.081 87.4702C168.853 87.2615 139.313 84.6572 124.647 77.1365L117.694 122.445C117.694 122.445 155.69 124.456 198.277 125.45C201.16 113.01 202.106 100.199 201.081 87.4702Z" fill="#FFE082"/>
<path d="M131.7 90.7923C131.7 90.7923 109.722 44.5994 94.0294 38.314C78.3369 32.0287 98.5369 60.8512 92.7023 65.1249C86.8676 69.3987 24.064 33.3892 17.7786 42.8048C11.4933 52.2203 55.0067 65.6759 55.0067 71.0597C55.0067 76.4436 3.62193 49.0067 0.399948 56.4273C-5.23435 69.4154 50.5243 81.9193 50.5243 86.8107C50.5243 91.7021 10.1577 70.609 7.4616 82.7207C4.76548 94.8323 47.4693 93.4884 48.279 101.552C48.8215 106.952 19.5733 96.1762 17.3362 98.864C15.0992 101.552 9.70697 111.426 54.1136 117.228C98.5202 123.029 129.905 122.611 129.905 122.611L131.7 90.7923Z" fill="#FFE082"/>
<rect x="132.521" y="132.936" width="61.7686" height="19.5823" rx="1.18" transform="rotate(-83.73 132.521 132.936)" fill="#FFB300"/>
<path d="M145.631 127.086C158.76 127.086 169.404 116.442 169.404 103.313C169.404 90.1837 158.76 79.5404 145.631 79.5404C132.502 79.5404 121.859 90.1837 121.859 103.313C121.859 116.442 132.502 127.086 145.631 127.086Z" fill="#FFD54F"/>
<path d="M145.631 122.086C155.999 122.086 164.404 113.681 164.404 103.313C164.404 92.9451 155.999 84.5403 145.631 84.5403C135.263 84.5403 126.859 92.9451 126.859 103.313C126.859 113.681 135.263 122.086 145.631 122.086Z" fill="white"/>
<g opacity="0.9">
<path d="M151.257 112.219L142.843 105.934C142.116 105.39 141.875 104.408 142.267 103.588L148.302 91.0677L151.716 92.7372L146.357 103.864L153.528 109.214L151.257 112.219Z" fill="#FF8F00"/>
</g>
<path d="M69.4139 68.4471C69.4139 68.4471 61.3088 78.0964 60.0401 84.5487C58.7713 91.001 61.3088 105.942 61.3088 105.942C61.3088 105.942 62.3188 89.4985 63.5876 84.5487C64.8563 79.5989 69.4139 68.4471 69.4139 68.4471Z" fill="#D87755"/>
</svg>
