<svg width="470" height="310" viewBox="0 0 470 310" fill="none" xmlns="http://www.w3.org/2000/svg">
<g clip-path="url(#clip0)">
<path d="M460.186 160.049C478.798 107.302 470.114 51.8028 438.883 22.9075C399.776 -13.2693 339.153 3.12303 323.373 12.296C284.532 34.8776 283.502 46.2972 248.009 59.1909C178.177 84.543 101.819 17.1622 43.5843 40.7828C4.93892 56.4647 0.161523 102.489 0.0372042 142.511C-0.273593 240.43 123.717 310.315 239.182 309.711C334.926 309.223 419.756 269.672 460.186 160.049Z" fill="#E3F2FD"/>
<path d="M155.667 111.058C155.8 73.381 130.368 61.0912 105.451 57.6191C70.7392 52.7884 32.3602 71.7471 35.921 112.985C39.2066 151.098 72.0179 158.753 101.588 156.124C124.303 154.108 155.542 146.907 155.667 111.058Z" fill="#FED44F"/>
<path d="M130.688 147.982H155.143L142.915 129.645L130.688 147.982Z" fill="#FED44F"/>
<path d="M197.287 265.72L346.994 265.977C347.011 265.977 347.029 265.96 347.029 265.942L347.065 246.903C347.065 246.886 347.047 246.868 347.029 246.868L197.323 246.61C197.305 246.61 197.287 246.628 197.287 246.646L197.251 265.684C197.251 265.702 197.269 265.72 197.287 265.72Z" fill="#FFD54F"/>
<path d="M347.038 258.545L197.411 258.288C196.284 258.288 195.245 257.471 195.147 256.352C195.04 255.091 196.026 254.043 197.269 254.043L346.896 254.3C348.024 254.3 349.063 255.117 349.16 256.236C349.267 257.497 348.272 258.545 347.038 258.545Z" fill="#F9B75F"/>
<path d="M356.575 265.996L347.056 265.978C347.038 265.978 347.02 265.96 347.02 265.942L347.056 246.904C347.056 246.886 347.074 246.868 347.091 246.868L356.611 246.886C361.885 246.895 366.156 251.175 366.148 256.458C366.139 261.733 361.859 266.004 356.575 265.996Z" fill="#424242"/>
<path opacity="0.9" d="M354.737 265.987L351.496 265.978C351.478 265.978 351.46 265.96 351.46 265.942L351.496 246.904C351.496 246.886 351.513 246.868 351.531 246.868L354.772 246.877C354.79 246.877 354.808 246.895 354.808 246.913L354.772 265.951C354.772 265.969 354.764 265.987 354.737 265.987Z" fill="#FF9999"/>
<path d="M197.225 246.655L183.354 256.121C183.337 256.139 183.337 256.166 183.354 256.184L197.198 265.694C197.225 265.712 197.251 265.694 197.251 265.667L197.287 246.691C197.287 246.655 197.251 246.638 197.225 246.655Z" fill="#424242"/>
<path d="M152.585 245.545L141.947 182.826C141.85 182.258 141.308 181.876 140.74 181.965L122.269 185.1C121.701 185.197 121.319 185.739 121.408 186.307L132.046 249.026C132.144 249.594 132.686 249.976 133.254 249.887L151.724 246.753C152.301 246.664 152.683 246.122 152.585 245.545Z" fill="#FA8C02"/>
<path d="M137.001 241.221C150.968 241.221 162.291 229.898 162.291 215.931C162.291 201.963 150.968 190.641 137.001 190.641C123.034 190.641 111.711 201.963 111.711 215.931C111.711 229.898 123.034 241.221 137.001 241.221Z" fill="#FFD54F"/>
<path d="M137.001 235.902C148.031 235.902 156.972 226.961 156.972 215.931C156.972 204.901 148.031 195.96 137.001 195.96C125.972 195.96 117.03 204.901 117.03 215.931C117.03 226.961 125.972 235.902 137.001 235.902Z" fill="white"/>
<path d="M145.348 223.407L134.906 219.429C134.009 219.082 133.476 218.15 133.636 217.2L136.158 202.619L140.127 203.312L137.889 216.259L146.778 219.642L145.348 223.407Z" fill="#90CAF9"/>
<path d="M352.126 91.4876C365.26 91.4876 375.907 80.8408 375.907 67.7072C375.907 54.5736 365.26 43.9268 352.126 43.9268C338.993 43.9268 328.346 54.5736 328.346 67.7072C328.346 80.8408 338.993 91.4876 352.126 91.4876Z" fill="#EE9A9A"/>
<path d="M334.384 115.268C347.518 115.268 358.165 104.621 358.165 91.4875C358.165 78.3539 347.518 67.707 334.384 67.707C321.251 67.707 310.604 78.3539 310.604 91.4875C310.604 104.621 321.251 115.268 334.384 115.268Z" fill="#BBDEFB"/>
<path d="M371.502 115.268C384.636 115.268 395.283 104.621 395.283 91.4875C395.283 78.3539 384.636 67.707 371.502 67.707C358.369 67.707 347.722 78.3539 347.722 91.4875C347.722 104.621 358.369 115.268 371.502 115.268Z" fill="#FFD54F"/>
<path d="M395.38 190.925C395.38 190.925 391.527 195.516 390.923 198.579C390.319 201.643 391.527 208.747 391.527 208.747C391.527 208.747 392.006 200.932 392.61 198.579C393.214 196.217 395.38 190.925 395.38 190.925Z" fill="#D87755"/>
<path d="M345.378 140.505H394.084C398.133 140.505 401.419 143.79 401.419 147.84V214.759C401.419 218.808 398.133 222.094 394.084 222.094H345.378C341.328 222.094 338.043 218.808 338.043 214.759V147.84C338.043 143.79 341.328 140.505 345.378 140.505Z" fill="#424242"/>
<path d="M392.858 212.503H346.603C345.102 212.503 343.877 211.287 343.877 209.777V151.454C343.877 149.953 345.093 148.728 346.603 148.728H392.858C394.359 148.728 395.585 149.944 395.585 151.454V209.777C395.576 211.278 394.359 212.503 392.858 212.503Z" fill="white"/>
<path d="M368.021 166.505H349.391V185.135H368.021V166.505Z" fill="#EE9A9A"/>
<path d="M390.07 166.505H371.44V185.135H390.07V166.505Z" fill="#90CAF9"/>
<path d="M368.021 187.933H349.391V206.563H368.021V187.933Z" fill="#ED524F"/>
<path d="M390.07 187.933H371.44V206.563H390.07V187.933Z" fill="#FDD34E"/>
<path d="M379.681 160.191H350.466C349.871 160.191 349.391 160.671 349.391 161.266C349.391 161.861 349.871 162.34 350.466 162.34H379.681C380.276 162.34 380.755 161.861 380.755 161.266C380.755 160.68 380.267 160.191 379.681 160.191Z" fill="#C1C1C1"/>
<path d="M365.677 155.396H350.483C349.88 155.396 349.4 155.885 349.4 156.48C349.4 157.084 349.889 157.563 350.483 157.563H365.677C366.281 157.563 366.76 157.075 366.76 156.48C366.76 155.885 366.272 155.396 365.677 155.396Z" fill="#C1C1C1"/>
<path d="M369.726 219.358C370.893 219.358 371.84 218.411 371.84 217.244C371.84 216.077 370.893 215.131 369.726 215.131C368.559 215.131 367.613 216.077 367.613 217.244C367.613 218.411 368.559 219.358 369.726 219.358Z" fill="#5B5B5B"/>
<path d="M300.303 192.745H285.039C279.346 192.745 274.738 188.136 274.738 182.444C274.738 176.752 279.346 172.144 285.039 172.144H300.303C305.995 172.144 310.604 176.752 310.604 182.444C310.604 188.136 305.995 192.745 300.303 192.745Z" fill="#D87A59"/>
<path d="M199.685 192.745H184.42C178.728 192.745 174.119 188.136 174.119 182.444C174.119 176.752 178.728 172.144 184.42 172.144H199.685C205.377 172.144 209.985 176.752 209.985 182.444C209.985 188.136 205.377 192.745 199.685 192.745Z" fill="#D87A59"/>
<path d="M189.286 196.688C197.083 218.444 217.56 231.764 242.734 231.737C273.201 231.71 299.504 211.286 299.468 179.701L299.451 165.448C299.415 131.003 280.545 103.848 247.325 103.884H239.245C209.737 103.91 185.841 127.993 185.867 158.584L185.885 172.534C185.903 172.526 185.601 183.661 189.286 196.688Z" fill="#EA916A"/>
<path d="M268.318 187.391C270.539 187.391 272.34 184.957 272.34 181.956C272.34 178.955 270.539 176.521 268.318 176.521C266.096 176.521 264.295 178.955 264.295 181.956C264.295 184.957 266.096 187.391 268.318 187.391Z" fill="#212121"/>
<path d="M255.93 203.081C253.648 207.805 249.226 211.011 244.138 211.011C239.049 211.011 234.618 207.823 232.336 203.099L255.93 203.081Z" fill="#B53535"/>
<path d="M242.193 185.339C243.436 185.339 244.448 186.475 244.448 187.879V188.962C244.448 190.205 243.56 191.217 242.45 191.217C241.474 191.217 240.674 190.32 240.674 189.211V187.044C240.674 186.103 241.349 185.339 242.193 185.339Z" fill="#D87A59"/>
<path d="M218.093 187.434C220.314 187.434 222.115 185.001 222.115 182C222.115 178.999 220.314 176.565 218.093 176.565C215.871 176.565 214.07 178.999 214.07 182C214.07 185.001 215.871 187.434 218.093 187.434Z" fill="#212121"/>
<path d="M278.503 160.893C278.485 159.366 275.368 155.139 270.653 154.446C267.705 154.011 265.201 155.077 263.558 156.231C262.377 156.95 259.251 159.286 261.098 160.635C262.208 161.444 262.732 159.827 266.346 158.957C269.969 158.087 271.603 159.179 274.489 160.937C277.375 162.696 278.263 161.594 278.263 161.594C278.405 161.479 278.503 161.266 278.503 160.893Z" fill="#212121"/>
<path d="M207.854 163.201C207.872 161.674 210.971 157.438 215.695 156.737C218.643 156.293 221.147 157.358 222.79 158.504C223.971 159.223 227.097 161.55 225.259 162.899C224.149 163.708 223.625 162.091 220.002 161.23C216.379 160.369 214.745 161.461 211.868 163.228C208.982 164.995 208.103 163.894 208.103 163.894C207.943 163.787 207.845 163.574 207.854 163.201Z" fill="#212121"/>
<path d="M280.368 208.329C286.361 208.329 291.219 203.471 291.219 197.478C291.219 191.485 286.361 186.627 280.368 186.627C274.375 186.627 269.516 191.485 269.516 197.478C269.516 203.471 274.375 208.329 280.368 208.329Z" fill="#BC6246"/>
<path d="M205.989 208.329C211.982 208.329 216.841 203.471 216.841 197.478C216.841 191.485 211.982 186.627 205.989 186.627C199.996 186.627 195.138 191.485 195.138 197.478C195.138 203.471 199.996 208.329 205.989 208.329Z" fill="#BC6246"/>
<path d="M300.303 172.152C300.303 172.152 276.496 153.345 274.738 130.346C272.98 107.347 307.487 113.687 305.107 137.485C302.727 161.283 300.303 172.152 300.303 172.152Z" fill="#843E28"/>
<path d="M185.663 172.152C185.663 172.152 209.47 153.345 211.229 130.346C212.978 107.347 178.479 113.687 180.859 137.485C183.239 161.283 185.663 172.152 185.663 172.152Z" fill="#843E28"/>
<path d="M291.219 120.294C291.219 120.294 294.131 90.4219 251.188 87.9355C208.245 85.4491 193.318 107.534 193.318 120.294C193.318 133.054 287.995 136.162 291.219 120.294Z" fill="#843E28"/>
<path d="M74.9218 113.447C77.1581 113.447 78.971 111.634 78.971 109.398C78.971 107.162 77.1581 105.349 74.9218 105.349C72.6855 105.349 70.8726 107.162 70.8726 109.398C70.8726 111.634 72.6855 113.447 74.9218 113.447Z" fill="white"/>
<path d="M95.6742 113.447C97.9106 113.447 99.7235 111.634 99.7235 109.398C99.7235 107.162 97.9106 105.349 95.6742 105.349C93.4379 105.349 91.625 107.162 91.625 109.398C91.625 111.634 93.4379 113.447 95.6742 113.447Z" fill="white"/>
<path d="M116.435 113.447C118.672 113.447 120.485 111.634 120.485 109.398C120.485 107.162 118.672 105.349 116.435 105.349C114.199 105.349 112.386 107.162 112.386 109.398C112.386 111.634 114.199 113.447 116.435 113.447Z" fill="white"/>
<path d="M83.7217 181.858H55.2971C55.2971 181.858 53.8941 202.726 57.8456 207.184C61.8061 211.642 88.4725 207.184 88.4725 207.184C88.4725 207.184 82.6473 202.238 83.7217 181.858Z" fill="#FFD54F"/>
<path d="M83.5974 187.914C83.5708 186.058 83.5886 184.069 83.704 181.867H55.2794C55.2794 181.867 55.1107 184.416 55.0574 187.914H83.5974Z" fill="#FFC107"/>
<path d="M439.665 57.7617H411.24C411.24 57.7617 409.837 78.6295 413.789 83.0873C417.749 87.545 444.415 83.0873 444.415 83.0873C444.415 83.0873 438.59 78.1323 439.665 57.7617Z" fill="#FFD54F"/>
<path d="M439.541 63.809C439.514 61.953 439.532 59.9639 439.647 57.7617H411.222C411.222 57.7617 411.054 60.3103 411 63.809H439.541Z" fill="#FFC107"/>
<path d="M445.127 190.046H416.702C416.702 190.046 415.299 210.914 419.25 215.371C423.211 219.829 449.877 215.371 449.877 215.371C449.877 215.371 444.043 210.425 445.127 190.046Z" fill="#FFD54F"/>
<path d="M444.992 196.093C444.966 194.237 444.984 192.248 445.099 190.046H416.674C416.674 190.046 416.506 192.594 416.452 196.093H444.992Z" fill="#FFC107"/>
</g>
<defs>
<clipPath id="clip0">
<rect width="469.863" height="309.19" fill="white" transform="translate(0.0373535 0.530273)"/>
</clipPath>
</defs>
</svg>
