<svg width="470" height="310" viewBox="0 0 470 310" fill="none" xmlns="http://www.w3.org/2000/svg">
<g clip-path="url(#clip0)">
<path d="M460.149 159.519C478.761 106.772 470.076 51.2725 438.846 22.3772C399.738 -13.7996 339.115 2.59276 323.336 11.7657C284.495 34.3474 283.465 45.7669 247.972 58.6606C178.14 84.0128 101.782 16.6319 43.5471 40.2525C4.90163 55.9345 0.124231 101.959 -8.82988e-05 141.981C-0.310886 239.9 123.679 309.785 239.145 309.181C334.888 308.693 419.718 269.141 460.149 159.519Z" fill="#FFECB2"/>
<path d="M155.63 110.528C155.763 72.8507 130.331 60.5609 105.414 57.0888C70.7019 52.2582 32.3229 71.2168 35.8837 112.455C39.1693 150.568 71.9806 158.222 101.551 155.594C124.266 153.578 155.505 146.376 155.63 110.528Z" fill="#FED44F"/>
<path d="M130.65 147.451H155.106L142.878 129.114L130.65 147.451Z" fill="#FED44F"/>
<path d="M197.25 265.19L346.956 265.447C346.974 265.447 346.992 265.429 346.992 265.412L347.027 246.373C347.027 246.355 347.01 246.338 346.992 246.338L197.285 246.08C197.267 246.08 197.25 246.098 197.25 246.116L197.214 265.154C197.214 265.172 197.232 265.19 197.25 265.19Z" fill="#FFD54F"/>
<path d="M347.001 258.015L197.374 257.757C196.246 257.757 195.207 256.94 195.11 255.821C195.003 254.561 195.989 253.513 197.232 253.513L346.859 253.77C347.986 253.77 349.025 254.587 349.123 255.706C349.23 256.967 348.235 258.015 347.001 258.015Z" fill="#F9B75F"/>
<path d="M356.538 265.465L347.018 265.447C347.001 265.447 346.983 265.43 346.983 265.412L347.018 246.373C347.018 246.356 347.036 246.338 347.054 246.338L356.573 246.356C361.848 246.365 366.119 250.645 366.11 255.928C366.101 261.203 361.821 265.474 356.538 265.465Z" fill="#424242"/>
<path opacity="0.9" d="M354.7 265.456L351.458 265.447C351.441 265.447 351.423 265.43 351.423 265.412L351.458 246.373C351.458 246.356 351.476 246.338 351.494 246.338L354.735 246.347C354.753 246.347 354.771 246.365 354.771 246.382L354.735 265.421C354.735 265.439 354.726 265.456 354.7 265.456Z" fill="#FF9999"/>
<path d="M197.188 246.125L183.317 255.591C183.299 255.609 183.299 255.636 183.317 255.653L197.161 265.164C197.188 265.181 197.214 265.164 197.214 265.137L197.25 246.161C197.25 246.125 197.214 246.107 197.188 246.125Z" fill="#424242"/>
<path d="M152.548 245.015L141.91 182.296C141.812 181.728 141.271 181.346 140.702 181.435L122.232 184.569C121.664 184.667 121.282 185.209 121.371 185.777L132.009 248.496C132.107 249.064 132.648 249.446 133.217 249.357L151.687 246.223C152.264 246.134 152.646 245.592 152.548 245.015Z" fill="#FA8C02"/>
<path d="M136.964 240.69C150.931 240.69 162.254 229.368 162.254 215.4C162.254 201.433 150.931 190.11 136.964 190.11C122.997 190.11 111.674 201.433 111.674 215.4C111.674 229.368 122.997 240.69 136.964 240.69Z" fill="#FFD54F"/>
<path d="M136.964 235.372C147.994 235.372 156.935 226.43 156.935 215.401C156.935 204.371 147.994 195.43 136.964 195.43C125.934 195.43 116.993 204.371 116.993 215.401C116.993 226.43 125.934 235.372 136.964 235.372Z" fill="white"/>
<path d="M145.311 222.877L134.868 218.899C133.971 218.552 133.439 217.62 133.598 216.67L136.12 202.089L140.09 202.781L137.852 215.728L146.741 219.112L145.311 222.877Z" fill="#90CAF9"/>
<path d="M352.089 90.9573C365.222 90.9573 375.869 80.3105 375.869 67.1769C375.869 54.0433 365.222 43.3965 352.089 43.3965C338.955 43.3965 328.308 54.0433 328.308 67.1769C328.308 80.3105 338.955 90.9573 352.089 90.9573Z" fill="#EE9A9A"/>
<path d="M334.347 114.738C347.48 114.738 358.127 104.091 358.127 90.9572C358.127 77.8236 347.48 67.1768 334.347 67.1768C321.213 67.1768 310.566 77.8236 310.566 90.9572C310.566 104.091 321.213 114.738 334.347 114.738Z" fill="#BBDEFB"/>
<path d="M371.465 114.738C384.598 114.738 395.245 104.091 395.245 90.9572C395.245 77.8236 384.598 67.1768 371.465 67.1768C358.331 67.1768 347.684 77.8236 347.684 90.9572C347.684 104.091 358.331 114.738 371.465 114.738Z" fill="#FFD54F"/>
<path d="M395.343 190.395C395.343 190.395 391.489 194.985 390.885 198.049C390.281 201.113 391.489 208.217 391.489 208.217C391.489 208.217 391.969 200.402 392.572 198.049C393.176 195.687 395.343 190.395 395.343 190.395Z" fill="#D87755"/>
<path d="M345.34 139.975H394.047C398.096 139.975 401.381 143.26 401.381 147.309V214.229C401.381 218.278 398.096 221.563 394.047 221.563H345.34C341.291 221.563 338.005 218.278 338.005 214.229V147.309C338.005 143.26 341.291 139.975 345.34 139.975Z" fill="#424242"/>
<path d="M392.821 211.973H346.566C345.065 211.973 343.839 210.756 343.839 209.247V150.923C343.839 149.423 345.056 148.197 346.566 148.197H392.821C394.322 148.197 395.547 149.414 395.547 150.923V209.247C395.538 210.747 394.322 211.973 392.821 211.973Z" fill="white"/>
<path d="M367.984 165.975H349.354V184.605H367.984V165.975Z" fill="#EE9A9A"/>
<path d="M390.033 165.975H371.403V184.605H390.033V165.975Z" fill="#90CAF9"/>
<path d="M367.984 187.402H349.354V206.032H367.984V187.402Z" fill="#ED524F"/>
<path d="M390.033 187.402H371.403V206.032H390.033V187.402Z" fill="#FDD34E"/>
<path d="M379.643 159.661H350.428C349.833 159.661 349.354 160.141 349.354 160.736C349.354 161.331 349.833 161.81 350.428 161.81H379.643C380.238 161.81 380.718 161.331 380.718 160.736C380.718 160.15 380.229 159.661 379.643 159.661Z" fill="#C1C1C1"/>
<path d="M365.64 154.866H350.446C349.842 154.866 349.363 155.355 349.363 155.95C349.363 156.553 349.851 157.033 350.446 157.033H365.64C366.244 157.033 366.723 156.545 366.723 155.95C366.723 155.355 366.235 154.866 365.64 154.866Z" fill="#C1C1C1"/>
<path d="M369.689 218.828C370.856 218.828 371.802 217.882 371.802 216.715C371.802 215.548 370.856 214.602 369.689 214.602C368.522 214.602 367.575 215.548 367.575 216.715C367.575 217.882 368.522 218.828 369.689 218.828Z" fill="#5B5B5B"/>
<path d="M300.266 192.215H285.001C279.309 192.215 274.7 187.606 274.7 181.914C274.7 176.222 279.309 171.613 285.001 171.613H300.266C305.958 171.613 310.566 176.222 310.566 181.914C310.566 187.606 305.958 192.215 300.266 192.215Z" fill="#D87A59"/>
<path d="M199.647 192.215H184.383C178.691 192.215 174.082 187.606 174.082 181.914C174.082 176.222 178.691 171.613 184.383 171.613H199.647C205.339 171.613 209.948 176.222 209.948 181.914C209.948 187.606 205.339 192.215 199.647 192.215Z" fill="#D87A59"/>
<path d="M189.249 196.158C197.045 217.913 217.523 231.233 242.697 231.207C273.164 231.18 299.466 210.756 299.431 179.17L299.413 164.918C299.378 130.473 280.508 103.318 247.288 103.354H239.207C209.699 103.38 185.803 127.463 185.83 158.054L185.848 172.004C185.866 171.995 185.564 183.131 189.249 196.158Z" fill="#EA916A"/>
<path d="M268.28 186.86C270.502 186.86 272.303 184.427 272.303 181.426C272.303 178.424 270.502 175.991 268.28 175.991C266.059 175.991 264.258 178.424 264.258 181.426C264.258 184.427 266.059 186.86 268.28 186.86Z" fill="#212121"/>
<path d="M255.893 202.551C253.611 207.275 249.188 210.481 244.1 210.481C239.012 210.481 234.581 207.293 232.299 202.569L255.893 202.551Z" fill="#B53535"/>
<path d="M242.155 184.809C243.399 184.809 244.411 185.945 244.411 187.348V188.432C244.411 189.675 243.523 190.687 242.413 190.687C241.436 190.687 240.637 189.79 240.637 188.68V186.514C240.637 185.572 241.312 184.809 242.155 184.809Z" fill="#D87A59"/>
<path d="M218.055 186.904C220.277 186.904 222.078 184.471 222.078 181.47C222.078 178.468 220.277 176.035 218.055 176.035C215.834 176.035 214.033 178.468 214.033 181.47C214.033 184.471 215.834 186.904 218.055 186.904Z" fill="#212121"/>
<path d="M278.465 160.363C278.448 158.835 275.331 154.608 270.616 153.916C267.668 153.481 265.163 154.546 263.521 155.701C262.34 156.42 259.214 158.755 261.061 160.105C262.171 160.913 262.695 159.297 266.309 158.427C269.932 157.557 271.566 158.649 274.452 160.407C277.338 162.165 278.226 161.064 278.226 161.064C278.368 160.949 278.465 160.736 278.465 160.363Z" fill="#212121"/>
<path d="M207.817 162.671C207.835 161.144 210.934 156.908 215.658 156.207C218.606 155.763 221.11 156.828 222.753 157.974C223.934 158.693 227.06 161.019 225.221 162.369C224.112 163.177 223.588 161.561 219.965 160.7C216.342 159.838 214.708 160.931 211.831 162.698C208.945 164.465 208.065 163.364 208.065 163.364C207.906 163.257 207.808 163.044 207.817 162.671Z" fill="#212121"/>
<path d="M280.33 207.799C286.323 207.799 291.182 202.941 291.182 196.948C291.182 190.955 286.323 186.097 280.33 186.097C274.337 186.097 269.479 190.955 269.479 196.948C269.479 202.941 274.337 207.799 280.33 207.799Z" fill="#BC6246"/>
<path d="M205.952 207.799C211.945 207.799 216.803 202.941 216.803 196.948C216.803 190.955 211.945 186.097 205.952 186.097C199.959 186.097 195.101 190.955 195.101 196.948C195.101 202.941 199.959 207.799 205.952 207.799Z" fill="#BC6246"/>
<path d="M300.266 171.622C300.266 171.622 276.459 152.814 274.7 129.815C272.942 106.816 307.45 113.157 305.07 136.955C302.69 160.753 300.266 171.622 300.266 171.622Z" fill="#843E28"/>
<path d="M185.626 171.622C185.626 171.622 209.433 152.814 211.191 129.815C212.941 106.816 178.442 113.157 180.822 136.955C183.202 160.753 185.626 171.622 185.626 171.622Z" fill="#843E28"/>
<path d="M291.182 119.764C291.182 119.764 294.094 89.8916 251.151 87.4053C208.208 84.9189 193.28 107.003 193.28 119.764C193.28 132.524 287.958 135.632 291.182 119.764Z" fill="#843E28"/>
<path d="M74.8844 112.917C77.1207 112.917 78.9336 111.104 78.9336 108.868C78.9336 106.631 77.1207 104.818 74.8844 104.818C72.6481 104.818 70.8351 106.631 70.8351 108.868C70.8351 111.104 72.6481 112.917 74.8844 112.917Z" fill="white"/>
<path d="M95.6368 112.917C97.8731 112.917 99.686 111.104 99.686 108.868C99.686 106.631 97.8731 104.818 95.6368 104.818C93.4004 104.818 91.5875 106.631 91.5875 108.868C91.5875 111.104 93.4004 112.917 95.6368 112.917Z" fill="white"/>
<path d="M116.398 112.917C118.634 112.917 120.447 111.104 120.447 108.868C120.447 106.631 118.634 104.818 116.398 104.818C114.162 104.818 112.349 106.631 112.349 108.868C112.349 111.104 114.162 112.917 116.398 112.917Z" fill="white"/>
<path d="M83.6844 181.328H55.2597C55.2597 181.328 53.8567 202.196 57.8083 206.654C61.7687 211.111 88.4351 206.654 88.4351 206.654C88.4351 206.654 82.6099 201.708 83.6844 181.328Z" fill="#FFD54F"/>
<path d="M83.56 187.384C83.5334 185.528 83.5511 183.539 83.6666 181.337H55.242C55.242 181.337 55.0732 183.885 55.02 187.384H83.56Z" fill="#FFC107"/>
<path d="M439.627 57.2314H411.203C411.203 57.2314 409.8 78.0993 413.751 82.557C417.712 87.0147 444.378 82.557 444.378 82.557C444.378 82.557 438.553 77.602 439.627 57.2314Z" fill="#FFD54F"/>
<path d="M439.503 63.2787C439.477 61.4228 439.494 59.4337 439.61 57.2314H411.185C411.185 57.2314 411.016 59.78 410.963 63.2787H439.503Z" fill="#FFC107"/>
<path d="M445.089 189.516H416.665C416.665 189.516 415.261 210.383 419.213 214.841C423.174 219.299 449.84 214.841 449.84 214.841C449.84 214.841 444.006 209.895 445.089 189.516Z" fill="#FFD54F"/>
<path d="M444.955 195.563C444.928 193.707 444.946 191.718 445.062 189.516H416.637C416.637 189.516 416.468 192.064 416.415 195.563H444.955Z" fill="#FFC107"/>
</g>
<defs>
<clipPath id="clip0">
<rect width="469.863" height="309.19" fill="white"/>
</clipPath>
</defs>
</svg>
