<svg width="642" height="195" viewBox="0 0 642 195" fill="none" xmlns="http://www.w3.org/2000/svg">
<path d="M187.414 46.0261C168.006 12.9549 126.43 -0.951375 88.4168 8.98168C36.5395 22.529 5.74706 96.4677 35.2624 146.484C64.0516 195.314 141.104 205.923 179 168.219C207.622 139.739 207.296 79.9237 187.414 46.0261Z" fill="#FFECB3"/>
<path d="M201.12 93.3044C168.891 93.0957 139.351 90.4914 124.685 82.9707L117.732 128.279C117.732 128.279 155.728 130.29 198.315 131.284C201.199 118.844 202.145 106.033 201.12 93.3044V93.3044Z" fill="#EA916A"/>
<path d="M131.738 96.6267C131.738 96.6267 109.76 50.4338 94.0678 44.1484C78.3752 37.863 98.5752 66.6856 92.7406 70.9593C86.906 75.233 24.1023 39.2236 17.817 48.6391C11.5316 58.0547 55.0451 71.5102 55.0451 76.8941C55.0451 82.278 3.66026 54.841 0.438278 62.2616C-5.19602 75.2497 50.5627 87.7537 50.5627 92.6451C50.5627 97.5365 10.196 76.4434 7.49993 88.555C4.80382 100.667 47.5076 99.3228 48.3173 107.386C48.8598 112.787 19.6116 102.011 17.3746 104.698C15.1375 107.386 9.7453 117.261 54.1519 123.062C98.5585 128.863 129.944 128.446 129.944 128.446L131.738 96.6267Z" fill="#EA916A"/>
<rect x="132.559" y="138.77" width="61.7686" height="19.5823" rx="1.18" transform="rotate(-83.73 132.559 138.77)" fill="#42A5F5"/>
<path d="M145.67 132.919C158.799 132.919 169.442 122.276 169.442 109.147C169.442 96.0174 158.799 85.374 145.67 85.374C132.54 85.374 121.897 96.0174 121.897 109.147C121.897 122.276 132.54 132.919 145.67 132.919Z" fill="#BBDEFB"/>
<path d="M145.67 127.919C156.037 127.919 164.442 119.515 164.442 109.147C164.442 98.7788 156.037 90.374 145.67 90.374C135.302 90.374 126.897 98.7788 126.897 109.147C126.897 119.515 135.302 127.919 145.67 127.919Z" fill="white"/>
<g opacity="0.9">
<path d="M151.296 118.053L142.882 111.768C142.155 111.223 141.913 110.241 142.306 109.422L148.341 96.9014L151.755 98.5708L146.396 109.697L153.566 115.048L151.296 118.053Z" fill="#FFA1A1"/>
</g>
<path d="M69.4522 74.2812C69.4522 74.2812 61.3472 83.9305 60.0784 90.3828C58.8096 96.8351 61.3472 111.776 61.3472 111.776C61.3472 111.776 62.3572 95.3327 63.6259 90.3828C64.8947 85.433 69.4522 74.2812 69.4522 74.2812Z" fill="#D87755"/>
<path d="M419.816 70.9055C406.131 29.7571 362.701 -4.47675 315.242 0.478396C258.195 6.4321 217.806 66.6726 231.353 119.659C246.083 177.281 320.838 211.609 373.849 186.858C416.316 166.994 434.219 114.208 419.816 70.9055Z" fill="#BBDEFB"/>
<path d="M408.479 121.79V121.79C402.64 111.15 393.064 95.7032 385.454 92.6677C373.643 87.9612 388.845 109.566 384.456 112.771C380.067 115.975 332.824 88.9876 328.102 96.0287C323.38 103.07 356.1 113.184 356.1 117.221C356.1 121.258 317.446 100.685 315.023 106.249C310.784 115.982 352.728 125.363 352.728 129.025C352.728 132.686 322.363 116.883 320.341 125.964C318.319 135.046 350.436 134.063 351.039 140.084C351.447 144.133 329.445 136.047 327.763 138.069C326.08 140.09 322.024 147.457 355.428 151.838C371.559 153.97 387.788 155.282 404.053 155.768C404.932 155.818 406.564 155.894 408.743 156C414.733 146.801 419.121 136.659 421.722 126.002C416.41 124.938 411.889 123.542 408.479 121.79Z" fill="#AA5B3F"/>
<path d="M386.328 121C386.328 121 387.011 128.555 390.194 132.048C392.168 134.139 394.884 135.319 397.722 135.319C397.722 135.319 392.057 137.183 388.095 134.743C384.133 132.303 386.328 121 386.328 121Z" fill="#843E28"/>
<path d="M365.722 115C365.722 115 359.89 122.21 358.977 127.028C358.064 131.845 359.89 143 359.89 143C359.89 143 360.617 130.723 361.53 127.028C362.443 123.332 365.722 115 365.722 115Z" fill="#D87755"/>
<rect x="275.722" y="36" width="100" height="129" rx="8.26" fill="#424242"/>
<rect x="285.722" y="48" width="82" height="101" rx="3.07" fill="white"/>
<rect x="293.722" y="77" width="29" height="29" fill="#EF9A9A"/>
<rect x="328.722" y="77" width="29" height="29" fill="#90CAF9"/>
<rect x="293.722" y="110" width="29" height="29" fill="#FFECB3"/>
<rect x="328.722" y="110" width="29" height="29" fill="#FFD54F"/>
<rect x="293.722" y="67" width="49" height="4" rx="2" fill="#C1C1C1"/>
<rect x="293.722" y="59" width="27" height="4" rx="2" fill="#C1C1C1"/>
<path d="M325.722 159C327.379 159 328.722 157.657 328.722 156C328.722 154.343 327.379 153 325.722 153C324.065 153 322.722 154.343 322.722 156C322.722 157.657 324.065 159 325.722 159Z" fill="#5B5B5B"/>
<path d="M640.237 75.3744C632.479 36.7934 598.623 9.20527 564.936 3.9357C509.813 -4.69768 448.355 47.7137 452.082 107.415C455.225 157.879 503.539 198.045 555.178 192.485C609.936 186.592 650.852 128.052 640.237 75.3744Z" fill="#EF9A9A"/>
<path d="M594.087 157.626L502.78 160C502.78 160 507.057 111.711 506.207 97.0716C505.358 82.4319 495.92 41.6615 495.92 41.6615L584.906 38C584.906 38 603.947 77.6781 594.087 157.626Z" fill="white"/>
<g style="mix-blend-mode:multiply">
<path d="M507.92 54.1791L509.596 61L579.92 58.5185L578.088 52L507.92 54.1791V54.1791Z" fill="#FFD54F"/>
</g>
<g style="mix-blend-mode:multiply">
<path d="M511.92 67.4283L513.596 75L583.92 72.2498L582.088 65L511.92 67.4283V67.4283Z" fill="#FFD54F"/>
</g>
<g style="mix-blend-mode:multiply">
<path d="M513.92 81.7165L515.592 89L566.92 87.0613L565.279 80L513.92 81.7165V81.7165Z" fill="#FFD54F"/>
</g>
<g style="mix-blend-mode:multiply">
<path d="M535.42 128C541.219 128 545.92 123.299 545.92 117.5C545.92 111.701 541.219 107 535.42 107C529.621 107 524.92 111.701 524.92 117.5C524.92 123.299 529.621 128 535.42 128Z" fill="#EF9A9A"/>
</g>
<g style="mix-blend-mode:multiply">
<path d="M529.42 139C535.219 139 539.92 134.299 539.92 128.5C539.92 122.701 535.219 118 529.42 118C523.621 118 518.92 122.701 518.92 128.5C518.92 134.299 523.621 139 529.42 139Z" fill="#BBDEFB"/>
</g>
<g style="mix-blend-mode:multiply">
<path d="M545.42 139C551.219 139 555.92 134.299 555.92 128.5C555.92 122.701 551.219 118 545.42 118C539.621 118 534.92 122.701 534.92 128.5C534.92 134.299 539.621 139 545.42 139Z" fill="#FFECB3"/>
</g>
<path d="M603.56 162.66C603.197 150.519 602.217 138.404 600.624 126.363C597.357 101.434 591.832 104.456 590.324 105.715C588.817 106.973 594.858 123.394 591.832 123.093C587.334 122.641 588.066 98.6637 581.286 100.175C574.507 101.687 586.307 124.369 583.574 124.369C580.842 124.369 573.834 93.0578 566.562 96.225C562.412 98.0315 577.767 126.886 574.759 126.886C571.75 126.886 564.207 102.457 558.935 105.986C553.662 109.514 573.822 144.776 571.432 148.052C569.042 151.328 552.905 139.983 556.419 148.792C558.683 154.477 570.231 161.624 578.164 165.984V165.984C580.296 170.145 581.719 176.449 582.626 184C590.307 180.315 597.468 175.626 603.92 170.054C603.746 166.345 603.596 163.75 603.56 162.66Z" fill="#FFCDBB"/>
<g opacity="0.9">
<path d="M574.244 135.713C574.244 135.713 579.744 130.414 583.411 129.588C587.078 128.762 595.615 130.4 595.615 130.4C595.615 130.4 586.247 131.065 583.423 131.891C580.6 132.717 574.244 135.713 574.244 135.713Z" fill="#FFA1A1"/>
</g>
</svg>
