<svg xmlns="http://www.w3.org/2000/svg" viewBox="0 0 311.35 310.48"><defs><style>.cls-1{fill:#e0f2f1;}.cls-2{fill:#aa5b3f;}.cls-3{fill:#843e28;}.cls-4{fill:#d87755;}.cls-5{fill:#424242;}.cls-6{fill:#fff;}.cls-7{fill:#fca2a2;}.cls-8{fill:#80cbc4;}.cls-9{fill:#ffecb3;}.cls-10{fill:#ffcc80;}.cls-11{fill:#c1c1c1;}.cls-12{fill:#5b5b5b;}</style></defs><title>Asset 46</title><g id="Layer_2" data-name="Layer 2"><g id="Layer_1-2" data-name="Layer 1"><path class="cls-1" d="M303.56,112.9C281.82,47.38,212.83-7.13,137.44.76,46.82,10.24-17.34,106.16,4.18,190.53c23.4,91.75,142.15,146.41,226.36,107C298,265.9,326.44,181.85,303.56,112.9Z"/><path class="cls-2" d="M285.57,194.08v0c-9.3-17-24.55-41.68-36.67-46.53-18.81-7.52,5.4,27-1.59,32.12s-82.23-38-89.75-26.75,44.59,27.41,44.59,33.86-61.56-26.42-65.42-17.53c-6.75,15.55,60.05,30.54,60.05,36.39s-48.36-19.4-51.58-4.89,47.93,12.94,48.89,22.56c.65,6.47-34.39-6.45-37.07-3.22s-9.14,15,44.06,22a763.09,763.09,0,0,0,77.44,6.28c1.4.08,4,.2,7.47.37a155.55,155.55,0,0,0,20.67-47.93C298.2,199.11,291,196.88,285.57,194.08Z"/><path class="cls-3" d="M250.5,194.08s1.07,11.55,6.06,16.89a16.42,16.42,0,0,0,11.8,5s-8.88,2.85-15.09-.88S250.5,194.08,250.5,194.08Z"/><path class="cls-4" d="M219.36,183.65s-9.71,11.57-11.23,19.3,1.52,25.63,1.52,25.63,1.21-19.7,2.73-25.63S219.36,183.65,219.36,183.65Z"/><rect class="cls-5" x="74.78" y="56.54" width="159.79" height="205.72" rx="8.26" ry="8.26"/><rect class="cls-6" x="89.5" y="77.27" width="130.36" height="160.78" rx="3.07" ry="3.07"/><rect class="cls-7" x="103.4" y="122.08" width="46.97" height="46.97"/><rect class="cls-8" x="158.98" y="122.08" width="46.97" height="46.97"/><rect class="cls-9" x="103.4" y="176.11" width="46.97" height="46.97"/><rect class="cls-10" x="158.98" y="176.11" width="46.97" height="46.97"/><rect class="cls-11" x="103.4" y="106.18" width="79.07" height="5.42" rx="2.71" ry="2.71"/><rect class="cls-11" x="103.4" y="94.07" width="43.8" height="5.48" rx="2.71" ry="2.71"/><circle class="cls-12" cx="154.68" cy="250.03" r="5.33"/></g></g></svg>