<svg width="541" height="552" viewBox="0 0 541 552" fill="none" xmlns="http://www.w3.org/2000/svg">
<path d="M440.169 68.274C395.668 32.6964 341.537 11.2723 284.846 5.78821C89.7954 -13.0877 33.0073 17.4835 18.3882 50.2567C-3.37785 99.0184 70.6723 147.254 65.1374 254.977C60.0246 354.591 -6.71263 380.772 8.15552 437.767C29.6033 519.821 198.764 583.117 335.442 535.741C450.492 495.863 563.625 370.254 537.092 225.735C525.704 163.872 490.585 108.574 440.169 68.274Z" fill="#BBDEFB"/>
<path d="M8.57441 438.767C17.6533 473.505 53.0879 504.887 101.312 526H363.586C402.766 507.742 440.427 479.987 471 445.409L7 431C7.37565 433.617 7.90133 436.211 8.57441 438.767Z" fill="white"/>
<path d="M461.731 142.232C461.731 142.232 456.498 89.7211 413.155 91.0238C369.812 92.3266 372.266 134.911 372.266 134.911C372.266 134.911 321.996 111.82 308.758 141.956C295.52 172.092 332.262 177.717 369.335 169.707C406.408 161.698 527.375 189.187 518.54 144.948C509.706 100.708 461.731 142.232 461.731 142.232Z" fill="white"/>
<path d="M316.554 77.8371C316.554 77.8371 314.315 55.4328 295.774 56.011C277.233 56.5892 278.311 74.7398 278.311 74.7398C278.311 74.7398 256.813 64.897 251.174 77.7545C245.535 90.6121 261.201 93.0142 277.054 89.5934C292.906 86.1725 344.583 97.9081 340.803 79.0279C337.023 60.1477 316.554 77.8371 316.554 77.8371Z" fill="white"/>
<path d="M120.285 409.763C121.233 408.44 122.16 407.097 123.072 405.739C134.806 387.894 140.31 375.755 142.805 369.093C144.234 366.061 145.355 362.895 146.149 359.641C159.151 323.362 152.114 309.09 137.844 303.024C123.574 296.958 109.276 319.83 109.276 319.83C108.715 320.716 108.219 321.642 107.792 322.6C101.765 335.847 103.877 360.804 103.877 360.804C103.877 360.804 102.093 374.972 95.8846 388.033C95.8846 388.033 86.1299 406.577 97.536 416.771C108.942 426.964 120.278 409.77 120.285 409.763Z" fill="#1976D2"/>
<rect x="63.6224" y="426.492" width="23" height="31" transform="rotate(64.78 63.6224 426.492)" fill="#FFAB91"/>
<rect x="37.2897" y="438.475" width="23" height="17" transform="rotate(64.78 37.2897 438.475)" fill="#EF5350"/>
<path d="M28.9912 458.962C28.9912 458.962 35.9689 453.705 38.679 462.412C41.3891 471.12 26.041 471.47 26.288 476.096C26.535 480.723 40.8402 492.664 33.5264 498.495C26.2125 504.325 22.0959 498.753 19.1182 494.204C16.1405 489.654 -0.490624 460.117 1.108 454.615C2.70662 449.113 6.24691 449.869 11.5985 447.651C16.9501 445.432 24.3257 440.651 27.5779 447.714C30.83 454.776 28.9912 458.962 28.9912 458.962Z" fill="#424242"/>
<path d="M34.9676 499.642C38.6174 496.783 36.7786 492.144 33.9368 487.617C33.8601 487.505 31.7149 484.554 25.6551 484.863C23.7014 484.934 21.7609 485.216 19.867 485.704C17.882 482.109 14.0023 474.898 11.1257 468.297C8.60902 462.348 6.49376 456.235 4.79433 450C2.49232 450.813 0.737874 452.717 0.106741 455.088C-1.19575 459.537 9.73962 479.656 15.5834 489.635L15.6809 489.81L16.0083 490.364L16.2382 490.749L16.5377 491.254L16.7675 491.646L17.1645 492.305C17.262 492.459 17.3596 492.62 17.4431 492.767L17.6312 493.069C17.7078 493.195 17.7844 493.328 17.8611 493.44L17.9307 493.559C18.2232 494.029 18.467 494.414 18.6272 494.701C21.6641 499.256 27.5357 505.451 34.9676 499.642Z" fill="#E0F2F1"/>
<path d="M17 461C19.7614 461 22 458.761 22 456C22 453.239 19.7614 451 17 451C14.2386 451 12 453.239 12 456C12 458.761 14.2386 461 17 461Z" fill="white"/>
<path fill-rule="evenodd" clip-rule="evenodd" d="M38.9402 475.175C39.7261 471.524 32.5445 469.717 30.6482 469.311C28.4202 462.123 22.039 458.429 21.0656 463.034C20.1931 467.105 28.276 469.097 30.2877 469.531C32.3138 475.987 38.0821 479.31 38.9402 475.175ZM23.8344 464.023C23.9498 462.6 27.2305 464.592 28.8384 467.774C28.8384 467.774 23.7262 465.468 23.8344 464.023ZM31.9172 470.862C31.9172 470.862 36.5391 472.941 36.4382 474.25C36.3372 475.56 33.3665 473.745 31.9172 470.862Z" fill="white"/>
<path d="M119.491 411.069C119.491 411.069 125.399 393.986 113.834 388.267C102.268 382.548 95.5104 389.452 95.5104 389.452C88.1531 403.048 56 423.13 56 423.13C56 423.13 56.4807 434.575 61.288 441.986C64.2144 446.488 67.3844 450.832 70.7842 455C70.7842 455 99.9833 437.103 119.491 411.069Z" fill="#1976D2"/>
<path d="M199.024 381.856C198.485 380.312 197.911 378.782 197.303 377.265C189.325 357.355 182.501 345.871 178.45 339.969C176.777 337.047 174.815 334.302 172.594 331.779C150.237 300.217 134.571 297.811 121.498 306.029C108.425 314.247 119.12 339.16 119.12 339.16C119.515 340.122 119.977 341.054 120.503 341.951C127.948 354.508 149.594 367.149 149.594 367.149C149.594 367.149 160.192 376.77 167.375 389.383C167.375 389.383 177.053 408.059 191.862 404.564C206.67 401.069 199.031 381.863 199.024 381.856Z" fill="#42A5F5"/>
<rect x="181.749" y="436.298" width="23" height="31" transform="rotate(9.61 181.749 436.298)" fill="#FFAB91"/>
<rect x="175.689" y="468.184" width="23" height="18" transform="rotate(9.74364 175.689 468.184)" fill="#EF5350"/>
<path d="M187.334 484.454C187.334 484.454 187.085 475.877 195.707 478.498C204.329 481.12 195.776 493.778 199.669 496.155C203.562 498.532 221.477 493.507 221.974 502.668C222.472 511.829 215.6 512.094 210.22 511.985C204.841 511.877 171.321 509.058 167.774 504.712C164.227 500.366 166.882 497.921 168.161 492.325C169.44 486.729 169.82 478.111 177.412 479.374C185.004 480.637 187.334 484.454 187.334 484.454Z" fill="#424242"/>
<path d="M223.979 502.19C223.735 497.412 218.902 496.245 213.583 496C213.45 496 209.823 496.094 206.62 501.419C205.558 503.116 204.68 504.929 204.001 506.824C199.928 506.406 191.837 505.462 184.811 504.028C178.521 502.668 172.327 500.875 166.268 498.659C165.616 501.09 166.169 503.696 167.744 505.621C170.627 509.346 193.285 511.876 204.76 512.777H204.962L205.596 512.827L206.042 512.863H206.62H207.072L207.838 512.914H208.381H208.729H209.168H209.307C209.85 512.914 210.31 512.957 210.644 512.964C216.075 513.26 224.48 511.912 223.979 502.19Z" fill="#E0F2F1"/>
<path d="M178 498C180.761 498 183 495.761 183 493C183 490.239 180.761 488 178 488C175.239 488 173 490.239 173 493C173 495.761 175.239 498 178 498Z" fill="white"/>
<path fill-rule="evenodd" clip-rule="evenodd" d="M207.239 485.794C204.642 483.162 199.021 487.811 197.595 489.069C190.325 486.837 183.582 489.808 186.845 493.117C189.739 496.06 196.033 490.816 197.552 489.462C204.114 491.493 210.176 488.813 207.239 485.794ZM189.283 491.493C188.14 490.602 191.699 489.138 195.273 489.642C195.273 489.67 190.426 492.412 189.283 491.521V491.493ZM205.04 487.266C204.005 486.457 199.628 488.937 199.628 488.937V488.965C202.855 489.421 206.074 488.074 205.04 487.266Z" fill="white"/>
<path d="M199.993 382.983C199.993 382.983 189.069 368.394 177.628 374.488C166.188 380.582 168.124 390.019 168.124 390.019C175.294 403.775 173.715 441.356 173.715 441.356C173.715 441.356 183.576 447.546 192.543 447.883C197.994 448.093 203.453 448.02 208.896 447.663C208.896 447.663 210.622 413.727 199.993 382.983Z" fill="#42A5F5"/>
<path d="M204.896 135.235L198.311 142.145L185.023 117.579L163.124 141.703C166.04 117.931 165.637 100.137 157.945 100.013C134.661 99.6465 99.9472 106.557 95.4985 158.875C90.5239 217.379 55 241.986 55 241.986C69.9451 259.732 93.3267 264.493 109.845 265.44L109.901 266C111.147 265.875 112.372 265.737 113.59 265.592C118.815 265.767 124.046 265.547 129.238 264.936L137.744 262.51L138.259 260.575C163.792 252.836 179.893 239.077 189.993 224.04C194.183 217.765 197.584 211.005 200.121 203.91C214.412 167.016 204.896 135.235 204.896 135.235Z" fill="#424242"/>
<path d="M60.3521 293.568C60.3521 293.568 52.5293 299.689 48.8003 297.544C45.0712 295.4 51.5523 293.071 50.025 291.367C48.4976 289.663 38.8034 294.768 36.3128 291.502C33.8222 288.236 40.7643 287.952 40.7643 287.952C40.7643 287.952 32.9003 289.223 32.0609 286.425C31.2215 283.628 39.3401 283.386 39.3401 283.386C39.3401 283.386 33.836 283.862 33.9116 281.576C33.9873 279.29 41.3078 280.262 41.3078 280.262C41.3078 280.262 37.6476 280 38.7071 276.954C39.7666 273.908 61.6937 279.133 61.6937 279.133C61.6937 279.133 67.6863 289.528 60.3521 293.568Z" fill="#FFAB91"/>
<path d="M244.793 253.648C244.793 253.648 254.371 252.254 255.477 248.22C256.583 244.186 250.518 247.183 250.423 244.974C250.328 242.764 260.49 239.39 259.982 235.477C259.473 231.564 254.5 236.252 254.5 236.252C254.5 236.252 260.782 231.591 259.452 229.139C258.123 226.688 252.357 232.238 252.357 232.238C252.357 232.238 256.481 228.708 254.867 227.24C253.252 225.772 248.849 231.517 248.849 231.517C248.849 231.517 251.19 228.789 248.388 227.476C245.587 226.163 234 244.987 234 244.987C234 244.987 236.978 256.093 244.793 253.648Z" fill="#FFAB91"/>
<path d="M56.2377 290.589C58.7477 278.91 63.3517 275.392 63.3517 275.392C63.3517 275.392 106.452 282.393 114.079 259.378C122.025 235.429 130.858 232.674 130.858 232.674C135.132 231.34 139.786 232.008 143.502 234.489C147.218 236.969 149.59 240.993 149.947 245.418C149.947 245.418 152.388 276.21 124.188 295.865C95.9887 315.521 55.8217 307.29 55.8217 307.29C55.8217 307.29 53.7208 302.255 56.2377 290.589Z" fill="#FBC02D"/>
<path d="M145.643 199.204C145.643 199.204 143.736 214.826 138 219.96L146.891 231L157.825 226.002C157.825 226.002 161.223 211 159.524 200.09C157.825 189.18 145.643 199.204 145.643 199.204Z" fill="#FF8A65"/>
<path d="M185.5 286C193.508 286 200 279.508 200 271.5C200 263.492 193.508 257 185.5 257C177.492 257 171 263.492 171 271.5C171 279.508 177.492 286 185.5 286Z" fill="#FFCCBC"/>
<path d="M158.144 223.332C158.144 223.332 152.33 224.714 149.087 224.286C145.844 223.857 138.458 220 138.458 220C138.458 220 128.064 230.728 121.384 249.84C114.704 268.953 100 336.624 100 336.624C100 336.624 123.331 344.227 144.348 344.918C165.364 345.609 186 341.69 186 341.69C186 341.69 179.68 241.49 158.144 223.332Z" fill="#FDD835"/>
<path d="M240.806 250.068C233.115 240.854 227.39 239.857 227.39 239.857C227.39 239.857 190.689 269.492 175.301 249.299C159.912 229.106 148.007 233.377 148.007 233.377C143.625 234.181 139.846 236.943 137.739 240.883C135.633 244.822 135.429 249.51 137.185 253.619C137.185 253.619 149.504 282.181 183.529 286.514C217.554 290.848 249 264.75 249 264.75C249 264.75 248.496 259.281 240.806 250.068Z" fill="#FBC02D"/>
<path d="M145.529 199.284C145.529 199.284 144.33 209.223 141 216C141 216 144.749 208.734 159.514 209.558H159.947C160.089 206.429 159.944 203.295 159.514 200.191C157.802 189.066 145.529 199.284 145.529 199.284Z" fill="#FF7043"/>
<path d="M155.5 100C130.747 100 110.695 120.182 110.716 145.781V157.448H105.403C101.719 157.352 98.2732 159.257 96.4028 162.424C94.5324 165.591 94.5324 169.522 96.4028 172.689C98.2732 175.856 101.719 177.761 105.403 177.665H113.55C120.088 195.867 137.278 207.021 158.396 207C183.963 207 206.021 189.888 206 163.449V151.524C205.979 122.703 183.371 99.9722 155.5 100Z" fill="#FFAB91"/>
<path opacity="0.9" d="M186 169C187.657 169 189 167.209 189 165C189 162.791 187.657 161 186 161C184.343 161 183 162.791 183 165C183 167.209 184.343 169 186 169Z" fill="#212121"/>
<path opacity="0.9" d="M174 176C172.457 179.571 169.455 181.992 166.003 182C162.552 182.008 159.556 179.586 158 176.015L174 176Z" fill="#FF7043"/>
<path opacity="0.9" d="M139 190C145.075 190 150 185.075 150 179C150 172.925 145.075 168 139 168C132.925 168 128 172.925 128 179C128 185.075 132.925 190 139 190Z" fill="#EF5350"/>
<path opacity="0.9" d="M193.579 171C198.149 170.994 202.089 174.176 203 178.607C201.494 182.515 199.393 186.172 196.772 189.452C195.754 189.813 194.682 189.998 193.601 190C188.298 190 184 185.747 184 180.5C184 175.253 188.298 171 193.601 171H193.579Z" fill="#EF5350"/>
<path opacity="0.9" d="M171.229 166C172.267 166.059 173.056 166.83 172.997 167.727V168.473C173.021 168.859 172.865 169.238 172.565 169.524C172.264 169.811 171.844 169.982 171.397 170C170.999 169.979 170.627 169.821 170.365 169.561C170.104 169.301 169.974 168.962 170.004 168.618V167.154C169.989 166.86 170.11 166.574 170.339 166.358C170.569 166.141 170.889 166.013 171.229 166V166Z" fill="#E57373"/>
<path opacity="0.9" d="M191.993 145.32C191.993 144.315 189.903 141.516 186.752 141.058C185.082 140.836 183.389 141.256 182.021 142.231C181.232 142.71 179.149 144.254 180.381 145.144C181.123 145.677 181.47 144.612 183.879 144.032C186.289 143.452 187.392 144.18 189.325 145.34C191.258 146.5 191.843 145.778 191.843 145.778C191.965 145.658 192.021 145.488 191.993 145.32Z" fill="#212121"/>
<path opacity="0.9" d="M152 169C153.657 169 155 167.209 155 165C155 162.791 153.657 161 152 161C150.343 161 149 162.791 149 165C149 167.209 150.343 169 152 169Z" fill="#212121"/>
<path opacity="0.34" d="M108 167L104 167.01" stroke="#FFAB91" stroke-width="6" stroke-linecap="round"/>
<path d="M193.791 113.774C186.595 105.468 179.991 102.785 179.991 102.785C173.721 99.6138 164.213 96.6377 150.733 97.0359C123.008 97.8533 107 122.437 107 122.437L118.083 118.993C107.084 135.85 107.962 157.319 107.962 157.319C161.873 159.219 173.157 115.891 173.157 115.891C178.265 119.883 182.973 124.363 187.215 129.269C193.651 136.849 202.902 157.94 205.703 157.591C208.503 157.242 208.977 130.737 193.791 113.774Z" fill="#424242"/>
<path opacity="0.9" d="M145.006 145.326C145.006 144.317 147.257 141.526 150.657 141.062C152.474 140.831 154.318 141.248 155.808 142.226C156.662 142.696 158.921 144.243 157.589 145.124C156.787 145.662 156.412 144.593 153.799 144.028C151.187 143.463 150.01 144.176 147.912 145.339C145.815 146.502 145.197 145.776 145.197 145.776C145.051 145.667 144.978 145.496 145.006 145.326Z" fill="#212121"/>
<path d="M110.37 167H105" stroke="#FF8A65" stroke-width="6" stroke-linecap="round"/>
</svg>
