<svg xmlns="http://www.w3.org/2000/svg" viewBox="0 0 504 67.31"><defs><style>.cls-1{fill:#002855;}.cls-2{fill:#888b8d;}</style></defs><title>Asset 1</title><g id="Layer_2" data-name="Layer 2"><g id="Layer_1-2" data-name="Layer 1"><polygon class="cls-1" points="46.48 58.42 46.6 58.42 0 38.58 0 47.66 46.48 58.42"/><polygon class="cls-1" points="0 11.52 0 22.44 46.7 58.42 46.73 58.42 46.73 58.41 0 11.52"/><polygon class="cls-1" points="46.63 58.42 46.68 58.42 0 25.54 0 35.96 46.63 58.42"/><polygon class="cls-1" points="46.73 58.27 46.73 58.12 34.38 0.28 24.77 0.28 46.73 58.27"/><polygon class="cls-1" points="46.73 58.41 46.73 58.37 7.33 0.28 0 0.28 0 7.53 46.73 58.41"/><polygon class="cls-1" points="46.42 58.42 0 50.02 0 58.42 46.42 58.42"/><polygon class="cls-1" points="46.73 0.28 37.17 0.28 46.73 58.06 46.73 0.28"/><polygon class="cls-1" points="46.73 58.35 46.73 58.29 21.67 0.28 10.99 0.28 46.73 58.35"/><path class="cls-2" d="M70.59,42.51H61.25L59.08,58.62H53.76L62.29.48h7.25l8.54,58.14H72.76ZM66,4.51h-.16L61.81,38H70Z"/><path class="cls-2" d="M80.8,14.73h4.67v3h.16c1.53-2.25,3.14-3.46,5.8-3.46A5.42,5.42,0,0,1,96.1,17a6.42,6.42,0,0,1,5.15-2.74c4.11,0,6,3.06,6,6.6V58.62h-5V22.54c0-2.41-.65-3.78-2.5-3.78-2,0-3.22,1.85-3.22,4V58.62h-5V22.54c0-2.41-.65-3.78-2.5-3.78-2,0-3.22,1.85-3.22,4V58.62h-5Z"/><path class="cls-2" d="M123.22,44.45h5v6.19c0,6.69-4,8.46-8.29,8.46s-8.29-1.77-8.29-8.46V22.7c0-6.68,4-8.45,8.29-8.45s8.29,1.77,8.29,8.45V37.92H116.62V50.64c0,3.23,1.28,4.43,3.3,4.43s3.3-1.2,3.3-4.43Zm0-21.75c0-3.22-1.29-4.42-3.3-4.42s-3.3,1.2-3.3,4.42V33.41h6.6Z"/><path class="cls-2" d="M132.39,14.73h4.67v3.06h.16a7.29,7.29,0,0,1,6.68-3.54v5c-4.83,0-6.52,1.85-6.52,6.44V58.62h-5Z"/><path class="cls-2" d="M146.32,14.73h5V58.62h-5ZM146.16.48h5.31V6.6h-5.31Z"/><path class="cls-2" d="M166.13,21.9c0-2.74-.73-3.62-2.34-3.62s-2.74,1.12-2.74,3.62V51.77c0,2.25.65,3.3,2.5,3.3s2.58-1.28,2.58-3.3V44.68h5v7c0,4.75-2.66,7.41-7.49,7.41-4,0-7.57-2-7.57-6.61V22.7c0-6.68,4-8.45,8.29-8.45s6.77,2.34,6.77,7.08v7.33h-5Z"/><path class="cls-2" d="M186.88,22c0-2.66-.88-3.7-2.9-3.7-2.81,0-3.22,1.69-3.22,4.26v4.11h-5V21.5c0-4.51,3.79-7.25,8.38-7.25,4.83,0,7.73,2,7.73,7.65V58.62h-4.67V56.28h-.16a6.61,6.61,0,0,1-5.8,2.82c-3.87,0-6-2.82-6-7.25V39.94c0-5.48,3.7-8.46,11.59-8.46Zm0,13.53c-2.57,0-6.6,1-6.6,4.75v10c0,3.14.48,4.83,3.14,4.83,2.18,0,3.46-1.61,3.46-4.51Z"/><path class="cls-2" d="M196.05,14.73h4.67v3h.16a7,7,0,0,1,5.8-3.46c4.11,0,6,3.06,6,6.6V58.62h-5V22.79c0-2.34-.88-4-3.13-4s-3.46,2.25-3.46,4V58.62h-5Z"/><path class="cls-2" d="M235.44,8.45c0-2.25-.57-3.94-3.06-3.94s-3.06,1.69-3.06,3.94v6.12a10.44,10.44,0,0,0,1.21,5.24L239,34.3a13.89,13.89,0,0,1,1.93,7.08v9.18c0,5.48-3.22,8.54-8.53,8.54-5.88,0-8.7-2.66-8.7-8.54v-8H229v7.65c0,2.74,1,4.35,3.38,4.35,2.17,0,3.22-1.61,3.22-4.35V42.11a10.48,10.48,0,0,0-1.53-5.56L226.26,23A13.41,13.41,0,0,1,224,15.54v-7C224,2.82,227,0,232.38,0c6,0,8.37,2.82,8.37,8.13v7.41h-5.31Z"/><path class="cls-2" d="M244.77,14.73h4.67v2.74h.16c.8-2,2.49-3.22,5.31-3.22,3.22,0,6.45,1.93,6.45,8.54V52.26c0,3.94-2.26,6.84-5.72,6.84a6.2,6.2,0,0,1-5.72-3.22h-.16V67.31h-5ZM256.36,23c0-3.06-.88-4.67-2.9-4.67s-3.7,1.28-3.7,4.83V49.76c0,2.73,1.45,4.83,3.62,4.83s3-1.85,3-5.07Z"/><path class="cls-2" d="M277.12,44.45h5v6.19c0,6.69-4,8.46-8.3,8.46s-8.29-1.77-8.29-8.46V22.7c0-6.68,4-8.45,8.29-8.45s8.3,1.77,8.3,8.45V37.92h-11.6V50.64c0,3.23,1.29,4.43,3.3,4.43s3.3-1.2,3.3-4.43Zm0-21.75c0-3.22-1.28-4.42-3.3-4.42s-3.3,1.2-3.3,4.42V33.41h6.6Z"/><path class="cls-2" d="M296.36,21.9c0-2.74-.73-3.62-2.34-3.62s-2.73,1.12-2.73,3.62V51.77c0,2.25.64,3.3,2.49,3.3s2.58-1.28,2.58-3.3V44.68h5v7c0,4.75-2.66,7.41-7.49,7.41-4,0-7.57-2-7.57-6.61V22.7c0-6.68,4-8.45,8.3-8.45s6.76,2.34,6.76,7.08v7.33h-5Z"/><path class="cls-2" d="M306.08,14.73h5V58.62h-5ZM305.92.48h5.32V6.6h-5.32Z"/><path class="cls-2" d="M327.42,22c0-2.66-.89-3.7-2.9-3.7-2.82,0-3.22,1.69-3.22,4.26v4.11h-5V21.5c0-4.51,3.78-7.25,8.37-7.25,4.83,0,7.73,2,7.73,7.65V58.62h-4.67V56.28h-.16a6.61,6.61,0,0,1-5.8,2.82c-3.86,0-6-2.82-6-7.25V39.94c0-5.48,3.7-8.46,11.6-8.46Zm0,13.53c-2.58,0-6.61,1-6.61,4.75v10c0,3.14.49,4.83,3.15,4.83,2.17,0,3.46-1.61,3.46-4.51Z"/><path class="cls-2" d="M337.15.48h5V58.62h-5Z"/><path class="cls-2" d="M347.7,8.85l5-1.93v7.81h3.54v4h-3.54V52.09c0,2,1,2.5,2.49,2.5h1.05v4h-2.42c-4.18,0-6.11-2-6.11-5.4V18.76h-2.5v-4h2.5Z"/><path class="cls-2" d="M366.86,67.31h-5l1.77-8.69-6.36-43.89h5l3.54,29.55H366l4.26-29.55h5Z"/><path class="cls-2" d="M398.29.48h5.32V58.62h-5.32V30.67h-8V58.62H385V.48h5.32V26.17h8Z"/><path class="cls-2" d="M420.58,44.45h5v6.19c0,6.69-4,8.46-8.29,8.46s-8.3-1.77-8.3-8.46V22.7c0-6.68,4-8.45,8.3-8.45s8.29,1.77,8.29,8.45V37.92H414V50.64c0,3.23,1.29,4.43,3.3,4.43s3.3-1.2,3.3-4.43Zm0-21.75c0-3.22-1.29-4.42-3.3-4.42s-3.3,1.2-3.3,4.42V33.41h6.6Z"/><path class="cls-2" d="M441.34,22c0-2.66-.88-3.7-2.9-3.7-2.82,0-3.22,1.69-3.22,4.26v4.11h-5V21.5c0-4.51,3.78-7.25,8.37-7.25,4.83,0,7.73,2,7.73,7.65V58.62h-4.66V56.28h-.17a6.61,6.61,0,0,1-5.79,2.82c-3.87,0-6-2.82-6-7.25V39.94c0-5.48,3.71-8.46,11.6-8.46Zm0,13.53c-2.58,0-6.6,1-6.6,4.75v10c0,3.14.48,4.83,3.14,4.83,2.18,0,3.46-1.61,3.46-4.51Z"/><path class="cls-2" d="M451.07.48h5V58.62h-5Z"/><path class="cls-2" d="M461.62,8.85l5-1.93v7.81h3.55v4h-3.55V52.09c0,2,1,2.5,2.5,2.5h1.05v4h-2.42c-4.19,0-6.12-2-6.12-5.4V18.76h-2.5v-4h2.5Z"/><path class="cls-2" d="M472.65.48h5V17.71h.16a6.46,6.46,0,0,1,5.64-3.46c3.94,0,5.79,3.06,5.79,6.6V58.62h-5V22.79c0-2.34-.89-4-3.15-4s-3.46,2.25-3.46,4V58.62h-5Z"/><path class="cls-2" d="M498.8,48.13a5.31,5.31,0,1,1-5.27,5.3,5.22,5.22,0,0,1,5.27-5.3Zm0,.83a4.49,4.49,0,0,0,0,9,4.49,4.49,0,0,0,0-9Zm-1,7.55h-.94V50.6a10.54,10.54,0,0,1,1.67-.14,3.07,3.07,0,0,1,1.83.45,1.4,1.4,0,0,1,.54,1.22,1.47,1.47,0,0,1-1.15,1.44v0c.52.09.87.56,1,1.43a4.6,4.6,0,0,0,.38,1.46h-1a4.23,4.23,0,0,1-.4-1.51,1.1,1.1,0,0,0-1.27-1h-.66Zm0-3.27h.68c.78,0,1.44-.28,1.44-1,0-.52-.38-1-1.44-1a3.7,3.7,0,0,0-.68.05Z"/></g></g></svg>